SplineFontDB: 3.2
FontName: Modern-manJu-Round
FullName: Modern manJu Round
FamilyName: Modern-manJu
Weight: Book
Copyright: Copyright 2023 LLLLL.
Version: 0.4beta
ItalicAngle: 0
UnderlinePosition: -420
UnderlineWidth: 100
Ascent: 1352
Descent: 696
InvalidEm: 0
sfntRevision: 0x00010000
LayerCount: 2
Layer: 0 1 "Back" 1
Layer: 1 1 "Fore" 0
XUID: [1021 520 2022644484 8954717]
StyleMap: 0x0040
FSType: 0
OS2Version: 3
OS2_WeightWidthSlopeOnly: 0
OS2_UseTypoMetrics: 0
CreationTime: 1390402476
ModificationTime: 1687960474
PfmFamily: 17
TTFWeight: 400
TTFWidth: 5
LineGap: 0
VLineGap: 0
Panose: 2 2 6 3 5 4 5 2 3 4
OS2TypoAscent: 2000
OS2TypoAOffset: 0
OS2TypoDescent: -450
OS2TypoDOffset: 0
OS2TypoLinegap: 0
OS2WinAscent: 2000
OS2WinAOffset: 0
OS2WinDescent: 450
OS2WinDOffset: 0
HheadAscent: 2000
HheadAOffset: 0
HheadDescent: -450
HheadDOffset: 0
OS2SubXSize: 2000
OS2SubYSize: 664
OS2SubXOff: 0
OS2SubYOff: 144
OS2SupXSize: 2000
OS2SupYSize: 664
OS2SupXOff: 0
OS2SupYOff: 464
OS2StrikeYSize: 51
OS2StrikeYPos: 264
OS2CapHeight: 1750
OS2XHeight: 740
OS2FamilyClass: 261
OS2Vendor: 'SBT '
OS2CodePages: 001e0101.00000000
OS2UnicodeRanges: 800000a7.1001e408.00020016.00000000
Lookup: 1 0 0 "Single Subs wide y" { "Single Subs wide y-1"  } []
Lookup: 1 0 0 "Single Substitution k g h t d force replacement" { "Single Substitution t d-isol"  "Single Substitution k g h"  } []
Lookup: 1 0 0 "Single Substitution o u fina" { "Single Substitution lookup 4 subtable"  } []
Lookup: 1 0 0 "Single Substitution lookup 6" { "Single Substitution lookup 6 subtable"  } []
Lookup: 1 0 0 "Single Substitution lookup 7" { "Single Substitution lookup 7 subtable"  } []
Lookup: 1 0 0 "Single Substitution lookup 8" { "Single Substitution lookup 8 subtable"  } []
Lookup: 1 0 0 "Single Substitution lookup 9" { "Single Substitution lookup 9 subtable"  } []
Lookup: 1 0 0 "Single Substitution k to F" { "Single Substitution lookup 10 subtable"  } []

StartChar: a.isol
Encoding: 0 6176 0
Width: 1803
GlyphClass: 2
Flags: W
LayerCount: 2
Fore
SplineSet
656 735 m 1,0,-1
 1148.5 735 l 2,1,2
 1641 735 1641 735 1641 1230.5 c 0,3,4
 1641 1476 1641 1476 1516 1599 c 128,-1,5
 1391 1722 1391 1722 1148 1720 c 0,6,7
 1065 1720 1065 1720 1063 1805 c 0,8,9
 1063 1886 1063 1886 1148 1884 c 0,10,11
 1805 1884 1805 1884 1805 1228 c 0,12,13
 1805 571 1805 571 1148 571 c 2,14,-1
 656 571 l 1,15,-1
 656 409 l 2,16,17
 656 328 656 328 573 328 c 128,-1,18
 490 328 490 328 491 410 c 2,19,-1
 492 492 l 1,20,-1
 492 737.5 l 2,21,22
 492 1230.02469136 492 1230.02469136 0 1228 c 0,23,24
 -81 1228 -81 1228 -81 1310 c 128,-1,25
 -81 1392 -81 1392 0 1392 c 0,26,27
 656 1392 656 1392 656 735 c 1,0,-1
EndSplineSet
Substitution2: "'fina' Terminal Forms in Mongolian lookup 2 subtable" a.fina
Substitution2: "'medi' Medial Forms in Mongolian lookup 1 subtable" a.medi
Substitution2: "Required Feature in Latin lookup 0 subtable" a.init
EndChar

StartChar: a.init
Encoding: 1 -1 1
Width: 1312
VWidth: 4095
GlyphClass: 2
Flags: W
LayerCount: 2
Fore
SplineSet
0 1392 m 0,0,1
 656 1392 656 1392 656 735 c 1,2,-1
 1312 735 l 1,3,-1
 1392 656 l 1,4,5
 1352 614 1352 614 1312 571 c 1,6,-1
 1063 571 l 1,7,-1
 1063 409 l 2,8,9
 1063 328 1063 328 981.5 328 c 128,-1,10
 900 328 900 328 899 410 c 128,-1,11
 898 492 898 492 899 492 c 1,12,-1
 899 571 l 1,13,-1
 656 571 l 1,14,-1
 656 409 l 2,15,16
 656 328 656 328 573.5 328 c 128,-1,17
 491 328 491 328 492 410 c 128,-1,18
 493 492 493 492 492 492 c 1,19,-1
 492 736 l 2,20,21
 492 980 492 980 367.5 1104.5 c 128,-1,22
 243 1229 243 1229 0 1228 c 0,23,24
 -81 1228 -81 1228 -81 1310 c 128,-1,25
 -81 1392 -81 1392 0 1392 c 0,0,1
EndSplineSet
EndChar

StartChar: a.fina
Encoding: 2 -1 2
Width: 1227
VWidth: 4095
GlyphClass: 2
Flags: W
LayerCount: 2
Fore
SplineSet
1228 1228 m 0,0,1
 1228 571 1228 571 571 571 c 2,2,-1
 0 571 l 1,3,-1
 0 735 l 1,4,-1
 571 735 l 2,5,6
 1063 735 1063 735 1063 1229.49190283 c 128,-1,7
 1063 1723.98380567 1063 1723.98380567 571 1720 c 0,8,9
 490 1720 490 1720 491 1803 c 128,-1,10
 492 1886 492 1886 571 1884 c 0,11,12
 1226 1884 1226 1884 1228 1228 c 0,0,1
EndSplineSet
Substitution2: "Single Substitution lookup 6 subtable" a1.fina
EndChar

StartChar: a1.fina
Encoding: 3 -1 3
Width: 1311
VWidth: 4095
GlyphClass: 2
Flags: W
LayerCount: 2
Fore
SplineSet
1148 81 m 0,0,1
 1148 575.049382716 1148 575.049382716 656 571 c 1,2,-1
 164 571 l 1,3,-1
 164 409 l 2,4,5
 164 328 164 328 82 328 c 128,-1,6
 0 328 0 328 0 410 c 2,7,-1
 0 735 l 1,8,-1
 656 735 l 2,9,10
 1312 735 1312 735 1312 81 c 0,11,12
 1312 -243 1312 -243 1148 -409 c 0,13,14
 984 -573 984 -573 656 -571 c 0,15,16
 573 -571 573 -571 571 -492 c 0,17,18
 571 -409 571 -409 656 -409 c 0,19,20
 1150 -409 1150 -409 1148 81 c 0,0,1
EndSplineSet
EndChar

StartChar: a.medi
Encoding: 4 -1 4
Width: 409
VWidth: 4095
GlyphClass: 2
Flags: W
LayerCount: 2
Fore
SplineSet
0 735 m 1,0,-1
 409 735 l 1,1,-1
 489 656 l 1,2,-1
 409 571 l 1,3,-1
 164 571 l 1,4,-1
 164 409 l 2,5,6
 164 328 164 328 82 328 c 128,-1,7
 0 328 0 328 0 410 c 2,8,-1
 0 735 l 1,0,-1
EndSplineSet
Substitution2: "Single Substitution lookup 26 subtable" glyph277
EndChar

StartChar: e.isol
Encoding: 5 6237 5
Width: 1803
VWidth: 4095
GlyphClass: 2
Flags: W
LayerCount: 2
Fore
SplineSet
1148 -409 m 0,0,1
 1641 -409 1641 -409 1641 83.0288065844 c 128,-1,2
 1641 575.057613169 1641 575.057613169 1148 571 c 1,3,-1
 656 571 l 1,4,-1
 656 409 l 2,5,6
 656 328 656 328 573 328 c 128,-1,7
 490 328 490 328 491 410 c 2,8,-1
 492 492 l 1,9,-1
 492 737.5 l 2,10,11
 492 1230.02469136 492 1230.02469136 0 1228 c 0,12,13
 -81 1228 -81 1228 -81 1310 c 128,-1,14
 -81 1392 -81 1392 0 1392 c 0,15,16
 656 1392 656 1392 656 735 c 1,17,-1
 1148 735 l 2,18,19
 1805 735 1805 735 1805 81 c 0,20,21
 1805 -243 1805 -243 1641 -409 c 0,22,23
 1477 -573 1477 -573 1148 -571 c 0,24,25
 1065 -571 1065 -571 1063 -492 c 0,26,27
 1063 -409 1063 -409 1148 -409 c 0,0,1
EndSplineSet
Substitution2: "'fina' Terminal Forms in Mongolian lookup 2 subtable" e.fina
Substitution2: "'medi' Medial Forms in Mongolian lookup 1 subtable" e.medi
Substitution2: "Required Feature in Latin lookup 0 subtable" e.init
EndChar

StartChar: e.init
Encoding: 6 -1 6
Width: 1312
VWidth: 4095
GlyphClass: 2
Flags: W
LayerCount: 2
Fore
SplineSet
0 1392 m 0,0,1
 656 1392 656 1392 656 735 c 1,2,-1
 1312 735 l 1,3,4
 1352 696 1352 696 1392 656 c 1,5,-1
 1312 571 l 1,6,-1
 656 571 l 1,7,-1
 656 409 l 2,8,9
 656 328 656 328 573.5 328 c 128,-1,10
 491 328 491 328 492 410 c 128,-1,11
 493 492 493 492 492 492 c 1,12,-1
 492 736 l 2,13,14
 492 980 492 980 367.5 1104.5 c 128,-1,15
 243 1229 243 1229 0 1228 c 0,16,17
 -81 1228 -81 1228 -81 1310 c 128,-1,18
 -81 1392 -81 1392 0 1392 c 0,0,1
EndSplineSet
EndChar

StartChar: e.fina
Encoding: 7 -1 7
Width: 1227
VWidth: 4095
GlyphClass: 2
Flags: W
LayerCount: 2
Fore
SplineSet
696 1269 m 0,0,1
 696 1219 696 1219 661 1184 c 1,2,3
 635.460377358 1150.47924528 635.460377358 1150.47924528 571 1148 c 0,4,5
 515.428571429 1148 515.428571429 1148 488 1184 c 1,6,7
 453 1210.66666667 453 1210.66666667 453 1269 c 0,8,9
 453 1345.39130435 453 1345.39130435 527 1384 c 0,10,11
 548 1391 548 1391 571 1392 c 0,12,13
 654.12 1392 654.12 1392 688 1315 c 0,14,15
 695 1292 695 1292 696 1269 c 0,0,1
1228 1228 m 0,16,17
 1228 571 1228 571 571 571 c 2,18,-1
 0 571 l 1,19,-1
 0 735 l 1,20,-1
 571 735 l 2,21,22
 1063 735 1063 735 1063 1229.49190283 c 128,-1,23
 1063 1723.98380567 1063 1723.98380567 571 1720 c 0,24,25
 490 1720 490 1720 491 1803 c 128,-1,26
 492 1886 492 1886 571 1884 c 0,27,28
 1226 1884 1226 1884 1228 1228 c 0,16,17
EndSplineSet
Substitution2: "Single Substitution lookup 8 subtable" e3.fina
Substitution2: "Single Substitution lookup 7 subtable" e2.fina
Substitution2: "Single Substitution lookup 6 subtable" e1.fina
EndChar

StartChar: e1.fina
Encoding: 8 -1 8
Width: 1227
VWidth: 4095
GlyphClass: 2
Flags: W
LayerCount: 2
Fore
SplineSet
1228 1228 m 0,0,1
 1228 571 1228 571 571 571 c 2,2,-1
 0 571 l 1,3,-1
 0 735 l 1,4,-1
 571 735 l 2,5,6
 1063 735 1063 735 1063 1229.49190283 c 128,-1,7
 1063 1723.98380567 1063 1723.98380567 571 1720 c 0,8,9
 490 1720 490 1720 491 1803 c 128,-1,10
 492 1886 492 1886 571 1884 c 0,11,12
 1226 1884 1226 1884 1228 1228 c 0,0,1
EndSplineSet
EndChar

StartChar: e3.fina
Encoding: 9 -1 9
Width: 1311
VWidth: 4095
GlyphClass: 2
Flags: W
LayerCount: 2
Fore
SplineSet
-368 1759 m 0,0,1
 -368 1718.25 -368 1718.25 -404 1671 c 0,2,3
 -420 1655 -420 1655 -444 1648 c 1,4,5
 -467 1636 -467 1636 -492 1636 c 0,6,7
 -540.625 1636 -540.625 1636 -580 1671 c 1,8,9
 -596 1692 -596 1692 -604 1715 c 1,10,11
 -616 1736 -616 1736 -617 1759 c 0,12,13
 -617 1782 -617 1782 -604 1808 c 1,14,15
 -597 1831 -597 1831 -580 1849 c 1,16,17
 -559 1865 -559 1865 -541 1876 c 1,18,19
 -518 1883 -518 1883 -492 1884 c 0,20,21
 -443.666666667 1884 -443.666666667 1884 -404 1849 c 0,22,23
 -366 1811 -366 1811 -368 1759 c 0,0,1
1148 81 m 0,24,25
 1148 575.049382716 1148 575.049382716 656 571 c 1,26,-1
 164 571 l 1,27,-1
 164 409 l 2,28,29
 164 328 164 328 82 328 c 128,-1,30
 0 328 0 328 0 410 c 2,31,-1
 0 735 l 1,32,-1
 656 735 l 2,33,34
 1312 735 1312 735 1312 81 c 0,35,36
 1312 -243 1312 -243 1148 -409 c 0,37,38
 984 -573 984 -573 656 -571 c 0,39,40
 573 -571 573 -571 571 -492 c 0,41,42
 571 -409 571 -409 656 -409 c 0,43,44
 1150 -409 1150 -409 1148 81 c 0,24,25
EndSplineSet
EndChar

StartChar: e2.fina
Encoding: 10 -1 10
Width: 1311
VWidth: 4095
GlyphClass: 2
Flags: W
LayerCount: 2
Fore
SplineSet
1148 81 m 0,0,1
 1148 575.049382716 1148 575.049382716 656 571 c 1,2,-1
 164 571 l 1,3,-1
 164 409 l 2,4,5
 164 328 164 328 82 328 c 128,-1,6
 0 328 0 328 0 410 c 2,7,-1
 0 735 l 1,8,-1
 656 735 l 2,9,10
 1312 735 1312 735 1312 81 c 0,11,12
 1312 -243 1312 -243 1148 -409 c 0,13,14
 984 -573 984 -573 656 -571 c 0,15,16
 573 -571 573 -571 571 -492 c 0,17,18
 571 -409 571 -409 656 -409 c 0,19,20
 1150 -409 1150 -409 1148 81 c 0,0,1
EndSplineSet
EndChar

StartChar: e.medi
Encoding: 11 -1 11
Width: 409
VWidth: 4095
GlyphClass: 2
Flags: W
LayerCount: 2
Fore
SplineSet
204 1269 m 0,0,1
 204 1220 204 1220 168 1184 c 1,2,3
 142.6124197 1150.67880086 142.6124197 1150.67880086 73.7862098501 1149.33940043 c 128,-1,4
 4.96 1148 4.96 1148 -32 1225 c 0,5,6
 -39 1246 -39 1246 -40 1269 c 0,7,8
 -40 1347.04 -40 1347.04 37 1384 c 1,9,10
 111.12145749 1406.55870445 111.12145749 1406.55870445 168 1356 c 0,11,12
 201.681818182 1322.31818182 201.681818182 1322.31818182 204 1269 c 0,0,1
0 409 m 2,13,-1
 0 735 l 1,14,-1
 409 735 l 1,15,-1
 489 656 l 1,16,-1
 409 571 l 1,17,-1
 164 571 l 1,18,-1
 164 409 l 2,19,20
 164 328 164 328 82 328 c 128,-1,21
 0 328 0 328 0 409 c 2,13,-1
EndSplineSet
Substitution2: "Single Substitution lookup 26 subtable" glyph278
Substitution2: "Single Substitution lookup 6 subtable" e1.medi
EndChar

StartChar: e1.medi
Encoding: 12 -1 12
Width: 409
VWidth: 4095
GlyphClass: 2
Flags: W
LayerCount: 2
Fore
SplineSet
0 735 m 1,0,-1
 409 735 l 1,1,2
 489 657 489 657 489 656 c 0,3,4
 449 614 449 614 409 571 c 1,5,-1
 164 571 l 1,6,-1
 164 409 l 2,7,8
 164 328 164 328 82 328 c 128,-1,9
 0 328 0 328 0 410 c 2,10,-1
 0 735 l 1,0,-1
EndSplineSet
Substitution2: "Single Substitution lookup 26 subtable" glyph277
EndChar

StartChar: i.isol
Encoding: 13 6259 13
Width: 1803
VWidth: 4095
GlyphClass: 2
Flags: W
LayerCount: 2
Fore
SplineSet
0 1392 m 0,0,1
 656 1392 656 1392 656 735 c 1,2,-1
 899 735 l 1,3,4
 899 899 899 899 1024 1024 c 0,5,6
 1148 1149 1148 1149 1312 1148 c 0,7,8
 1557 1148 1557 1148 1680 1024 c 0,9,10
 1805 899 1805 899 1805 656 c 0,11,12
 1805 573 1805 573 1720 571 c 0,13,14
 1639 571 1639 571 1641 656 c 0,15,16
 1641 820 1641 820 1556 899 c 1,17,18
 1474 982 1474 982 1312 984 c 0,19,20
 1229 984 1229 984 1148 899 c 1,21,22
 1065 818 1065 818 1063 656 c 2,23,-1
 1063 0 l 2,24,25
 1063 -81 1063 -81 982 -81 c 128,-1,26
 901 -81 901 -81 899 0 c 2,27,-1
 899 571 l 1,28,-1
 656 571 l 1,29,-1
 656 409 l 2,30,31
 656 328 656 328 573 328 c 128,-1,32
 490 328 490 328 491 410 c 2,33,-1
 492 492 l 1,34,-1
 492 737.5 l 2,35,36
 492 1230.02469136 492 1230.02469136 0 1228 c 0,37,38
 -81 1228 -81 1228 -81 1310 c 128,-1,39
 -81 1392 -81 1392 0 1392 c 0,0,1
EndSplineSet
Substitution2: "Required Feature in Latin lookup 0 subtable" i.init
Substitution2: "'medi' Medial Forms in Mongolian lookup 1 subtable" i.medi
Substitution2: "'fina' Terminal Forms in Mongolian lookup 2 subtable" i.fina
Substitution2: "Single Substitution lookup 6 subtable" i1.isol
EndChar

StartChar: i1.isol
Encoding: 14 -1 14
Width: 899
VWidth: 4095
GlyphClass: 2
Flags: W
LayerCount: 2
Fore
SplineSet
735 656 m 0,0,1
 735 980.024390244 735 980.024390244 409 984 c 0,2,3
 328 984 328 984 246 901 c 128,-1,4
 164 818 164 818 164 656 c 2,5,-1
 164 0 l 2,6,7
 164 -81 164 -81 82 -81 c 128,-1,8
 0 -81 0 -81 0 0 c 2,9,-1
 0 735 l 2,10,11
 0 899 0 899 125 1024 c 0,12,13
 245 1149 245 1149 409 1148 c 0,14,15
 899 1148 899 1148 899 656 c 0,16,17
 899 573 899 573 820 571 c 0,18,19
 737 571 737 571 735 656 c 0,0,1
EndSplineSet
EndChar

StartChar: i.init
Encoding: 15 -1 15
Width: 1311
VWidth: 4095
GlyphClass: 2
Flags: W
LayerCount: 2
Fore
SplineSet
0 1392 m 0,0,1
 656 1392 656 1392 656 735 c 1,2,-1
 1312 735 l 1,3,-1
 1391 656 l 1,4,-1
 1312 571 l 1,5,-1
 1063 571 l 1,6,-1
 1063 0 l 2,7,8
 1063 -81 1063 -81 981 -81 c 128,-1,9
 899 -81 899 -81 899 0 c 2,10,-1
 899 571 l 1,11,-1
 656 571 l 1,12,-1
 656 409 l 2,13,14
 656 328 656 328 573.5 328 c 128,-1,15
 491 328 491 328 492 410 c 128,-1,16
 493 492 493 492 492 492 c 1,17,-1
 492 736 l 2,18,19
 492 980 492 980 367.5 1104.5 c 128,-1,20
 243 1229 243 1229 0 1228 c 0,21,22
 -81 1228 -81 1228 -81 1310 c 128,-1,23
 -81 1392 -81 1392 0 1392 c 0,0,1
EndSplineSet
EndChar

StartChar: gly.ng.medi
Encoding: 16 -1 16
Width: 1146
VWidth: 4095
GlyphClass: 2
Flags: W
LayerCount: 2
Fore
SplineSet
820 1148 m 0,0,1
 1312 1148 1312 1148 1312 656 c 0,2,3
 1312 573 1312 573 1228 571 c 0,4,5
 1147 571 1147 571 1148 656 c 0,6,7
 1148 820 1148 820 1063 899 c 1,8,9
 982 982 982 982 820 984 c 0,10,11
 737 984 737 984 656 899 c 1,12,13
 573 818 573 818 571 656 c 2,14,-1
 571 0 l 2,15,16
 571 -81 571 -81 490 -81 c 128,-1,17
 409 -81 409 -81 409 0 c 2,18,-1
 409 571 l 1,19,-1
 164 571 l 1,20,-1
 164 409 l 2,21,22
 164 328 164 328 82 328 c 128,-1,23
 0 328 0 328 0 410 c 2,24,-1
 0 735 l 1,25,-1
 409 735 l 1,26,27
 409 899 409 899 532 1024 c 0,28,29
 657 1149 657 1149 820 1148 c 0,0,1
EndSplineSet
EndChar

StartChar: i.fina
Encoding: 17 -1 17
Width: 899
VWidth: 4095
GlyphClass: 2
Flags: W
LayerCount: 2
Fore
SplineSet
735 656 m 0,0,1
 735 980.024390244 735 980.024390244 409 984 c 0,2,3
 328 984 328 984 246 901 c 128,-1,4
 164 818 164 818 164 656 c 2,5,-1
 164 0 l 2,6,7
 164 -81 164 -81 82 -81 c 128,-1,8
 0 -81 0 -81 0 0 c 2,9,-1
 0 735 l 2,10,11
 0 899 0 899 125 1024 c 0,12,13
 245 1149 245 1149 409 1148 c 0,14,15
 899 1148 899 1148 899 656 c 0,16,17
 899 573 899 573 820 571 c 0,18,19
 737 571 737 571 735 656 c 0,0,1
EndSplineSet
Substitution2: "Single Substitution lookup 7 subtable" i2.fina
Substitution2: "Single Substitution lookup 6 subtable" i1.fina
EndChar

StartChar: i2.fina
Encoding: 18 -1 18
Width: 818
VWidth: 4095
GlyphClass: 2
Flags: W
LayerCount: 2
Fore
SplineSet
656 81 m 0,0,1
 656 575.049382716 656 575.049382716 164 571 c 0,2,3
 160 571 160 571 162 547.5 c 128,-1,4
 164 524 164 524 164 -81 c 0,5,6
 164 -164 164 -164 82 -164 c 128,-1,7
 0 -164 0 -164 0 -81 c 2,8,-1
 0 456 l 1,9,10
 4 571 4 571 2 571 c 128,-1,11
 0 571 0 571 0 735 c 1,12,-1
 164 735 l 2,13,14
 820 735 820 735 820 81 c 0,15,16
 820 0 820 0 737 0 c 128,-1,17
 654 0 654 0 656 81 c 0,0,1
EndSplineSet
EndChar

StartChar: i1.fina
Encoding: 19 -1 19
Width: 654
VWidth: 4095
GlyphClass: 2
Flags: W
LayerCount: 2
Fore
SplineSet
492 81 m 0,0,1
 492 575.049382716 492 575.049382716 0 571 c 1,2,-1
 0 735 l 1,3,4
 656 735 656 735 656 81 c 0,5,6
 656 0 656 0 573 0 c 128,-1,7
 490 0 490 0 492 81 c 0,0,1
EndSplineSet
EndChar

StartChar: iy.isol
Encoding: 20 6239 20
Width: 1230
VWidth: 4095
GlyphClass: 2
Flags: W
LayerCount: 2
Fore
SplineSet
1228 1228 m 0,0,1
 1228 571 1228 571 571 571 c 2,2,-1
 0 571 l 1,3,-1
 0 735 l 1,4,-1
 0 900 l 2,5,6
 0 982 0 982 81 984 c 0,7,8
 164 984 164 984 164 899 c 2,9,-1
 164 735 l 1,10,-1
 328 735 l 1,11,-1
 328 900 l 2,12,13
 328 982 328 982 409 984 c 0,14,15
 492 984 492 984 492 899 c 2,16,-1
 492 735 l 1,17,-1
 571 735 l 2,18,19
 1063 735 1063 735 1063 1229.49190283 c 128,-1,20
 1063 1723.98380567 1063 1723.98380567 571 1720 c 0,21,22
 490 1720 490 1720 491 1803 c 128,-1,23
 492 1886 492 1886 571 1884 c 0,24,25
 1226 1884 1226 1884 1228 1228 c 0,0,1
EndSplineSet
Substitution2: "'fina' Terminal Forms in Mongolian lookup 2 subtable" iy.fina
Substitution2: "'medi' Medial Forms in Mongolian lookup 1 subtable" iy.medi
Substitution2: "Required Feature in Latin lookup 0 subtable" iy.init
EndChar

StartChar: i.medi
Encoding: 21 -1 21
Width: 409
VWidth: 4095
GlyphClass: 2
Flags: W
LayerCount: 2
Fore
SplineSet
0 735 m 1,0,-1
 409 735 l 1,1,2
 449 696 449 696 489 656 c 1,3,-1
 409 571 l 1,4,-1
 164 571 l 1,5,-1
 164 0 l 2,6,7
 164 -81 164 -81 82 -81 c 128,-1,8
 0 -81 0 -81 0 0 c 2,9,-1
 0 735 l 1,0,-1
EndSplineSet
Substitution2: "Single Substitution lookup 29 subtable" glyph279
Substitution2: "Single Substitution lookup 26 subtable" glyph279
Substitution2: "Single Substitution lookup 6 subtable" i1.medi
EndChar

StartChar: is1.medi
Encoding: 22 -1 22
Width: 820
VWidth: 4095
GlyphClass: 2
Flags: W
LayerCount: 2
Fore
SplineSet
412 0 m 0,0,1
 413.883817427 380.531120332 413.883817427 380.531120332 409 571 c 1,2,-1
 164 571 l 1,3,-1
 164 409 l 2,4,5
 164 328 164 328 82 328 c 128,-1,6
 0 328 0 328 0 410 c 2,7,-1
 0 735 l 1,8,-1
 820 735 l 1,9,-1
 900 656 l 1,10,-1
 820 571 l 1,11,-1
 571 571 l 1,12,13
 574 571 574 571 576 358.5 c 128,-1,14
 578 146 578 146 576 0 c 0,15,16
 575 -81 575 -81 493.5 -81 c 128,-1,17
 412 -81 412 -81 412 0 c 0,0,1
EndSplineSet
Substitution2: "Single Substitution lookup 31 subtable" glyph339
EndChar

StartChar: i1.medi
Encoding: 23 -1 23
Width: 816
VWidth: 4095
GlyphClass: 2
Flags: W
LayerCount: 2
Fore
SplineSet
0 0 m 2,0,-1
 -4 735 l 1,1,-1
 816 735 l 1,2,-1
 896 656 l 1,3,-1
 816 571 l 1,4,-1
 568 571 l 1,5,-1
 569.5 325.5 l 2,6,7
 571 80 571 80 571 0 c 0,8,9
 571 -81 571 -81 490 -81 c 128,-1,10
 409 -81 409 -81 409 0 c 2,11,-1
 409 289 l 1,12,13
 405 493 405 493 404 571 c 1,14,-1
 160 571 l 1,15,-1
 162 325.5 l 2,16,17
 164 80 164 80 164 0 c 0,18,19
 164 -81 164 -81 82 -81 c 128,-1,20
 0 -81 0 -81 0 0 c 2,0,-1
EndSplineSet
EndChar

StartChar: iy.init
Encoding: 24 -1 24
Width: 735
VWidth: 4095
GlyphClass: 2
Flags: W
LayerCount: 2
Fore
SplineSet
0 409 m 2,0,-1
 0 900 l 2,1,2
 0 982 0 982 81 984 c 0,3,4
 164 984 164 984 164 899 c 2,5,-1
 164 735 l 1,6,-1
 328 735 l 1,7,-1
 328 900 l 2,8,9
 328 982 328 982 409 984 c 0,10,11
 492 984 492 984 492 899 c 2,12,-1
 492 735 l 1,13,-1
 735 735 l 1,14,-1
 815 656 l 1,15,-1
 735 571 l 1,16,-1
 409 571 l 1,17,-1
 328 571 l 1,18,-1
 164 571 l 1,19,-1
 164 409 l 2,20,21
 164 328 164 328 82 328 c 128,-1,22
 0 328 0 328 0 409 c 2,0,-1
EndSplineSet
EndChar

StartChar: o.isol
Encoding: 25 6179 25
Width: 1967
VWidth: 4095
GlyphClass: 2
Flags: W
LayerCount: 2
Fore
SplineSet
1477 164 m 0,0,1
 1801 164 1801 164 1805 492 c 1,2,-1
 1805 571 l 1,3,-1
 1148 571 l 1,4,-1
 1148 492 l 2,5,6
 1148 328 1148 328 1228 245 c 0,7,8
 1311 164 1311 164 1477 164 c 0,0,1
0 1392 m 0,9,10
 656 1392 656 1392 656 735 c 1,11,-1
 1967 735 l 1,12,-1
 1967 489.5 l 2,13,14
 1967 0 1967 0 1475.5 0 c 128,-1,15
 984 0 984 0 984 492 c 2,16,-1
 984 571 l 1,17,-1
 656 571 l 1,18,-1
 656 409 l 2,19,20
 656 328 656 328 573 328 c 128,-1,21
 490 328 490 328 491 410 c 2,22,-1
 492 492 l 1,23,-1
 492 737.5 l 2,24,25
 492 1230.02469136 492 1230.02469136 0 1228 c 0,26,27
 -81 1228 -81 1228 -81 1310 c 128,-1,28
 -81 1392 -81 1392 0 1392 c 0,9,10
EndSplineSet
Substitution2: "'fina' Terminal Forms in Mongolian lookup 2 subtable" o.fina
Substitution2: "'medi' Medial Forms in Mongolian lookup 1 subtable" o.medi
Substitution2: "Required Feature in Latin lookup 0 subtable" o.init
EndChar

StartChar: o.init
Encoding: 26 -1 26
Width: 1805
VWidth: 4095
GlyphClass: 2
Flags: W
LayerCount: 2
Fore
SplineSet
1063 492 m 2,0,1
 1063 328 1063 328 1227.5 328 c 128,-1,2
 1392 328 1392 328 1392 492 c 2,3,-1
 1392 571 l 1,4,-1
 1063 571 l 1,5,-1
 1063 492 l 2,0,1
1228 164 m 0,6,7
 903 164 903 164 899 492 c 1,8,-1
 899 571 l 1,9,-1
 656 571 l 1,10,-1
 656 409 l 2,11,12
 656 328 656 328 573 328 c 128,-1,13
 490 328 490 328 491 410 c 2,14,-1
 492 492 l 1,15,-1
 492 737.5 l 2,16,17
 492 1230.02469136 492 1230.02469136 0 1228 c 0,18,19
 -81 1228 -81 1228 -81 1310 c 128,-1,20
 -81 1392 -81 1392 0 1392 c 0,21,22
 656 1392 656 1392 656 735 c 1,23,-1
 1805 735 l 1,24,-1
 1885 656 l 1,25,-1
 1805 571 l 1,26,-1
 1556 571 l 1,27,-1
 1556 492 l 2,28,29
 1556 328 1556 328 1477 245 c 1,30,31
 1394 164 1394 164 1228 164 c 0,6,7
EndSplineSet
EndChar

StartChar: o.fina
Encoding: 27 -1 27
Width: 1306
VWidth: 4095
GlyphClass: 2
Flags: W
LayerCount: 2
Fore
SplineSet
164 492 m 2,0,1
 164 164 164 164 492 164 c 0,2,3
 573 164 573 164 656 245 c 0,4,5
 737 328 737 328 735 492 c 2,6,-1
 735 571 l 1,7,-1
 164 571 l 1,8,-1
 164 492 l 2,0,1
656 1392 m 128,-1,10
 1312 1392 1312 1392 1312 735 c 0,11,12
 1312 654 1312 654 1229.5 655 c 128,-1,13
 1147 656 1147 656 1148 735 c 0,14,15
 1148 983 1148 983 1020 1104 c 0,16,17
 893 1229 893 1229 656 1228 c 1,18,19
 408 1232 408 1232 289 1107 c 1,20,21
 164 982 164 982 164 735 c 1,22,-1
 899 735 l 1,23,-1
 899 489.5 l 2,24,25
 899 244 899 244 776.5 122 c 128,-1,26
 654 0 654 0 492 0 c 0,27,28
 244 0 244 0 125 125 c 1,29,30
 0 245 0 245 0 492 c 1,31,32
 4 492 4 492 2 583.5 c 128,-1,33
 0 675 0 675 0 735 c 0,34,9
 0 1392 0 1392 656 1392 c 128,-1,10
EndSplineSet
Substitution2: "Single Substitution lookup 6 subtable" o1.fina
Substitution2: "Single Substitution lookup 4 subtable" o1.fina
EndChar

StartChar: o1.fina
Encoding: 28 -1 28
Width: 654
VWidth: 4095
GlyphClass: 2
Flags: W
LayerCount: 2
Fore
SplineSet
492 492 m 2,0,-1
 492 571 l 1,1,-1
 164 571 l 1,2,-1
 164 490 l 2,3,4
 164 328 164 328 328.976190476 328 c 128,-1,5
 493.952380952 328 493.952380952 328 492 492 c 2,0,-1
656 492 m 2,6,7
 656 164 656 164 328 164 c 128,-1,8
 0 164 0 164 0 492 c 1,9,10
 4 492 4 492 2 581.5 c 128,-1,11
 0 671 0 671 0 735 c 1,12,-1
 656 735 l 1,13,-1
 656 492 l 2,6,7
EndSplineSet
Substitution2: "Single Substitution lookup 27 subtable" glyph281
EndChar

StartChar: o.medi
Encoding: 29 -1 29
Width: 899
VWidth: 4095
GlyphClass: 2
Flags: W
LayerCount: 2
Fore
SplineSet
492 492 m 2,0,-1
 492 571 l 1,1,-1
 164 571 l 1,2,-1
 164 490 l 2,3,4
 164 328 164 328 328.976190476 328 c 128,-1,5
 493.952380952 328 493.952380952 328 492 492 c 2,0,-1
656 492 m 2,6,7
 656 164 656 164 328 164 c 128,-1,8
 0 164 0 164 0 492 c 1,9,10
 4 492 4 492 2 581.5 c 128,-1,11
 0 671 0 671 0 735 c 1,12,-1
 899 735 l 1,13,-1
 979 656 l 1,14,-1
 899 571 l 1,15,-1
 656 571 l 1,16,-1
 656 492 l 2,6,7
EndSplineSet
Substitution2: "Single Substitution lookup 27 subtable" glyph280
EndChar

StartChar: u.isol
Encoding: 30 6240 30
Width: 1967
VWidth: 4095
GlyphClass: 2
Flags: W
LayerCount: 2
Fore
SplineSet
1597 1269 m 1,0,1
 1597 1212.19047619 1597 1212.19047619 1560 1184 c 1,2,3
 1534.47537473 1150.49892934 1534.47537473 1150.49892934 1477 1148 c 0,4,5
 1416.42857143 1148 1416.42857143 1148 1389 1184 c 1,6,7
 1352 1221 1352 1221 1352 1269 c 0,8,9
 1352 1344.34782609 1352 1344.34782609 1428 1384 c 1,10,11
 1451 1391 1451 1391 1477 1392 c 0,12,13
 1524 1392 1524 1392 1560 1356 c 1,14,15
 1591.5232816 1331.98226164 1591.5232816 1331.98226164 1597 1269 c 1,0,1
1477 164 m 0,16,17
 1801 164 1801 164 1805 492 c 1,18,-1
 1805 571 l 1,19,-1
 1148 571 l 1,20,-1
 1148 492 l 2,21,22
 1148 328 1148 328 1228 245 c 0,23,24
 1311 164 1311 164 1477 164 c 0,16,17
0 1392 m 0,25,26
 656 1392 656 1392 656 735 c 1,27,-1
 1967 735 l 1,28,-1
 1967 489.5 l 2,29,30
 1967 0 1967 0 1475.5 0 c 128,-1,31
 984 0 984 0 984 492 c 2,32,-1
 984 571 l 1,33,-1
 656 571 l 1,34,-1
 656 409 l 2,35,36
 656 328 656 328 573 328 c 128,-1,37
 490 328 490 328 491 410 c 2,38,-1
 492 492 l 1,39,-1
 492 737.5 l 2,40,41
 492 1230.02469136 492 1230.02469136 0 1228 c 0,42,43
 -81 1228 -81 1228 -81 1310 c 128,-1,44
 -81 1392 -81 1392 0 1392 c 0,25,26
EndSplineSet
Substitution2: "'fina' Terminal Forms in Mongolian lookup 2 subtable" u.fina
Substitution2: "'medi' Medial Forms in Mongolian lookup 1 subtable" u.medi
Substitution2: "Required Feature in Latin lookup 0 subtable" u.init
EndChar

StartChar: u.init
Encoding: 31 -1 31
Width: 1805
VWidth: 4095
GlyphClass: 2
Flags: W
LayerCount: 2
Fore
SplineSet
1352 1269 m 0,0,1
 1352 1221 1352 1221 1315 1184 c 1,2,3
 1289.44400786 1150.45776031 1289.44400786 1150.45776031 1228 1148 c 0,4,5
 1174.28571429 1148 1174.28571429 1148 1140 1184 c 0,6,7
 1124 1200 1124 1200 1116 1225 c 1,8,9
 1104 1246 1104 1246 1104 1269 c 128,-1,10
 1104 1292 1104 1292 1116 1315 c 1,11,12
 1123 1338 1123 1338 1140 1356 c 1,13,14
 1161 1372 1161 1372 1181 1384 c 1,15,16
 1204 1391 1204 1391 1228 1392 c 0,17,18
 1301.88 1392 1301.88 1392 1345 1315 c 1,19,20
 1352 1292 1352 1292 1352 1269 c 0,0,1
1063 492 m 2,21,22
 1063 328 1063 328 1227.5 328 c 128,-1,23
 1392 328 1392 328 1392 492 c 2,24,-1
 1392 571 l 1,25,-1
 1063 571 l 1,26,-1
 1063 492 l 2,21,22
1228 164 m 0,27,28
 903 164 903 164 899 492 c 1,29,-1
 899 571 l 1,30,-1
 656 571 l 1,31,-1
 656 409 l 2,32,33
 656 328 656 328 573 328 c 128,-1,34
 490 328 490 328 491 410 c 2,35,-1
 492 492 l 1,36,-1
 492 737.5 l 2,37,38
 492 1230.02469136 492 1230.02469136 0 1228 c 0,39,40
 -81 1228 -81 1228 -81 1310 c 128,-1,41
 -81 1392 -81 1392 0 1392 c 0,42,43
 656 1392 656 1392 656 735 c 1,44,-1
 1805 735 l 1,45,-1
 1885 656 l 1,46,-1
 1805 571 l 1,47,-1
 1556 571 l 1,48,-1
 1556 492 l 2,49,50
 1556 328 1556 328 1477 245 c 1,51,52
 1394 164 1394 164 1228 164 c 0,27,28
EndSplineSet
EndChar

StartChar: v.isol
Encoding: 32 6241 32
Width: 2212
VWidth: 4095
GlyphClass: 2
Flags: W
LayerCount: 2
Fore
SplineSet
1063 492 m 2,0,1
 1063 328 1063 328 1227.5 328 c 128,-1,2
 1392 328 1392 328 1392 492 c 2,3,-1
 1392 571 l 1,4,-1
 1063 571 l 1,5,-1
 1063 492 l 2,0,1
1228 164 m 0,6,7
 903 164 903 164 899 492 c 1,8,-1
 899 571 l 1,9,-1
 656 571 l 1,10,-1
 656 409 l 2,11,12
 656 328 656 328 573 328 c 128,-1,13
 490 328 490 328 491 410 c 2,14,-1
 492 492 l 1,15,-1
 492 737.5 l 2,16,17
 492 1230.02469136 492 1230.02469136 0 1228 c 0,18,19
 -81 1228 -81 1228 -81 1310 c 128,-1,20
 -81 1392 -81 1392 0 1392 c 0,21,22
 656 1392 656 1392 656 735 c 1,23,-1
 1556 735 l 2,24,25
 2212 735 2212 735 2212 81 c 0,26,27
 2212 0 2212 0 2129.5 0 c 128,-1,28
 2047 0 2047 0 2048 81 c 0,29,30
 2048 574.983805668 2048 574.983805668 1556 571 c 1,31,-1
 1556 492 l 2,32,33
 1556 328 1556 328 1477 245 c 1,34,35
 1394 164 1394 164 1228 164 c 0,6,7
EndSplineSet
Substitution2: "'fina' Terminal Forms in Mongolian lookup 2 subtable" v.fina
Substitution2: "'medi' Medial Forms in Mongolian lookup 1 subtable" v.medi
Substitution2: "Required Feature in Latin lookup 0 subtable" v.init
EndChar

StartChar: v.init
Encoding: 33 -1 33
Width: 1556
VWidth: 4095
GlyphClass: 2
Flags: W
LayerCount: 2
Fore
SplineSet
1063 492 m 2,0,1
 1063 328 1063 328 1227.5 328 c 128,-1,2
 1392 328 1392 328 1392 492 c 2,3,-1
 1392 571 l 1,4,-1
 1063 571 l 1,5,-1
 1063 492 l 2,0,1
1228 164 m 0,6,7
 903 164 903 164 899 492 c 1,8,-1
 899 571 l 1,9,-1
 656 571 l 1,10,-1
 656 409 l 2,11,12
 656 328 656 328 573 328 c 128,-1,13
 490 328 490 328 491 410 c 2,14,-1
 492 492 l 1,15,-1
 492 737.5 l 2,16,17
 492 1230.02469136 492 1230.02469136 0 1228 c 0,18,19
 -81 1228 -81 1228 -81 1310 c 128,-1,20
 -81 1392 -81 1392 0 1392 c 0,21,22
 656 1392 656 1392 656 735 c 1,23,-1
 1556 735 l 1,24,-1
 1636 656 l 1,25,-1
 1556 571 l 1,26,-1
 1556 0 l 2,27,28
 1556 -81 1556 -81 1475 -81 c 128,-1,29
 1394 -81 1394 -81 1392 0 c 2,30,-1
 1392 191.262089849 l 1,31,32
 1324.30418295 164 1324.30418295 164 1228 164 c 0,6,7
EndSplineSet
EndChar

StartChar: u.fina
Encoding: 34 -1 34
Width: 1306
VWidth: 4095
GlyphClass: 2
Flags: W
LayerCount: 2
Fore
SplineSet
779 1759 m 0,0,1
 779 1716.9375 779 1716.9375 744 1671 c 1,2,3
 698.0625 1636 698.0625 1636 656 1636 c 0,4,5
 633 1636 633 1636 608 1648 c 0,6,7
 585 1655 585 1655 568 1671 c 0,8,9
 536 1713 536 1713 532 1759 c 1,10,11
 532 1805.8 532 1805.8 568 1849 c 1,12,13
 600.791666667 1881.79166667 600.791666667 1881.79166667 656 1884 c 0,14,15
 679 1884 679 1884 705 1876 c 1,16,17
 726 1864 726 1864 744 1849 c 0,18,19
 760 1833 760 1833 768 1808 c 1,20,21
 780 1785 780 1785 779 1759 c 0,0,1
164 492 m 2,22,23
 164 164 164 164 492 164 c 0,24,25
 573 164 573 164 656 245 c 0,26,27
 737 328 737 328 735 492 c 2,28,-1
 735 571 l 1,29,-1
 164 571 l 1,30,-1
 164 492 l 2,22,23
656 1392 m 128,-1,32
 1312 1392 1312 1392 1312 735 c 0,33,34
 1312 654 1312 654 1229.5 655 c 128,-1,35
 1147 656 1147 656 1148 735 c 0,36,37
 1148 983 1148 983 1020 1104 c 0,38,39
 893 1229 893 1229 656 1228 c 1,40,41
 408 1232 408 1232 289 1107 c 1,42,43
 164 982 164 982 164 735 c 1,44,-1
 899 735 l 1,45,-1
 899 489.5 l 2,46,47
 899 244 899 244 776.5 122 c 128,-1,48
 654 0 654 0 492 0 c 0,49,50
 244 0 244 0 125 125 c 1,51,52
 0 245 0 245 0 492 c 1,53,54
 4 492 4 492 4 613.5 c 128,-1,55
 4 735 4 735 0 735 c 1,56,31
 0 1392 0 1392 656 1392 c 128,-1,32
EndSplineSet
Substitution2: "Single Substitution lookup 8 subtable" u3.fina
Substitution2: "Single Substitution lookup 7 subtable" u2.fina
Substitution2: "Single Substitution lookup 6 subtable" u1.fina
Substitution2: "Single Substitution lookup 4 subtable" u2.fina
EndChar

StartChar: u3.fina
Encoding: 35 -1 35
Width: 1306
VWidth: 4095
GlyphClass: 2
Flags: W
LayerCount: 2
Fore
SplineSet
164 492 m 2,0,1
 164 164 164 164 492 164 c 0,2,3
 573 164 573 164 656 245 c 0,4,5
 737 328 737 328 735 492 c 2,6,-1
 735 571 l 1,7,-1
 164 571 l 1,8,-1
 164 492 l 2,0,1
656 1392 m 128,-1,10
 1312 1392 1312 1392 1312 735 c 0,11,12
 1312 654 1312 654 1229.5 655 c 128,-1,13
 1147 656 1147 656 1148 735 c 0,14,15
 1148 983 1148 983 1020 1104 c 0,16,17
 893 1229 893 1229 656 1228 c 1,18,19
 408 1232 408 1232 289 1107 c 1,20,21
 164 982 164 982 164 735 c 1,22,-1
 899 735 l 1,23,-1
 899 489.5 l 2,24,25
 899 244 899 244 776.5 122 c 128,-1,26
 654 0 654 0 492 0 c 0,27,28
 244 0 244 0 125 125 c 1,29,30
 0 245 0 245 0 492 c 1,31,32
 4 492 4 492 2 583.5 c 128,-1,33
 0 675 0 675 0 735 c 0,34,9
 0 1392 0 1392 656 1392 c 128,-1,10
EndSplineSet
EndChar

StartChar: u2.fina
Encoding: 36 -1 36
Width: 654
VWidth: 4095
GlyphClass: 2
Flags: W
LayerCount: 2
Fore
SplineSet
328 1148 m 0,0,1
 242.72 1148 242.72 1148 215 1225 c 1,2,3
 203 1246 203 1246 204 1269 c 0,4,5
 204 1346 204 1346 280 1384 c 1,6,7
 303 1391 303 1391 328 1392 c 0,8,9
 377.75 1392 377.75 1392 416 1356 c 0,10,11
 432 1340 432 1340 439 1315 c 1,12,13
 451 1292 451 1292 453 1269 c 0,14,15
 453 1246 453 1246 439 1225 c 1,16,17
 418.453074434 1151.61812298 418.453074434 1151.61812298 328 1148 c 0,0,1
492 492 m 2,18,-1
 492 571 l 1,19,-1
 164 571 l 1,20,-1
 164 490 l 2,21,22
 164 328 164 328 328.976190476 328 c 128,-1,23
 493.952380952 328 493.952380952 328 492 492 c 2,18,-1
656 492 m 2,24,25
 656 164 656 164 328 164 c 128,-1,26
 0 164 0 164 0 492 c 1,27,28
 4 492 4 492 2 581.5 c 128,-1,29
 0 671 0 671 0 735 c 1,30,-1
 656 735 l 1,31,-1
 656 492 l 2,24,25
EndSplineSet
Substitution2: "Single Substitution lookup 27 subtable" glyph283
Substitution2: "Single Substitution lookup 6 subtable" u1.fina
EndChar

StartChar: u1.fina
Encoding: 37 -1 37
Width: 654
VWidth: 4095
GlyphClass: 2
Flags: W
LayerCount: 2
Fore
SplineSet
492 492 m 2,0,-1
 492 571 l 1,1,-1
 164 571 l 1,2,-1
 164 490 l 2,3,4
 164 328 164 328 328.976190476 328 c 128,-1,5
 493.952380952 328 493.952380952 328 492 492 c 2,0,-1
656 492 m 2,6,7
 656 164 656 164 328 164 c 128,-1,8
 0 164 0 164 0 492 c 1,9,10
 4 492 4 492 2 581.5 c 128,-1,11
 0 671 0 671 0 735 c 1,12,-1
 656 735 l 1,13,-1
 656 492 l 2,6,7
EndSplineSet
Substitution2: "Single Substitution lookup 27 subtable" glyph281
EndChar

StartChar: v.fina
Encoding: 38 -1 38
Width: 1311
VWidth: 4095
GlyphClass: 2
Flags: W
LayerCount: 2
Fore
SplineSet
492 492 m 2,0,-1
 492 571 l 1,1,-1
 164 571 l 1,2,-1
 164 490 l 2,3,4
 164 328 164 328 328.976190476 328 c 128,-1,5
 493.952380952 328 493.952380952 328 492 492 c 2,0,-1
328 164 m 128,-1,7
 0 164 0 164 0 492 c 2,8,-1
 0 735 l 1,9,-1
 656 735 l 2,10,11
 1312 735 1312 735 1312 81 c 0,12,13
 1312 0 1312 0 1229.5 0 c 128,-1,14
 1147 0 1147 0 1148 81 c 0,15,16
 1148 575.049382716 1148 575.049382716 656 571 c 1,17,-1
 656 492 l 2,18,6
 656 164 656 164 328 164 c 128,-1,7
EndSplineSet
Substitution2: "Single Substitution lookup 27 subtable" glyph285
EndChar

StartChar: u.medi
Encoding: 39 -1 39
Width: 899
VWidth: 4095
GlyphClass: 2
Flags: W
LayerCount: 2
Fore
SplineSet
328 1148 m 0,0,1
 242.72 1148 242.72 1148 215 1225 c 1,2,3
 203 1246 203 1246 204 1269 c 0,4,5
 204 1346 204 1346 280 1384 c 1,6,7
 303 1391 303 1391 328 1392 c 0,8,9
 377.75 1392 377.75 1392 416 1356 c 0,10,11
 432 1340 432 1340 439 1315 c 1,12,13
 451 1292 451 1292 453 1269 c 0,14,15
 453 1246 453 1246 439 1225 c 1,16,17
 418.453074434 1151.61812298 418.453074434 1151.61812298 328 1148 c 0,0,1
492 492 m 2,18,-1
 492 571 l 1,19,-1
 164 571 l 1,20,-1
 164 490 l 2,21,22
 164 328 164 328 328.976190476 328 c 128,-1,23
 493.952380952 328 493.952380952 328 492 492 c 2,18,-1
656 492 m 2,24,25
 656 164 656 164 328 164 c 128,-1,26
 0 164 0 164 0 492 c 1,27,28
 4 492 4 492 2 581.5 c 128,-1,29
 0 671 0 671 0 735 c 1,30,-1
 899 735 l 1,31,-1
 979 656 l 1,32,-1
 899 571 l 1,33,-1
 656 571 l 1,34,-1
 656 492 l 2,24,25
EndSplineSet
Substitution2: "Single Substitution lookup 27 subtable" glyph282
Substitution2: "Single Substitution lookup 6 subtable" u1.medi
EndChar

StartChar: u1.medi
Encoding: 40 -1 40
Width: 899
VWidth: 4095
GlyphClass: 2
Flags: W
LayerCount: 2
Fore
SplineSet
492 492 m 2,0,-1
 492 571 l 1,1,-1
 164 571 l 1,2,-1
 164 490 l 2,3,4
 164 328 164 328 328.976190476 328 c 128,-1,5
 493.952380952 328 493.952380952 328 492 492 c 2,0,-1
656 492 m 2,6,7
 656 164 656 164 328 164 c 128,-1,8
 0 164 0 164 0 492 c 1,9,10
 4 492 4 492 2 581.5 c 128,-1,11
 0 671 0 671 0 735 c 1,12,-1
 899 735 l 1,13,-1
 979 656 l 1,14,-1
 899 571 l 1,15,-1
 656 571 l 1,16,-1
 656 492 l 2,6,7
EndSplineSet
Substitution2: "Single Substitution lookup 27 subtable" glyph280
EndChar

StartChar: v.medi
Encoding: 41 -1 41
Width: 899
VWidth: 4095
GlyphClass: 2
Flags: W
LayerCount: 2
Fore
SplineSet
328 164 m 0,0,1
 0 164 0 164 0 492 c 2,2,-1
 0 735 l 1,3,-1
 899 735 l 1,4,-1
 979 656 l 1,5,-1
 899 571 l 1,6,-1
 656 571 l 1,7,-1
 656 0 l 2,8,9
 656 -81 656 -81 573 -81 c 128,-1,10
 490 -81 490 -81 492 0 c 2,11,-1
 492 192.337120144 l 1,12,13
 423.818719083 164 423.818719083 164 328 164 c 0,0,1
492 484.417222395 m 2,14,-1
 492 492 l 1,15,-1
 492 571 l 1,16,-1
 164 571 l 1,17,-1
 164 490 l 2,18,19
 164 328 164 328 328.976190476 328 c 0,20,21
 490.093288778 328 490.093288778 328 492 484.417222395 c 2,14,-1
EndSplineSet
Substitution2: "Single Substitution lookup 27 subtable" glyph284
EndChar

StartChar: b.isol
Encoding: 42 6186 42
Width: 1146
VWidth: 4095
GlyphClass: 2
Flags: W
LayerCount: 2
Fore
SplineSet
164 492 m 2,0,1
 164 164 164 164 492 164 c 0,2,3
 573 164 573 164 656 245 c 0,4,5
 737 328 737 328 735 492 c 2,6,-1
 735 571 l 1,7,-1
 164 571 l 1,8,-1
 164 492 l 2,0,1
656 1392 m 128,-1,10
 1312 1392 1312 1392 1312 735 c 2,11,-1
 1312 654 l 2,12,13
 1312 573 1312 573 1228 571 c 0,14,15
 1147 571 1147 571 1148 656 c 2,16,-1
 1148 735 l 2,17,18
 1148 983 1148 983 1020 1104 c 0,19,20
 893 1229 893 1229 656 1228 c 1,21,22
 408 1232 408 1232 289 1107 c 1,23,24
 164 982 164 982 164 735 c 1,25,-1
 899 735 l 1,26,-1
 899 489.5 l 2,27,28
 899 244 899 244 776.5 122 c 128,-1,29
 654 0 654 0 492 0 c 0,30,31
 244 0 244 0 125 125 c 1,32,33
 0 245 0 245 0 492 c 1,34,35
 4 492 4 492 4 613.5 c 128,-1,36
 4 735 4 735 0 735 c 1,37,9
 0 1392 0 1392 656 1392 c 128,-1,10
EndSplineSet
Substitution2: "Single Substitution lookup 25 subtable" glyph286
Substitution2: "'fina' Terminal Forms in Mongolian lookup 2 subtable" b.fina
Substitution2: "'medi' Medial Forms in Mongolian lookup 1 subtable" b.medi
Substitution2: "Required Feature in Latin lookup 0 subtable" b.init
EndChar

StartChar: b.fina
Encoding: 43 -1 43
Width: 1311
VWidth: 4095
GlyphClass: 2
Flags: W
LayerCount: 2
Fore
SplineSet
1188 -409 m 0,0,1
 1063 -573 1063 -573 735 -571 c 0,2,3
 654 -571 654 -571 655 -490 c 128,-1,4
 656 -409 656 -409 735 -409 c 0,5,6
 983 -409 983 -409 1064.5 -286.5 c 128,-1,7
 1146 -164 1146 -164 1148 81 c 2,8,-1
 1148 651.904223676 l 2,9,10
 1147.97560976 653.926829268 1147.97560976 653.926829268 1148 656 c 2,11,-1
 1148 735 l 2,12,13
 1148 983 1148 983 1020 1104 c 0,14,15
 893 1229 893 1229 656 1228 c 1,16,17
 408 1232 408 1232 289 1107 c 1,18,19
 164 982 164 982 164 735 c 1,20,-1
 899 735 l 1,21,-1
 899 489.5 l 2,22,23
 899 244 899 244 776.5 122 c 128,-1,24
 654 0 654 0 492 0 c 0,25,26
 244 0 244 0 125 125 c 1,27,28
 0 245 0 245 0 492 c 1,29,30
 4 492 4 492 4 613.5 c 128,-1,31
 4 735 4 735 0 735 c 1,32,33
 0 1392 0 1392 656 1392 c 128,-1,34
 1312 1392 1312 1392 1312 735 c 2,35,-1
 1312 654 l 2,36,37
 1312 645.945287687 1312 645.945287687 1311.16936651 638.671766191 c 0,38,39
 1312.00000023 554.83517394 1312.00000023 554.83517394 1312 368 c 2,40,-1
 1312 62.5 l 2,41,42
 1312 -243 1312 -243 1188 -409 c 0,0,1
164 492 m 2,43,44
 164 164 164 164 492 164 c 0,45,46
 573 164 573 164 656 245 c 0,47,48
 737 328 737 328 735 492 c 2,49,-1
 735 571 l 1,50,-1
 164 571 l 1,51,-1
 164 492 l 2,43,44
EndSplineSet
EndChar

StartChar: b.medi
Encoding: 44 -1 44
Width: 1146
VWidth: 4095
GlyphClass: 2
Flags: W
LayerCount: 2
Fore
SplineSet
164 492 m 2,0,1
 164 164 164 164 492 164 c 0,2,3
 573 164 573 164 656 245 c 0,4,5
 737 328 737 328 735 492 c 2,6,-1
 735 571 l 1,7,-1
 164 571 l 1,8,-1
 164 492 l 2,0,1
656 1392 m 128,-1,10
 1312 1392 1312 1392 1312 735 c 2,11,-1
 1312 654 l 2,12,13
 1312 573 1312 573 1228 571 c 0,14,15
 1147 571 1147 571 1148 656 c 2,16,-1
 1148 735 l 2,17,18
 1148 983 1148 983 1020 1104 c 0,19,20
 893 1229 893 1229 656 1228 c 1,21,22
 408 1232 408 1232 289 1107 c 1,23,24
 164 982 164 982 164 735 c 1,25,-1
 899 735 l 1,26,-1
 899 489.5 l 2,27,28
 899 244 899 244 776.5 122 c 128,-1,29
 654 0 654 0 492 0 c 0,30,31
 244 0 244 0 125 125 c 1,32,33
 0 245 0 245 0 492 c 1,34,35
 4 492 4 492 4 613.5 c 128,-1,36
 4 735 4 735 0 735 c 1,37,9
 0 1392 0 1392 656 1392 c 128,-1,10
EndSplineSet
Substitution2: "Single Substitution lookup 28 subtable" glyph337
Substitution2: "Single Substitution lookup 25 subtable" glyph287
EndChar

StartChar: p.isol
Encoding: 45 6246 45
Width: 1146
VWidth: 4095
GlyphClass: 2
Flags: W
LayerCount: 2
Fore
SplineSet
164 492 m 2,0,1
 164 164 164 164 492 164 c 0,2,3
 573 164 573 164 656 245 c 0,4,5
 737 328 737 328 735 492 c 2,6,-1
 735 571 l 1,7,-1
 164 571 l 1,8,-1
 164 492 l 2,0,1
656 1392 m 128,-1,10
 1312 1392 1312 1392 1312 735 c 2,11,-1
 1312 654 l 2,12,13
 1312 573 1312 573 1228 571 c 0,14,15
 1147 571 1147 571 1148 656 c 2,16,-1
 1148 735 l 2,17,18
 1148 983 1148 983 1020 1104 c 0,19,20
 915.05555366 1207.29177789 915.05555366 1207.29177789 735 1224.5471965 c 1,21,-1
 735 1063 l 2,22,23
 735 982 735 982 654 983 c 128,-1,24
 573 984 573 984 572 1066 c 0,25,26
 571.284660701 1124.65782252 571.284660701 1124.65782252 571.081031715 1225.27589067 c 1,27,28
 386.628020007 1209.55044118 386.628020007 1209.55044118 289 1107 c 0,29,30
 164 982 164 982 164 735 c 1,31,-1
 899 735 l 1,32,-1
 899 489.5 l 2,33,34
 899 244 899 244 776.5 122 c 128,-1,35
 654 0 654 0 492 0 c 0,36,37
 244 0 244 0 125 125 c 1,38,39
 0 245 0 245 0 492 c 1,40,41
 4 492 4 492 4 613.5 c 128,-1,42
 4 735 4 735 0 735 c 1,43,9
 0 1392 0 1392 656 1392 c 128,-1,10
EndSplineSet
Substitution2: "Single Substitution lookup 25 subtable" glyph288
Substitution2: "'fina' Terminal Forms in Mongolian lookup 2 subtable" p.fina
Substitution2: "'medi' Medial Forms in Mongolian lookup 1 subtable" p.medi
Substitution2: "Required Feature in Latin lookup 0 subtable" p.init
EndChar

StartChar: p.medi
Encoding: 46 -1 46
Width: 1146
VWidth: 4095
GlyphClass: 2
Flags: W
LayerCount: 2
Fore
SplineSet
164 492 m 2,0,1
 164 164 164 164 492 164 c 0,2,3
 573 164 573 164 656 245 c 0,4,5
 737 328 737 328 735 492 c 2,6,-1
 735 571 l 1,7,-1
 164 571 l 1,8,-1
 164 492 l 2,0,1
656 1392 m 128,-1,10
 1312 1392 1312 1392 1312 735 c 2,11,-1
 1312 654 l 2,12,13
 1312 573 1312 573 1228 571 c 0,14,15
 1147 571 1147 571 1148 656 c 2,16,-1
 1148 735 l 2,17,18
 1148 983 1148 983 1020 1104 c 0,19,20
 915.05555366 1207.29177789 915.05555366 1207.29177789 735 1224.5471965 c 1,21,-1
 735 1063 l 2,22,23
 735 982 735 982 654 983 c 128,-1,24
 573 984 573 984 572 1066 c 0,25,26
 571.284660701 1124.65782252 571.284660701 1124.65782252 571.081031715 1225.27589067 c 1,27,28
 386.628020007 1209.55044118 386.628020007 1209.55044118 289 1107 c 0,29,30
 164 982 164 982 164 735 c 1,31,-1
 899 735 l 1,32,-1
 899 489.5 l 2,33,34
 899 244 899 244 776.5 122 c 128,-1,35
 654 0 654 0 492 0 c 0,36,37
 244 0 244 0 125 125 c 1,38,39
 0 245 0 245 0 492 c 1,40,41
 4 492 4 492 4 613.5 c 128,-1,42
 4 735 4 735 0 735 c 1,43,9
 0 1392 0 1392 656 1392 c 128,-1,10
EndSplineSet
Substitution2: "Single Substitution lookup 25 subtable" glyph289
EndChar

StartChar: m.isol
Encoding: 47 6190 47
Width: 899
VWidth: 4095
GlyphClass: 2
Flags: W
LayerCount: 2
Fore
SplineSet
820 1720 m 0,0,1
 656 1720 656 1720 656 1556 c 2,2,-1
 656 735 l 1,3,-1
 898 735 l 1,4,-1
 899 735 l 1,5,-1
 899 734.0125 l 1,6,-1
 978 656 l 1,7,-1
 899 572.0625 l 1,8,-1
 899 571 l 1,9,-1
 898 571 l 1,10,-1
 656 571 l 1,11,-1
 656 409 l 2,12,13
 656 328 656 328 573 328 c 128,-1,14
 490 328 490 328 491 410 c 2,15,-1
 492 492 l 1,16,-1
 492 632.87281911 l 2,17,18
 490.87670203 641.574513377 490.87670203 641.574513377 491 651.5 c 0,19,20
 491.40283822 683.928476683 491.40283822 683.928476683 491.643397882 763.661174369 c 0,21,22
 478.75431363 1229.97018236 478.75431363 1229.97018236 0 1228 c 0,23,24
 -81 1228 -81 1228 -81 1310 c 128,-1,25
 -81 1392 -81 1392 0 1392 c 0,26,27
 328 1392 328 1392 492 1227.75 c 1,28,-1
 492 1556 l 2,29,30
 492 1720 492 1720 571 1805 c 1,31,32
 654 1886 654 1886 820 1884 c 0,33,34
 901 1884 901 1884 901 1802 c 128,-1,35
 901 1720 901 1720 820 1720 c 0,0,1
EndSplineSet
Substitution2: "'fina' Terminal Forms in Mongolian lookup 2 subtable" m.fina
Substitution2: "'medi' Medial Forms in Mongolian lookup 1 subtable" m.medi
Substitution2: "Required Feature in Latin lookup 0 subtable" m.init
EndChar

StartChar: m.fina
Encoding: 48 -1 48
Width: 982
VWidth: 4095
GlyphClass: 2
Flags: W
LayerCount: 2
Fore
SplineSet
0 1063 m 2,0,1
 0 1226 0 1226 81 1312 c 1,2,3
 164 1393 164 1393 328 1392 c 0,4,5
 409 1392 409 1392 409 1310.5 c 128,-1,6
 409 1229 409 1229 328 1228 c 0,7,8
 245 1228 245 1228 204 1188 c 0,9,10
 164 1148 164 1148 164 1063 c 2,11,-1
 164 735 l 1,12,-1
 328 735 l 2,13,14
 573 735 573 735 696 860 c 0,15,16
 821 985 821 985 820.5 1230.5 c 128,-1,17
 820 1476 820 1476 695.5 1599 c 128,-1,18
 571 1722 571 1722 328 1720 c 0,19,20
 245 1720 245 1720 245 1803 c 128,-1,21
 245 1886 245 1886 328 1884 c 0,22,23
 984 1884 984 1884 984 1228 c 0,24,25
 984 571 984 571 328 571 c 2,26,-1
 81 571 l 1,27,-1
 0 571 l 1,28,-1
 0 656 l 1,29,-1
 0 735 l 1,30,-1
 0 1063 l 2,0,1
EndSplineSet
EndChar

StartChar: m.medi
Encoding: 49 -1 49
Width: 409
VWidth: 4095
GlyphClass: 2
Flags: W
LayerCount: 2
Fore
SplineSet
328 1720 m 0,0,1
 164 1720 164 1720 164 1556 c 2,2,-1
 164 735 l 1,3,-1
 409 735 l 1,4,-1
 489 656 l 1,5,-1
 409 571 l 1,6,-1
 164 571 l 1,7,-1
 164 409 l 2,8,9
 164 328 164 328 82 328 c 128,-1,10
 0 328 0 328 0 410 c 2,11,-1
 0 656 l 1,12,-1
 0 735 l 1,13,-1
 0 1556 l 2,14,15
 0 1888 0 1888 328 1884 c 0,16,17
 409 1884 409 1884 409 1803 c 128,-1,18
 409 1722 409 1722 328 1720 c 0,0,1
EndSplineSet
Substitution2: "Single Substitution lookup 26 subtable" glyph320
EndChar

StartChar: f.isol
Encoding: 50 6262 50
Width: 656
VWidth: 4095
GlyphClass: 2
Flags: W
LayerCount: 2
Fore
SplineSet
0 1392 m 2,0,-1
 81 1392 l 2,1,2
 245 1392 245 1392 327 1304 c 128,-1,3
 409 1216 409 1216 409 1063 c 2,4,-1
 409 735 l 1,5,-1
 656 735 l 1,6,-1
 736 656 l 1,7,-1
 656 571 l 1,8,-1
 409 571 l 1,9,-1
 409 -245 l 2,10,11
 409 -406.923076923 409 -406.923076923 571 -409 c 2,12,-1
 654 -409 l 2,13,14
 737 -409 737 -409 736 -491 c 128,-1,15
 735 -573 735 -573 654 -572 c 128,-1,16
 573 -571 573 -571 571 -571 c 0,17,18
 245 -571 245 -571 245 -245 c 2,19,-1
 245 654 l 1,20,-1
 245 735 l 1,21,-1
 245 1063 l 2,22,23
 245 1119 245 1119 204.5 1173.5 c 128,-1,24
 164 1228 164 1228 81 1228 c 2,25,-1
 0 1228 l 2,26,27
 -81 1228 -81 1228 -81 1310 c 128,-1,28
 -81 1392 -81 1392 0 1392 c 2,0,-1
EndSplineSet
Substitution2: "'fina' Terminal Forms in Mongolian lookup 2 subtable" f.fina
Substitution2: "'medi' Medial Forms in Mongolian lookup 1 subtable" f.medi
Substitution2: "Required Feature in Latin lookup 0 subtable" f.init
EndChar

StartChar: f1.init
Encoding: 51 -1 51
Width: 409
VWidth: 4095
GlyphClass: 2
Flags: W
LayerCount: 2
Fore
SplineSet
409 571 m 1,0,-1
 164 571 l 1,1,-1
 164 -245 l 2,2,3
 164 -407.515151515 164 -407.515151515 326.5 -408.5 c 2,4,-1
 409.25 -408.75 l 2,5,6
 492 -409 492 -409 492 -491 c 128,-1,7
 492 -573 492 -573 410 -572 c 2,8,-1
 328 -571 l 2,9,10
 164 -571 164 -571 81 -492 c 1,11,12
 0 -409 0 -409 0 -245 c 2,13,-1
 0 735 l 1,14,-1
 409 735 l 1,15,-1
 489 656 l 1,16,-1
 409 571 l 1,0,-1
EndSplineSet
EndChar

StartChar: glyph183
Encoding: 52 -1 52
Width: 409
VWidth: 4095
GlyphClass: 2
Flags: W
LayerCount: 2
Fore
SplineSet
0 1148 m 0,0,1
 -81 1148 -81 1148 -81 1230 c 128,-1,2
 -81 1312 -81 1312 0 1312 c 0,3,4
 164 1312 164 1312 245 1220 c 1,5,6
 328 1132 328 1132 328 984 c 2,7,-1
 328 735 l 1,8,-1
 409 735 l 1,9,-1
 489 656 l 1,10,-1
 409 571 l 1,11,-1
 164 571 l 1,12,-1
 164 -245 l 2,13,14
 164 -407.515151515 164 -407.515151515 326.5 -408.5 c 2,15,-1
 409.25 -408.75 l 2,16,17
 492 -409 492 -409 492 -491 c 128,-1,18
 492 -573 492 -573 410 -572 c 2,19,-1
 328 -571 l 2,20,21
 164 -571 164 -571 81 -492 c 1,22,23
 0 -409 0 -409 0 -245 c 2,24,-1
 0 735 l 1,25,-1
 164.01265285 735 l 1,26,27
 164 735.993827878 164 735.993827878 164 737 c 2,28,-1
 164 984 l 2,29,30
 164 1035 164 1035 125 1091 c 0,31,32
 81 1147 81 1147 0 1148 c 0,0,1
EndSplineSet
Substitution2: "Single Substitution lookup 26 subtable" glyph334
EndChar

StartChar: f.medi
Encoding: 53 -1 53
Width: 409
VWidth: 4095
GlyphClass: 2
Flags: W
LayerCount: 2
Fore
SplineSet
0 1148 m 0,0,1
 -81 1148 -81 1148 -81 1230 c 128,-1,2
 -81 1312 -81 1312 0 1312 c 0,3,4
 164 1312 164 1312 245 1220 c 1,5,6
 328 1132 328 1132 328 984 c 2,7,-1
 328 735 l 1,8,-1
 409 735 l 1,9,-1
 489 656 l 1,10,-1
 409 571 l 1,11,-1
 164 571 l 1,12,-1
 164 -245 l 2,13,14
 164 -407.515151515 164 -407.515151515 326.5 -408.5 c 2,15,-1
 409.25 -408.75 l 2,16,17
 492 -409 492 -409 492 -491 c 128,-1,18
 492 -573 492 -573 410 -572 c 2,19,-1
 328 -571 l 2,20,21
 164 -571 164 -571 81 -492 c 1,22,23
 0 -409 0 -409 0 -245 c 2,24,-1
 0 735 l 1,25,-1
 164.01265285 735 l 1,26,27
 164 735.993827878 164 735.993827878 164 737 c 2,28,-1
 164 984 l 2,29,30
 164 1035 164 1035 125 1091 c 0,31,32
 81 1147 81 1147 0 1148 c 0,0,1
EndSplineSet
Substitution2: "Single Substitution lookup 6 subtable" f1.medi
EndChar

StartChar: f1.medi
Encoding: 54 -1 54
Width: 409
VWidth: 4095
GlyphClass: 2
Flags: W
LayerCount: 2
Fore
SplineSet
409 571 m 1,0,-1
 164 571 l 1,1,-1
 164 -245 l 2,2,3
 164 -407.515151515 164 -407.515151515 326.5 -408.5 c 2,4,-1
 409.25 -408.75 l 2,5,6
 492 -409 492 -409 492 -491 c 128,-1,7
 492 -573 492 -573 410 -572 c 2,8,-1
 328 -571 l 2,9,10
 164 -571 164 -571 81 -492 c 1,11,12
 0 -409 0 -409 0 -245 c 2,13,-1
 0 735 l 1,14,-1
 409 735 l 1,15,-1
 489 656 l 1,16,-1
 409 571 l 1,0,-1
EndSplineSet
Substitution2: "Single Substitution lookup 26 subtable" glyph336
EndChar

StartChar: d.isol
Encoding: 55 6249 55
Width: 1228
VWidth: 4095
GlyphClass: 2
Flags: W
LayerCount: 2
Fore
SplineSet
1232 1184 m 1,0,1
 1206.50963597 1150.54389722 1206.50963597 1150.54389722 1148 1148 c 0,2,3
 1069.96 1148 1069.96 1148 1033 1225 c 0,4,5
 1026 1246 1026 1246 1024 1269 c 0,6,7
 1024 1314.375 1024 1314.375 1061 1356 c 0,8,9
 1094.875 1389.875 1094.875 1389.875 1148 1392 c 0,10,11
 1193.75 1392 1193.75 1392 1232 1356 c 0,12,13
 1253 1340 1253 1340 1260 1315 c 1,14,15
 1272 1292 1272 1292 1271 1269 c 0,16,17
 1271 1246 1271 1246 1260 1225 c 1,18,19
 1253 1200 1253 1200 1232 1184 c 1,0,1
164 820 m 2,20,-1
 164 735 l 1,21,-1
 820 735 l 1,22,-1
 820 820 l 2,23,24
 820 984 820 984 728 1065 c 128,-1,25
 636 1146 636 1146 482 1147 c 128,-1,26
 328 1148 328 1148 246 1066 c 128,-1,27
 164 984 164 984 164 820 c 2,20,-1
125 1188 m 1,28,29
 244 1312 244 1312 480 1312 c 128,-1,30
 716 1312 716 1312 850 1187.5 c 128,-1,31
 984 1063 984 1063 984 820 c 2,32,-1
 984 735 l 1,33,-1
 1228 735 l 1,34,-1
 1308 656 l 1,35,-1
 1228 571 l 1,36,-1
 984 571 l 1,37,-1
 984 409 l 2,38,39
 984 328 984 328 901 328 c 128,-1,40
 818 328 818 328 820 409 c 2,41,-1
 820 571 l 1,42,-1
 164 571 l 2,43,44
 81 571 81 571 40 617 c 0,45,46
 0 657 0 657 0 718 c 2,47,-1
 0 820 l 2,48,49
 0 1065 0 1065 125 1188 c 1,28,29
EndSplineSet
Substitution2: "Single Substitution t d-isol" d.init
Substitution2: "'fina' Terminal Forms in Mongolian lookup 2 subtable" d.fina
Substitution2: "'medi' Medial Forms in Mongolian lookup 1 subtable" d.medi
Substitution2: "Required Feature in Latin lookup 0 subtable" d.init
EndChar

StartChar: d1.init
Encoding: 56 -1 56
Width: 1312
VWidth: 4095
GlyphClass: 2
Flags: W
LayerCount: 2
Fore
SplineSet
1352 1269 m 0,0,1
 1352 1221 1352 1221 1315 1184 c 1,2,3
 1289.44400786 1150.45776031 1289.44400786 1150.45776031 1228 1148 c 0,4,5
 1174.28571429 1148 1174.28571429 1148 1140 1184 c 0,6,7
 1124 1200 1124 1200 1116 1225 c 1,8,9
 1104 1246 1104 1246 1104 1269 c 128,-1,10
 1104 1292 1104 1292 1116 1315 c 1,11,12
 1123 1338 1123 1338 1140 1356 c 1,13,14
 1161 1372 1161 1372 1181 1384 c 1,15,16
 1204 1391 1204 1391 1228 1392 c 0,17,18
 1301.88 1392 1301.88 1392 1345 1315 c 1,19,20
 1352 1292 1352 1292 1352 1269 c 0,0,1
409 820 m 2,21,-1
 409 735 l 1,22,-1
 899 735 l 1,23,-1
 899 820 l 2,24,25
 899 984 899 984 818 1065 c 128,-1,26
 737 1146 737 1146 656 1148 c 0,27,28
 492 1148 492 1148 453 1024 c 1,29,30
 409 901 409 901 409 820 c 2,21,-1
656 1312 m 0,31,32
 820 1312 820 1312 943 1188 c 0,33,34
 1063 1063 1063 1063 1063 820 c 2,35,-1
 1063 735 l 1,36,-1
 1312 735 l 1,37,-1
 1392 656 l 1,38,-1
 1312 571 l 1,39,-1
 1063 571 l 1,40,-1
 1063 409 l 2,41,42
 1063 328 1063 328 982 328 c 128,-1,43
 901 328 901 328 899 409 c 2,44,-1
 899 571 l 1,45,-1
 0 571 l 2,46,47
 -81 571 -81 571 -81 654 c 128,-1,48
 -81 737 -81 737 0 735 c 2,49,-1
 245 735 l 1,50,-1
 245 820 l 2,51,52
 245 984 245 984 326.5 1148 c 128,-1,53
 408 1312 408 1312 656 1312 c 0,31,32
EndSplineSet
EndChar

StartChar: d.medi
Encoding: 57 -1 57
Width: 492
VWidth: 4095
GlyphClass: 2
Flags: W
LayerCount: 2
Fore
SplineSet
204 1269 m 0,0,1
 204 1220 204 1220 168 1184 c 1,2,3
 142.6124197 1150.67880086 142.6124197 1150.67880086 73.78620985 1149.33940043 c 128,-1,4
 4.96 1148 4.96 1148 -32 1225 c 0,5,6
 -39 1246 -39 1246 -40 1269 c 0,7,8
 -40 1347.04 -40 1347.04 37 1384 c 1,9,10
 111.12145749 1406.55870445 111.12145749 1406.55870445 168 1356 c 0,11,12
 201.681818182 1322.31818182 201.681818182 1322.31818182 204 1269 c 0,0,1
409 -492 m 0,13,14
 409 -328 409 -328 245 -328 c 2,15,-1
 164 -328 l 1,16,-1
 164 -656 l 1,17,-1
 245 -656 l 2,18,19
 326 -656 326 -656 368 -617 c 1,20,21
 408 -573 408 -573 409 -492 c 0,13,14
164 -820 m 2,22,23
 0 -820 0 -820 0 -656 c 2,24,-1
 0 735 l 1,25,-1
 492 735 l 1,26,-1
 572 656 l 1,27,-1
 492 571 l 1,28,-1
 164 571 l 1,29,-1
 164 -164 l 1,30,-1
 245 -164 l 2,31,32
 575 -164 575 -164 571 -492 c 0,33,34
 571 -816.024390244 571 -816.024390244 245 -820 c 2,35,-1
 164 -820 l 2,22,23
EndSplineSet
Substitution2: "Single Substitution lookup 26 subtable" glyph329
Substitution2: "Single Substitution lookup 6 subtable" d1.medi
EndChar

StartChar: d1.medi
Encoding: 58 -1 58
Width: 492
VWidth: 4095
GlyphClass: 2
Flags: W
LayerCount: 2
Fore
SplineSet
204 1269 m 0,0,1
 204 1220 204 1220 168 1184 c 1,2,3
 142.6124197 1150.67880086 142.6124197 1150.67880086 73.78620985 1149.33940043 c 128,-1,4
 4.96 1148 4.96 1148 -32 1225 c 0,5,6
 -39 1246 -39 1246 -40 1269 c 0,7,8
 -40 1347.04 -40 1347.04 37 1384 c 1,9,10
 111.12145749 1406.55870445 111.12145749 1406.55870445 168 1356 c 0,11,12
 201.681818182 1322.31818182 201.681818182 1322.31818182 204 1269 c 0,0,1
409 -81 m 0,13,14
 409 79.0240963855 409 79.0240963855 245 81 c 2,15,-1
 164 81 l 1,16,-1
 164 -245 l 1,17,-1
 245 -245 l 2,18,19
 407.024096386 -245 407.024096386 -245 409 -81 c 0,13,14
245 245 m 2,20,21
 575.024691358 245 575.024691358 245 571 -81 c 0,22,23
 571 -245 571 -245 492 -328 c 1,24,25
 409 -409 409 -409 245 -409 c 2,26,-1
 164 -409 l 1,27,-1
 164 -656 l 2,28,29
 164 -737 164 -737 82 -736 c 128,-1,30
 0 -735 0 -735 0 -656 c 2,31,-1
 0 735 l 1,32,-1
 492 735 l 1,33,-1
 572 656 l 1,34,-1
 492 571 l 1,35,-1
 164 571 l 1,36,-1
 164 245 l 1,37,-1
 245 245 l 2,20,21
EndSplineSet
Substitution2: "Single Substitution lookup 26 subtable" glyph330
EndChar

StartChar: t.isol
Encoding: 59 6248 59
Width: 1227
VWidth: 4095
GlyphClass: 2
Flags: W
LayerCount: 2
Fore
SplineSet
164 820 m 2,0,-1
 164 735 l 1,1,-1
 820 735 l 1,2,-1
 820 820 l 2,3,4
 820 984 820 984 728 1065 c 128,-1,5
 636 1146 636 1146 482 1147 c 128,-1,6
 328 1148 328 1148 246 1066 c 128,-1,7
 164 984 164 984 164 820 c 2,0,-1
125 1188 m 1,8,9
 244 1312 244 1312 480 1312 c 128,-1,10
 716 1312 716 1312 850 1187.5 c 128,-1,11
 984 1063 984 1063 984 820 c 2,12,-1
 984 735 l 1,13,-1
 1227 735 l 1,14,-1
 1228 735 l 1,15,-1
 1228 734.0125 l 1,16,-1
 1307 656 l 1,17,-1
 1228 572.0625 l 1,18,-1
 1228 571 l 1,19,-1
 1227 571 l 1,20,-1
 984 571 l 1,21,-1
 984 409 l 2,22,23
 984 328 984 328 901 328 c 128,-1,24
 818 328 818 328 820 409 c 2,25,-1
 820 571 l 1,26,-1
 164 571 l 2,27,28
 81 571 81 571 40 617 c 0,29,30
 0 657 0 657 0 718 c 2,31,-1
 0 820 l 2,32,33
 0 1065 0 1065 125 1188 c 1,8,9
EndSplineSet
Substitution2: "Single Substitution t d-isol" t.init
Substitution2: "'fina' Terminal Forms in Mongolian lookup 2 subtable" t.fina
Substitution2: "'medi' Medial Forms in Mongolian lookup 1 subtable" t.medi
Substitution2: "Required Feature in Latin lookup 0 subtable" t.init
EndChar

StartChar: t1.init
Encoding: 60 -1 60
Width: 1312
VWidth: 4095
GlyphClass: 2
Flags: W
LayerCount: 2
Fore
SplineSet
409 820 m 2,0,-1
 409 735 l 1,1,-1
 899 735 l 1,2,-1
 899 820 l 2,3,4
 899 984 899 984 818 1065 c 128,-1,5
 737 1146 737 1146 656 1148 c 0,6,7
 492 1148 492 1148 453 1024 c 1,8,9
 409 901 409 901 409 820 c 2,0,-1
656 1312 m 0,10,11
 820 1312 820 1312 943 1188 c 0,12,13
 1063 1063 1063 1063 1063 820 c 2,14,-1
 1063 735 l 1,15,-1
 1312 735 l 1,16,-1
 1392 656 l 1,17,-1
 1312 571 l 1,18,-1
 1063 571 l 1,19,-1
 1063 409 l 2,20,21
 1063 328 1063 328 982 328 c 128,-1,22
 901 328 901 328 899 409 c 2,23,-1
 899 571 l 1,24,-1
 0 571 l 2,25,26
 -81 571 -81 571 -81 654 c 128,-1,27
 -81 737 -81 737 0 735 c 2,28,-1
 245 735 l 1,29,-1
 245 820 l 2,30,31
 245 984 245 984 326.5 1148 c 128,-1,32
 408 1312 408 1312 656 1312 c 0,10,11
EndSplineSet
EndChar

StartChar: t.fina
Encoding: 61 -1 61
Width: 1555
VWidth: 4095
GlyphClass: 2
Flags: W
LayerCount: 2
Fore
SplineSet
492 492 m 2,0,-1
 492 571 l 1,1,-1
 164 571 l 1,2,-1
 164 490 l 2,3,4
 164 328 164 328 328.976190476 328 c 128,-1,5
 493.952380952 328 493.952380952 328 492 492 c 2,0,-1
656 492 m 2,6,7
 656 164 656 164 328 164 c 128,-1,8
 0 164 0 164 0 492 c 1,9,10
 4 492 4 492 2 581.5 c 128,-1,11
 0 671 0 671 0 735 c 1,12,-1
 899 735 l 2,13,14
 1396.05761317 735 1396.05761317 735 1392 1228 c 1,15,16
 1392 1723.944 1392 1723.944 899 1720 c 0,17,18
 818 1720 818 1720 819 1803 c 128,-1,19
 820 1886 820 1886 899 1884 c 0,20,21
 1556 1884 1556 1884 1556 1228 c 0,22,23
 1556 571 1556 571 899 571 c 2,24,-1
 656 571 l 1,25,-1
 656 492 l 2,6,7
EndSplineSet
EndChar

StartChar: t2.medi
Encoding: 62 -1 62
Width: 492
VWidth: 4095
GlyphClass: 2
Flags: W
LayerCount: 2
Fore
SplineSet
409 -492 m 0,0,1
 409 -328 409 -328 245 -328 c 2,2,-1
 164 -328 l 1,3,-1
 164 -656 l 1,4,-1
 245 -656 l 2,5,6
 326 -656 326 -656 368 -617 c 1,7,8
 408 -573 408 -573 409 -492 c 0,0,1
164 -820 m 2,9,10
 0 -820 0 -820 0 -656 c 2,11,-1
 0 735 l 1,12,-1
 492 735 l 1,13,-1
 572 656 l 1,14,-1
 492 571 l 1,15,-1
 164 571 l 1,16,-1
 164 -164 l 1,17,-1
 245 -164 l 2,18,19
 575 -164 575 -164 571 -492 c 0,20,21
 571 -816.024390244 571 -816.024390244 245 -820 c 2,22,-1
 164 -820 l 2,9,10
EndSplineSet
Substitution2: "Single Substitution lookup 26 subtable" glyph331
EndChar

StartChar: t1.medi
Encoding: 63 -1 63
Width: 492
VWidth: 4095
GlyphClass: 2
Flags: W
LayerCount: 2
Fore
SplineSet
409 -81 m 0,0,1
 409 79.0240963855 409 79.0240963855 245 81 c 2,2,-1
 164 81 l 1,3,-1
 164 -245 l 1,4,-1
 245 -245 l 2,5,6
 407.024096386 -245 407.024096386 -245 409 -81 c 0,0,1
245 245 m 2,7,8
 575.024691358 245 575.024691358 245 571 -81 c 0,9,10
 571 -245 571 -245 492 -328 c 1,11,12
 409 -409 409 -409 245 -409 c 2,13,-1
 164 -409 l 1,14,-1
 164 -656 l 2,15,16
 164 -737 164 -737 82 -736 c 128,-1,17
 0 -735 0 -735 0 -656 c 2,18,-1
 0 735 l 1,19,-1
 492 735 l 1,20,-1
 572 656 l 1,21,-1
 492 571 l 1,22,-1
 164 571 l 1,23,-1
 164 245 l 1,24,-1
 245 245 l 2,7,8
EndSplineSet
Substitution2: "Single Substitution lookup 26 subtable" glyph332
EndChar

StartChar: t.medi
Encoding: 64 -1 64
Width: 1312
VWidth: 4095
GlyphClass: 2
Flags: W
LayerCount: 2
Fore
SplineSet
492 492 m 2,0,-1
 492 571 l 1,1,-1
 164 571 l 1,2,-1
 164 490 l 2,3,4
 164 328 164 328 328.976190476 328 c 128,-1,5
 493.952380952 328 493.952380952 328 492 492 c 2,0,-1
656 492 m 2,6,7
 656 164 656 164 328 164 c 128,-1,8
 0 164 0 164 0 492 c 1,9,10
 4 492 4 492 2 581.5 c 128,-1,11
 0 671 0 671 0 735 c 1,12,-1
 899 735 l 1,13,-1
 1312 735 l 1,14,-1
 1392 656 l 1,15,-1
 1312 571 l 1,16,-1
 1063 571 l 1,17,-1
 1063 409 l 2,18,19
 1063 328 1063 328 982 328 c 128,-1,20
 901 328 901 328 900 410 c 2,21,-1
 899 492 l 1,22,-1
 899 571 l 1,23,-1
 656 571 l 1,24,-1
 656 492 l 2,6,7
EndSplineSet
Substitution2: "Single Substitution lookup 7 subtable" t2.medi
Substitution2: "Single Substitution lookup 6 subtable" t1.medi
EndChar

StartChar: n.isol
Encoding: 65 6184 65
Width: 899
VWidth: 4095
GlyphClass: 2
Flags: W
LayerCount: 2
Fore
SplineSet
696 40 m 0,0,1
 696 -9 696 -9 661 -44 c 1,2,3
 636.657587549 -75.9494163424 636.657587549 -75.9494163424 571 -81 c 1,4,5
 516.19047619 -81 516.19047619 -81 488 -44 c 1,6,7
 453 -17.3333333333 453 -17.3333333333 453 40 c 0,8,9
 453 116.391304348 453 116.391304348 527 155 c 0,10,11
 548 162 548 162 571 164 c 0,12,13
 619.375 164 619.375 164 661 127 c 0,14,15
 693.833333333 94.1666666667 693.833333333 94.1666666667 696 40 c 0,0,1
0 1392 m 0,16,17
 656 1392 656 1392 656 735 c 1,18,-1
 899 735 l 1,19,-1
 979 656 l 1,20,-1
 899 571 l 1,21,-1
 656 571 l 1,22,-1
 656 409 l 2,23,24
 656 328 656 328 573 328 c 128,-1,25
 490 328 490 328 491 410 c 2,26,-1
 492 492 l 1,27,-1
 492 737.5 l 2,28,29
 492 1230.02469136 492 1230.02469136 0 1228 c 0,30,31
 -81 1228 -81 1228 -81 1310 c 128,-1,32
 -81 1392 -81 1392 0 1392 c 0,16,17
EndSplineSet
Substitution2: "'fina' Terminal Forms in Mongolian lookup 2 subtable" n.fina
Substitution2: "'medi' Medial Forms in Mongolian lookup 1 subtable" n.medi
Substitution2: "Required Feature in Latin lookup 0 subtable" n.init
EndChar

StartChar: n.fina
Encoding: 66 -1 66
Width: 1227
VWidth: 4095
GlyphClass: 2
Flags: W
LayerCount: 2
Fore
SplineSet
1228 1228 m 0,0,1
 1228 571 1228 571 571 571 c 2,2,-1
 0 571 l 1,3,-1
 0 735 l 1,4,-1
 571 735 l 2,5,6
 1063 735 1063 735 1063 1229.49190283 c 128,-1,7
 1063 1723.98380567 1063 1723.98380567 571 1720 c 0,8,9
 490 1720 490 1720 491 1803 c 128,-1,10
 492 1886 492 1886 571 1884 c 0,11,12
 1226 1884 1226 1884 1228 1228 c 0,0,1
EndSplineSet
Substitution2: "Single Substitution lookup 6 subtable" n1.fina
EndChar

StartChar: n1.fina
Encoding: 67 -1 67
Width: 1227
VWidth: 4095
GlyphClass: 2
Flags: W
LayerCount: 2
Fore
SplineSet
696 -40 m 0,0,1
 696 -118.52 696 -118.52 620 -155 c 0,2,3
 597 -162 597 -162 571 -164 c 0,4,5
 525 -164 525 -164 488 -127 c 1,6,7
 453 -100.333333333 453 -100.333333333 453 -40 c 0,8,9
 453 15.6666666667 453 15.6666666667 488 44 c 1,10,11
 512.301552106 75.8957871397 512.301552106 75.8957871397 571 81 c 1,12,13
 652.708333333 81 652.708333333 81 688 4 c 0,14,15
 695 -17 695 -17 696 -40 c 0,0,1
1228 1228 m 0,16,17
 1228 571 1228 571 571 571 c 2,18,-1
 0 571 l 1,19,-1
 0 735 l 1,20,-1
 571 735 l 2,21,22
 1063 735 1063 735 1063 1229.49190283 c 128,-1,23
 1063 1723.98380567 1063 1723.98380567 571 1720 c 0,24,25
 490 1720 490 1720 491 1803 c 128,-1,26
 492 1886 492 1886 571 1884 c 0,27,28
 1226 1884 1226 1884 1228 1228 c 0,16,17
EndSplineSet
EndChar

StartChar: n1.medi
Encoding: 68 -1 68
Width: 409
VWidth: 4095
GlyphClass: 2
Flags: W
LayerCount: 2
Fore
SplineSet
204 -40 m 0,0,1
 204 -118.04 204 -118.04 127 -155 c 1,2,3
 52.8785425101 -177.558704453 52.8785425101 -177.558704453 -4 -127 c 0,4,5
 -37.875 -93.125 -37.875 -93.125 -40 -40 c 0,6,7
 -40 5.75 -40 5.75 -4 44 c 1,8,9
 19.7457212714 75.1662591687 19.7457212714 75.1662591687 81 81 c 1,10,11
 157.5 81 157.5 81 196 4 c 0,12,13
 203 -17 203 -17 204 -40 c 0,0,1
409 571 m 1,14,-1
 164 571 l 1,15,-1
 164 409 l 2,16,17
 164 328 164 328 82 328 c 128,-1,18
 0 328 0 328 0 410 c 2,19,-1
 0 735 l 1,20,-1
 409 735 l 1,21,-1
 489 656 l 1,22,-1
 409 571 l 1,14,-1
EndSplineSet
Substitution2: "Single Substitution lookup 26 subtable" glyph322
EndChar

StartChar: n.medi
Encoding: 69 -1 69
Width: 409
VWidth: 4095
GlyphClass: 2
Flags: W
LayerCount: 2
Fore
SplineSet
409 571 m 1,0,-1
 164 571 l 1,1,-1
 164 409 l 2,2,3
 164 328 164 328 82 328 c 128,-1,4
 0 328 0 328 0 410 c 2,5,-1
 0 735 l 1,6,-1
 409 735 l 1,7,-1
 489 656 l 1,8,-1
 409 571 l 1,0,-1
EndSplineSet
Substitution2: "Single Substitution lookup 26 subtable" glyph277
Substitution2: "Single Substitution lookup 6 subtable" n1.medi
EndChar

StartChar: l.isol
Encoding: 70 6191 70
Width: 899
VWidth: 4095
GlyphClass: 2
Flags: W
LayerCount: 2
Fore
SplineSet
245 1884 m 2,0,-1
 328 1884 l 2,1,2
 492 1884 492 1884 573 1794 c 128,-1,3
 654 1704 654 1704 656 1556 c 2,4,-1
 656 735 l 1,5,-1
 899 735 l 1,6,-1
 979 656 l 1,7,-1
 899 571 l 1,8,-1
 656 571 l 1,9,-1
 656 409 l 2,10,11
 656 328 656 328 573 328 c 128,-1,12
 490 328 490 328 491 410 c 2,13,-1
 492 492 l 1,14,-1
 492 632.87281911 l 2,15,16
 490.87670203 641.574513377 490.87670203 641.574513377 491 651.5 c 0,17,18
 491.40283822 683.928476683 491.40283822 683.928476683 491.643397882 763.661174369 c 0,19,20
 478.75431363 1229.97018236 478.75431363 1229.97018236 0 1228 c 0,21,22
 -81 1228 -81 1228 -81 1310 c 128,-1,23
 -81 1392 -81 1392 0 1392 c 0,24,25
 328 1392 328 1392 492 1227.75 c 1,26,-1
 492 1556 l 2,27,28
 492 1612 492 1612 450.5 1666 c 128,-1,29
 409 1720 409 1720 328 1720 c 2,30,-1
 246 1720 l 2,31,32
 164 1720 164 1720 164 1802 c 128,-1,33
 164 1884 164 1884 245 1884 c 2,0,-1
EndSplineSet
Substitution2: "'fina' Terminal Forms in Mongolian lookup 2 subtable" l.fina
Substitution2: "'medi' Medial Forms in Mongolian lookup 1 subtable" l.medi
Substitution2: "Required Feature in Latin lookup 0 subtable" l.init
EndChar

StartChar: l.fina
Encoding: 71 -1 71
Width: 162
VWidth: 4095
GlyphClass: 2
Flags: W
LayerCount: 2
Fore
SplineSet
0 1556 m 2,0,1
 0 1720 0 1720 -162.5 1720 c 0,2,3
 -245 1720 -245 1720 -245 1803 c 128,-1,4
 -245 1886 -245 1886 -164 1884 c 0,5,6
 164 1884 164 1884 164 1556 c 2,7,-1
 164 409 l 2,8,9
 164 328 164 328 82 328 c 128,-1,10
 0 328 0 328 0 410 c 2,11,-1
 0 1556 l 2,0,1
EndSplineSet
EndChar

StartChar: l.medi
Encoding: 72 -1 72
Width: 409
VWidth: 4095
GlyphClass: 2
Flags: W
LayerCount: 2
Fore
SplineSet
-160 1884 m 0,0,1
 164 1884 164 1884 164 1556 c 2,2,-1
 164 735 l 1,3,-1
 409 735 l 1,4,-1
 489 656 l 1,5,-1
 409 571 l 1,6,-1
 164 571 l 1,7,-1
 164 409 l 2,8,9
 164 328 164 328 82 328 c 128,-1,10
 0 328 0 328 0 410 c 2,11,-1
 0 656 l 1,12,-1
 0 735 l 1,13,-1
 0 1556 l 2,14,15
 0 1724.76190476 0 1724.76190476 -164 1715 c 1,16,17
 -245 1719 -245 1719 -245 1805 c 0,18,19
 -245 1886 -245 1886 -160 1884 c 0,0,1
EndSplineSet
Substitution2: "Single Substitution lookup 26 subtable" glyph321
EndChar

StartChar: k.isol
Encoding: 73 6260 73
Width: 1556
VWidth: 4095
GlyphClass: 2
Flags: W
LayerCount: 2
Fore
SplineSet
492 81 m 0,0,1
 492 575.049382716 492 575.049382716 0 571 c 0,2,3
 -81 571 -81 571 -81 653 c 128,-1,4
 -81 735 -81 735 0 735 c 1,5,6
 0 1392 0 1392 656 1392 c 128,-1,7
 1312 1392 1312 1392 1312 735 c 1,8,-1
 1556 735 l 1,9,-1
 1636 656 l 1,10,-1
 1556 571 l 1,11,-1
 1312 571 l 1,12,-1
 1312 409 l 2,13,14
 1312 328 1312 328 1229.5 328 c 128,-1,15
 1147 328 1147 328 1148 409 c 2,16,-1
 1148 735 l 2,17,18
 1148 1230.02469136 1148 1230.02469136 656 1228 c 0,19,20
 408 1228 408 1228 289 1104 c 1,21,22
 164 984 164 984 164 735 c 0,23,24
 164 728.936215954 164 728.936215954 163.540451591 723.331980317 c 1,25,26
 656 647.645063832 656 647.645063832 656 81 c 0,27,28
 656 0 656 0 573 0 c 128,-1,29
 490 0 490 0 492 81 c 0,0,1
EndSplineSet
Substitution2: "Single Substitution k g h" k1.init
Substitution2: "'fina' Terminal Forms in Mongolian lookup 2 subtable" k.fina
Substitution2: "'medi' Medial Forms in Mongolian lookup 1 subtable" k.medi
Substitution2: "Required Feature in Latin lookup 0 subtable" k.init
EndChar

StartChar: ks.fina
Encoding: 74 -1 74
Width: 1391
VWidth: 4095
GlyphClass: 2
Flags: W
LayerCount: 2
Fore
SplineSet
604 -4 m 1,0,1
 580.605263158 -74.1842105263 580.605263158 -74.1842105263 492 -81 c 1,2,3
 433.952380952 -81 433.952380952 -81 404 -44 c 0,4,5
 388 -28 388 -28 379 -4 c 0,6,7
 367 17 367 17 368 40 c 0,8,9
 368 117 368 117 444 155 c 1,10,11
 467 162 467 162 492 164 c 0,12,13
 538.375 164 538.375 164 580 127 c 0,14,15
 614.916666667 92.0833333333 614.916666667 92.0833333333 617 40 c 0,16,17
 617 17 617 17 604 -4 c 1,0,1
168 -48 m 0,18,19
 152 -64 152 -64 127 -72 c 1,20,21
 83.9565217391 -94.4574669187 83.9565217391 -94.4574669187 37 -72 c 0,22,23
 14 -65 14 -65 -4 -48 c 1,24,25
 -20 -27 -20 -27 -32 -7 c 1,26,27
 -39 16 -39 16 -40 40 c 0,28,29
 -40 118.04 -40 118.04 37 155 c 1,30,31
 111.12145749 177.558704453 111.12145749 177.558704453 168 127 c 0,32,33
 201.875 93.125 201.875 93.125 204 40 c 0,34,35
 204 17 204 17 196 -7 c 1,36,37
 184 -27 184 -27 168 -48 c 0,18,19
1392 1228 m 0,38,39
 1392 571 1392 571 735 571 c 2,40,-1
 0 571 l 1,41,-1
 0 735 l 1,42,-1
 735 735 l 2,43,44
 1230.02880658 735 1230.02880658 735 1228 1228 c 0,45,46
 1228 1476 1228 1476 1104 1597 c 1,47,48
 984 1722 984 1722 735 1720 c 0,49,50
 654 1720 654 1720 655 1803 c 128,-1,51
 656 1886 656 1886 735 1884 c 0,52,53
 1392 1884 1392 1884 1392 1228 c 0,38,39
EndSplineSet
EndChar

StartChar: k.fina
Encoding: 75 -1 75
Width: 1391
VWidth: 4095
GlyphClass: 2
Flags: W
LayerCount: 2
Fore
SplineSet
604 -4 m 1,0,1
 580.605263158 -74.1842105263 580.605263158 -74.1842105263 492 -81 c 1,2,3
 433.952380952 -81 433.952380952 -81 404 -44 c 0,4,5
 388 -28 388 -28 379 -4 c 0,6,7
 367 17 367 17 368 40 c 0,8,9
 368 117 368 117 444 155 c 1,10,11
 467 162 467 162 492 164 c 0,12,13
 538.375 164 538.375 164 580 127 c 0,14,15
 614.916666667 92.0833333333 614.916666667 92.0833333333 617 40 c 0,16,17
 617 17 617 17 604 -4 c 1,0,1
168 -48 m 0,18,19
 152 -64 152 -64 127 -72 c 1,20,21
 83.9565217391 -94.4574669187 83.9565217391 -94.4574669187 37 -72 c 0,22,23
 14 -65 14 -65 -4 -48 c 1,24,25
 -20 -27 -20 -27 -32 -7 c 1,26,27
 -39 16 -39 16 -40 40 c 0,28,29
 -40 118.04 -40 118.04 37 155 c 1,30,31
 111.12145749 177.558704453 111.12145749 177.558704453 168 127 c 0,32,33
 201.875 93.125 201.875 93.125 204 40 c 0,34,35
 204 17 204 17 196 -7 c 1,36,37
 184 -27 184 -27 168 -48 c 0,18,19
1392 1228 m 0,38,39
 1392 571 1392 571 735 571 c 2,40,-1
 164 571 l 1,41,-1
 164 409 l 2,42,43
 164 328 164 328 82 328 c 128,-1,44
 0 328 0 328 0 410 c 2,45,-1
 0 735 l 1,46,-1
 735 735 l 2,47,48
 1230.02880658 735 1230.02880658 735 1228 1228 c 0,49,50
 1228 1476 1228 1476 1104 1597 c 1,51,52
 984 1722 984 1722 735 1720 c 0,53,54
 654 1720 654 1720 655 1803 c 128,-1,55
 656 1886 656 1886 735 1884 c 0,56,57
 1392 1884 1392 1884 1392 1228 c 0,38,39
EndSplineSet
Substitution2: "Single Substitution k g h" k1.fina
Substitution2: "Single Substitution lookup 12 subtable" k1.fina
Substitution2: "Single Substitution lookup 11 subtable" k1.fina
Substitution2: "Single Substitution lookup 10 subtable" k1.fina
Substitution2: "Single Substitution lookup 9 subtable" k1.fina
Substitution2: "Single Substitution lookup 8 subtable" k.fina
EndChar

StartChar: k2.medi
Encoding: 76 -1 76
Width: 820
VWidth: 4095
GlyphClass: 2
Flags: W
LayerCount: 2
Fore
SplineSet
820 571 m 1,0,-1
 571 571 l 1,1,-1
 571 409 l 2,2,3
 571 328 571 328 490 328 c 128,-1,4
 409 328 409 328 409 410 c 2,5,-1
 409 571 l 1,6,-1
 164 571 l 1,7,-1
 164 409 l 2,8,9
 164 328 164 328 82 328 c 128,-1,10
 0 328 0 328 0 410 c 2,11,-1
 0 735 l 1,12,-1
 820 735 l 1,13,-1
 900 656 l 1,14,-1
 820 571 l 1,0,-1
EndSplineSet
Substitution2: "Single Substitution lookup 26 subtable" glyph290
EndChar

StartChar: ks.medi
Encoding: 77 -1 77
Width: 820
VWidth: 4095
GlyphClass: 2
Flags: W
LayerCount: 2
Fore
SplineSet
617 40 m 0,0,1
 617 0.5625 617 0.5625 580 -48 c 1,2,3
 532.041189931 -84.5400457666 532.041189931 -84.5400457666 492 -83 c 0,4,5
 413.2 -83 413.2 -83 379 -7 c 0,6,7
 367 16 367 16 368 40 c 0,8,9
 368 117 368 117 444 155 c 1,10,11
 467 162 467 162 492 164 c 0,12,13
 538.375 164 538.375 164 580 127 c 0,14,15
 614.916666667 92.0833333333 614.916666667 92.0833333333 617 40 c 0,0,1
204 40 m 0,16,17
 204 -12 204 -12 168 -48 c 0,18,19
 152 -64 152 -64 127 -72 c 1,20,21
 83.9565217391 -94.4574669187 83.9565217391 -94.4574669187 37 -72 c 1,22,23
 -7.26680244399 -58.5274949084 -7.26680244399 -58.5274949084 -32 -7 c 0,24,25
 -39 16 -39 16 -40 40 c 0,26,27
 -40 91 -40 91 -4 127 c 0,28,29
 33 164 33 164 68.5 164 c 0,30,31
 156.347826087 164 156.347826087 164 196 88 c 1,32,33
 203 65 203 65 204 40 c 0,16,17
820 571 m 1,34,-1
 164 571 l 1,35,-1
 164 409 l 2,36,37
 164 328 164 328 82 328 c 128,-1,38
 0 328 0 328 0 410 c 2,39,-1
 0 735 l 1,40,-1
 820 735 l 1,41,-1
 900 656 l 1,42,-1
 820 571 l 1,34,-1
EndSplineSet
Substitution2: "Single Substitution lookup 26 subtable" glyph291
Substitution2: "Single Substitution lookup 7 subtable" ks2.medi
Substitution2: "Single Substitution lookup 6 subtable" ks1.medi
EndChar

StartChar: k.medi
Encoding: 78 -1 78
Width: 820
VWidth: 4095
GlyphClass: 2
Flags: W
LayerCount: 2
Fore
SplineSet
617 40 m 0,0,1
 617 0.5625 617 0.5625 580 -48 c 1,2,3
 532.041189931 -84.5400457666 532.041189931 -84.5400457666 492 -83 c 0,4,5
 413.2 -83 413.2 -83 379 -7 c 0,6,7
 367 16 367 16 368 40 c 0,8,9
 368 117 368 117 444 155 c 1,10,11
 467 162 467 162 492 164 c 0,12,13
 538.375 164 538.375 164 580 127 c 0,14,15
 614.916666667 92.0833333333 614.916666667 92.0833333333 617 40 c 0,0,1
204 40 m 0,16,17
 204 -12 204 -12 168 -48 c 0,18,19
 152 -64 152 -64 127 -72 c 1,20,21
 83.9565217391 -94.4574669187 83.9565217391 -94.4574669187 37 -72 c 1,22,23
 -7.26680244399 -58.5274949084 -7.26680244399 -58.5274949084 -32 -7 c 0,24,25
 -39 16 -39 16 -40 40 c 0,26,27
 -40 91 -40 91 -4 127 c 0,28,29
 33 164 33 164 68.5 164 c 0,30,31
 156.347826087 164 156.347826087 164 196 88 c 1,32,33
 203 65 203 65 204 40 c 0,16,17
820 571 m 1,34,-1
 571 571 l 1,35,-1
 571 409 l 2,36,37
 571 328 571 328 490 328 c 128,-1,38
 409 328 409 328 409 410 c 2,39,-1
 409 571 l 1,40,-1
 164 571 l 1,41,-1
 164 409 l 2,42,43
 164 328 164 328 82 328 c 128,-1,44
 0 328 0 328 0 410 c 2,45,-1
 0 735 l 1,46,-1
 820 735 l 1,47,-1
 900 656 l 1,48,-1
 820 571 l 1,34,-1
EndSplineSet
Substitution2: "Single Substitution k g h" k1.medi
Substitution2: "Single Substitution lookup 26 subtable" glyph292
Substitution2: "Single Substitution lookup 12 subtable" k1.medi
Substitution2: "Single Substitution lookup 11 subtable" k1.medi
Substitution2: "Single Substitution lookup 10 subtable" k1.medi
Substitution2: "Single Substitution lookup 9 subtable" k1.medi
Substitution2: "Single Substitution lookup 8 subtable" k.medi
Substitution2: "Single Substitution lookup 7 subtable" k2.medi
Substitution2: "Single Substitution lookup 6 subtable" k1.medi
EndChar

StartChar: g.isol
Encoding: 79 6244 79
Width: 1556
VWidth: 4095
GlyphClass: 2
Flags: W
LayerCount: 2
Fore
SplineSet
1597 1269 m 1,0,1
 1597 1212.19047619 1597 1212.19047619 1560 1184 c 1,2,3
 1534.47537473 1150.49892934 1534.47537473 1150.49892934 1477 1148 c 0,4,5
 1416.42857143 1148 1416.42857143 1148 1389 1184 c 1,6,7
 1352 1221 1352 1221 1352 1269 c 0,8,9
 1352 1344.34782609 1352 1344.34782609 1428 1384 c 1,10,11
 1451 1391 1451 1391 1477 1392 c 0,12,13
 1524 1392 1524 1392 1560 1356 c 1,14,15
 1591.5232816 1331.98226164 1591.5232816 1331.98226164 1597 1269 c 1,0,1
492 81 m 0,16,17
 492 575.049382716 492 575.049382716 0 571 c 0,18,19
 -81 571 -81 571 -81 653 c 128,-1,20
 -81 735 -81 735 0 735 c 1,21,22
 0 1392 0 1392 656 1392 c 128,-1,23
 1312 1392 1312 1392 1312 735 c 1,24,-1
 1556 735 l 1,25,-1
 1636 656 l 1,26,-1
 1556 571 l 1,27,-1
 1312 571 l 1,28,-1
 1312 409 l 2,29,30
 1312 328 1312 328 1229.5 328 c 128,-1,31
 1147 328 1147 328 1148 409 c 2,32,-1
 1148 735 l 2,33,34
 1148 1230.02469136 1148 1230.02469136 656 1228 c 0,35,36
 408 1228 408 1228 289 1104 c 1,37,38
 164 984 164 984 164 735 c 0,39,40
 164 728.939207114 164 728.939207114 163.540904854 723.331910654 c 1,41,42
 656 647.64480306 656 647.64480306 656 81 c 0,43,44
 656 0 656 0 573 0 c 128,-1,45
 490 0 490 0 492 81 c 0,16,17
EndSplineSet
Substitution2: "Single Substitution k g h" g1.init
Substitution2: "'fina' Terminal Forms in Mongolian lookup 2 subtable" g.fina
Substitution2: "'medi' Medial Forms in Mongolian lookup 1 subtable" g.medi
Substitution2: "Required Feature in Latin lookup 0 subtable" g.init
EndChar

StartChar: g.medi
Encoding: 80 -1 80
Width: 820
VWidth: 4095
GlyphClass: 2
Flags: W
LayerCount: 2
Fore
SplineSet
604 1225 m 1,0,1
 580.448598131 1151.40186916 580.448598131 1151.40186916 492 1148 c 0,2,3
 406.72 1148 406.72 1148 379 1225 c 1,4,5
 367 1246 367 1246 368 1269 c 0,6,7
 368 1346 368 1346 444 1384 c 1,8,9
 467 1391 467 1391 492 1392 c 0,10,11
 515 1392 515 1392 541 1384 c 1,12,13
 591.076923077 1355.38461538 591.076923077 1355.38461538 604 1315 c 1,14,15
 616 1292 616 1292 617 1269 c 0,16,17
 617 1246 617 1246 604 1225 c 1,0,1
820 571 m 1,18,-1
 571 571 l 1,19,-1
 571 409 l 2,20,21
 571 328 571 328 490 328 c 128,-1,22
 409 328 409 328 409 410 c 2,23,-1
 409 571 l 1,24,-1
 164 571 l 1,25,-1
 164 409 l 2,26,27
 164 328 164 328 82 328 c 128,-1,28
 0 328 0 328 0 410 c 2,29,-1
 0 735 l 1,30,-1
 820 735 l 1,31,-1
 900 656 l 1,32,-1
 820 571 l 1,18,-1
EndSplineSet
Substitution2: "Single Substitution k g h" g1.medi
Substitution2: "Single Substitution lookup 26 subtable" glyph293
Substitution2: "Single Substitution lookup 6 subtable" g1.medi
EndChar

StartChar: h.isol
Encoding: 81 6245 81
Width: 1555
VWidth: 4095
GlyphClass: 2
Flags: W
LayerCount: 2
Fore
SplineSet
492 81 m 0,0,1
 492 575.049382716 492 575.049382716 0 571 c 0,2,3
 -81 571 -81 571 -81 653 c 128,-1,4
 -81 735 -81 735 0 735 c 1,5,6
 0 1392 0 1392 656 1392 c 128,-1,7
 1312 1392 1312 1392 1312 735 c 1,8,-1
 1556 735 l 1,9,-1
 1636 656 l 1,10,-1
 1556 571 l 1,11,-1
 1312 571 l 1,12,-1
 1312 409 l 2,13,14
 1312 328 1312 328 1229.5 328 c 128,-1,15
 1147 328 1147 328 1148 409 c 2,16,-1
 1148 735 l 2,17,18
 1148 980 1148 980 1023.5 1104.5 c 128,-1,19
 899 1229 899 1229 656 1228.5 c 128,-1,20
 413 1228 413 1228 288.5 1103.5 c 128,-1,21
 164 979 164 979 164 735 c 0,22,23
 164 728.935004315 164 728.935004315 163.516695697 723.335631069 c 1,24,25
 656 647.658730942 656 647.658730942 656 81 c 0,26,27
 656 0 656 0 573 0 c 128,-1,28
 490 0 490 0 492 81 c 0,0,1
1641 1228 m 0,29,30
 1641 1254.66666667 1641 1254.66666667 1616 1288 c 1,31,32
 1580 1309 1580 1309 1556 1312 c 0,33,34
 1508.25 1312 1508.25 1312 1479 1260 c 1,35,36
 1475 1244 1475 1244 1477 1228 c 0,37,38
 1477 1212 1477 1212 1479 1195 c 1,39,40
 1486 1179 1486 1179 1500 1172 c 1,41,42
 1515.39336493 1145.61137441 1515.39336493 1145.61137441 1556 1148 c 0,43,44
 1605.5625 1148 1605.5625 1148 1632 1195 c 0,45,46
 1641 1212 1641 1212 1641 1228 c 0,29,30
1784 1137 m 0,47,48
 1742.91139241 1041.12658228 1742.91139241 1041.12658228 1652 1000 c 1,49,50
 1604 984 1604 984 1556 984 c 0,51,52
 1447.77142857 984 1447.77142857 984 1384 1056 c 1,53,54
 1312 1118.27027027 1312 1118.27027027 1312 1228 c 0,55,56
 1312 1328.88235294 1312 1328.88235294 1384 1403 c 0,57,58
 1458 1477 1458 1477 1556 1477 c 0,59,60
 1650.0625 1477 1650.0625 1477 1731 1403 c 1,61,62
 1805 1317.4375 1805 1317.4375 1805 1228 c 0,63,64
 1805 1180 1805 1180 1784 1137 c 0,47,48
EndSplineSet
Substitution2: "Single Substitution k g h" h1.init
Substitution2: "'fina' Terminal Forms in Mongolian lookup 2 subtable" h.fina
Substitution2: "'medi' Medial Forms in Mongolian lookup 1 subtable" h.medi
Substitution2: "Required Feature in Latin lookup 0 subtable" h.init
EndChar

StartChar: h.medi
Encoding: 82 -1 82
Width: 820
VWidth: 4095
GlyphClass: 2
Flags: W
LayerCount: 2
Fore
SplineSet
571 1228 m 0,0,1
 571 1266.76923077 571 1266.76923077 548 1288 c 1,2,3
 537.303370787 1306.33707865 537.303370787 1306.33707865 492 1312 c 1,4,5
 456 1312 456 1312 432 1288 c 1,6,7
 409 1248.57142857 409 1248.57142857 409 1228 c 0,8,9
 409 1179.6875 409 1179.6875 460 1151 c 1,10,11
 476 1147 476 1147 492 1148 c 0,12,13
 534.285714286 1148 534.285714286 1148 548 1172 c 1,14,15
 560 1184 560 1184 568 1195 c 1,16,17
 571 1212 571 1212 571 1228 c 0,0,1
735 1228 m 1,18,19
 735 1117.40540541 735 1117.40540541 664 1056 c 1,20,21
 632 1019 632 1019 584 1003 c 1,22,23
 540 982 540 982 492 984 c 0,24,25
 386.054054054 984 386.054054054 984 316 1056 c 0,26,27
 284 1088 284 1088 264 1137 c 0,28,29
 225.1390625 1225.825 225.1390625 1225.825 264 1324 c 0,30,31
 285 1372 285 1372 316 1403 c 0,32,33
 401.5625 1477 401.5625 1477 492 1477 c 0,34,35
 590 1477 590 1477 664 1403 c 1,36,37
 739.568478261 1337.64347826 739.568478261 1337.64347826 735 1228 c 1,18,19
820 571 m 1,38,-1
 571 571 l 1,39,-1
 571 409 l 2,40,41
 571 328 571 328 490 328 c 128,-1,42
 409 328 409 328 409 410 c 2,43,-1
 409 571 l 1,44,-1
 164 571 l 1,45,-1
 164 409 l 2,46,47
 164 328 164 328 82 328 c 128,-1,48
 0 328 0 328 0 410 c 2,49,-1
 0 735 l 1,50,-1
 820 735 l 1,51,-1
 900 656 l 1,52,-1
 820 571 l 1,38,-1
EndSplineSet
Substitution2: "Single Substitution k g h" h1.medi
Substitution2: "Single Substitution lookup 26 subtable" glyph294
Substitution2: "Single Substitution lookup 6 subtable" h1.medi
EndChar

StartChar: kh.isol
Encoding: 83 6202 83
Width: 1146
VWidth: 4095
GlyphClass: 2
Flags: W
LayerCount: 2
Fore
SplineSet
656 1392 m 128,-1,1
 1312 1392 1312 1392 1312 735 c 2,2,-1
 1312 654 l 2,3,4
 1312 573 1312 573 1228 571 c 0,5,6
 1147 571 1147 571 1148 656 c 2,7,-1
 1148 735 l 2,8,9
 1148 1230.02469136 1148 1230.02469136 656 1228 c 0,10,11
 408 1228 408 1228 289 1104 c 1,12,13
 164 984 164 984 164 735 c 2,14,-1
 164 492 l 1,15,16
 409 492 409 492 532 368 c 0,17,18
 657 243 657 243 656 0 c 0,19,20
 656 -81 656 -81 573 -81 c 128,-1,21
 490 -81 490 -81 492 0 c 0,22,23
 492 328 492 328 164 328 c 1,24,-1
 164 0 l 2,25,26
 164 -81 164 -81 82 -81 c 128,-1,27
 0 -81 0 -81 0 0 c 2,28,-1
 0 735 l 2,29,0
 0 1392 0 1392 656 1392 c 128,-1,1
EndSplineSet
Substitution2: "Single Substitution lookup 25 subtable" glyph295
Substitution2: "'fina' Terminal Forms in Mongolian lookup 2 subtable" kh.fina
Substitution2: "'medi' Medial Forms in Mongolian lookup 1 subtable" kh.medi
Substitution2: "Required Feature in Latin lookup 0 subtable" kh.init
EndChar

StartChar: k1.init
Encoding: 84 -1 84
Width: 1146
VWidth: 4095
GlyphClass: 2
Flags: W
LayerCount: 2
Fore
SplineSet
656 1392 m 128,-1,1
 1312 1392 1312 1392 1312 735 c 2,2,-1
 1312 654 l 2,3,4
 1312 573 1312 573 1228 571 c 0,5,6
 1147 571 1147 571 1148 656 c 2,7,-1
 1148 735 l 2,8,9
 1148 1230.02469136 1148 1230.02469136 656 1228 c 0,10,11
 408 1228 408 1228 289 1104 c 1,12,13
 164 984 164 984 164 735 c 2,14,-1
 164 0 l 2,15,16
 164 -81 164 -81 82 -81 c 128,-1,17
 0 -81 0 -81 0 0 c 2,18,-1
 0 735 l 2,19,0
 0 1392 0 1392 656 1392 c 128,-1,1
EndSplineSet
Substitution2: "Single Substitution lookup 25 subtable" glyph296
EndChar

StartChar: k1.fina
Encoding: 85 -1 85
Width: 1311
VWidth: 4095
GlyphClass: 2
Flags: W
LayerCount: 2
Fore
SplineSet
1188 -409 m 0,0,1
 1063 -573 1063 -573 735 -571 c 0,2,3
 654 -571 654 -571 655 -490 c 128,-1,4
 656 -409 656 -409 735 -409 c 0,5,6
 983 -409 983 -409 1064.5 -286.5 c 128,-1,7
 1146 -164 1146 -164 1148 81 c 2,8,-1
 1148 651.904223676 l 2,9,10
 1147.97560976 653.926829268 1147.97560976 653.926829268 1148 656 c 2,11,-1
 1148 735 l 2,12,13
 1148 1230.02469136 1148 1230.02469136 656 1228 c 0,14,15
 408 1228 408 1228 289 1104 c 1,16,17
 164 984 164 984 164 735 c 2,18,-1
 164 0 l 2,19,20
 164 -81 164 -81 82 -81 c 128,-1,21
 0 -81 0 -81 0 0 c 2,22,-1
 0 735 l 2,23,24
 0 1392 0 1392 656 1392 c 128,-1,25
 1312 1392 1312 1392 1312 735 c 2,26,-1
 1312 654 l 2,27,28
 1312 645.945287687 1312 645.945287687 1311.16936651 638.671766191 c 0,29,30
 1312.00000023 554.83517394 1312.00000023 554.83517394 1312 368 c 2,31,-1
 1312 62.5 l 2,32,33
 1312 -243 1312 -243 1188 -409 c 0,0,1
EndSplineSet
EndChar

StartChar: kh.medi
Encoding: 86 -1 86
Width: 1146
VWidth: 4095
GlyphClass: 2
Flags: W
LayerCount: 2
Fore
SplineSet
656 1392 m 128,-1,1
 1312 1392 1312 1392 1312 735 c 2,2,-1
 1312 654 l 2,3,4
 1312 573 1312 573 1228 571 c 0,5,6
 1147 571 1147 571 1148 656 c 2,7,-1
 1148 735 l 2,8,9
 1148 1230.02469136 1148 1230.02469136 656 1228 c 0,10,11
 408 1228 408 1228 289 1104 c 1,12,13
 164 984 164 984 164 735 c 2,14,-1
 164 492 l 1,15,16
 409 492 409 492 532 368 c 0,17,18
 657 243 657 243 656 0 c 0,19,20
 656 -81 656 -81 573 -81 c 128,-1,21
 490 -81 490 -81 492 0 c 0,22,23
 492 328 492 328 164 328 c 1,24,-1
 164 0 l 2,25,26
 164 -81 164 -81 82 -81 c 128,-1,27
 0 -81 0 -81 0 0 c 2,28,-1
 0 735 l 2,29,0
 0 1392 0 1392 656 1392 c 128,-1,1
EndSplineSet
Substitution2: "Single Substitution lookup 26 subtable" glyph307
Substitution2: "Single Substitution lookup 25 subtable" glyph301
EndChar

StartChar: k1.medi
Encoding: 87 -1 87
Width: 1146
VWidth: 4095
GlyphClass: 2
Flags: W
LayerCount: 2
Fore
SplineSet
656 1392 m 128,-1,1
 1312 1392 1312 1392 1312 735 c 2,2,-1
 1312 654 l 2,3,4
 1312 573 1312 573 1228 571 c 0,5,6
 1147 571 1147 571 1148 656 c 2,7,-1
 1148 735 l 2,8,9
 1148 1230.02469136 1148 1230.02469136 656 1228 c 0,10,11
 408 1228 408 1228 289 1104 c 1,12,13
 164 984 164 984 164 735 c 2,14,-1
 164 0 l 2,15,16
 164 -81 164 -81 82 -81 c 128,-1,17
 0 -81 0 -81 0 0 c 2,18,-1
 0 735 l 2,19,0
 0 1392 0 1392 656 1392 c 128,-1,1
EndSplineSet
Substitution2: "Single Substitution lookup 28 subtable" glyph338
Substitution2: "Single Substitution lookup 26 subtable" glyph308
Substitution2: "Single Substitution lookup 25 subtable" glyph302
EndChar

StartChar: gh.isol
Encoding: 88 6252 88
Width: 1146
VWidth: 4095
GlyphClass: 2
Flags: W
LayerCount: 2
Fore
SplineSet
779 1759 m 0,0,1
 779 1716.9375 779 1716.9375 744 1671 c 1,2,3
 698.0625 1636 698.0625 1636 656 1636 c 0,4,5
 633 1636 633 1636 608 1648 c 0,6,7
 585 1655 585 1655 568 1671 c 0,8,9
 536 1713 536 1713 532 1759 c 1,10,11
 532 1805.8 532 1805.8 568 1849 c 1,12,13
 600.791666667 1881.79166667 600.791666667 1881.79166667 656 1884 c 0,14,15
 679 1884 679 1884 705 1876 c 1,16,17
 726 1864 726 1864 744 1849 c 0,18,19
 760 1833 760 1833 768 1808 c 1,20,21
 780 1785 780 1785 779 1759 c 0,0,1
656 1392 m 128,-1,23
 1312 1392 1312 1392 1312 735 c 2,24,-1
 1312 654 l 2,25,26
 1312 573 1312 573 1228 571 c 0,27,28
 1147 571 1147 571 1148 656 c 2,29,-1
 1148 735 l 2,30,31
 1148 1230.02469136 1148 1230.02469136 656 1228 c 0,32,33
 408 1228 408 1228 289 1104 c 1,34,35
 164 984 164 984 164 735 c 2,36,-1
 164 492 l 1,37,38
 409 492 409 492 532 368 c 0,39,40
 657 243 657 243 656 0 c 0,41,42
 656 -81 656 -81 573 -81 c 128,-1,43
 490 -81 490 -81 492 0 c 0,44,45
 492 328 492 328 164 328 c 1,46,-1
 164 0 l 2,47,48
 164 -81 164 -81 82 -81 c 128,-1,49
 0 -81 0 -81 0 0 c 2,50,-1
 0 735 l 2,51,22
 0 1392 0 1392 656 1392 c 128,-1,23
EndSplineSet
Substitution2: "Single Substitution lookup 25 subtable" glyph297
Substitution2: "'fina' Terminal Forms in Mongolian lookup 2 subtable" gh.fina
Substitution2: "'medi' Medial Forms in Mongolian lookup 1 subtable" gh.medi
Substitution2: "Required Feature in Latin lookup 0 subtable" gh.init
EndChar

StartChar: g1.init
Encoding: 89 -1 89
Width: 1146
VWidth: 4095
GlyphClass: 2
Flags: W
LayerCount: 2
Fore
SplineSet
779 1759 m 0,0,1
 779 1716.9375 779 1716.9375 744 1671 c 1,2,3
 698.0625 1636 698.0625 1636 656 1636 c 0,4,5
 633 1636 633 1636 608 1648 c 0,6,7
 585 1655 585 1655 568 1671 c 0,8,9
 536 1713 536 1713 532 1759 c 1,10,11
 532 1805.8 532 1805.8 568 1849 c 1,12,13
 600.791666667 1881.79166667 600.791666667 1881.79166667 656 1884 c 0,14,15
 679 1884 679 1884 705 1876 c 1,16,17
 726 1864 726 1864 744 1849 c 0,18,19
 760 1833 760 1833 768 1808 c 1,20,21
 780 1785 780 1785 779 1759 c 0,0,1
656 1392 m 128,-1,23
 1312 1392 1312 1392 1312 735 c 2,24,-1
 1312 654 l 2,25,26
 1312 573 1312 573 1228 571 c 0,27,28
 1147 571 1147 571 1148 656 c 2,29,-1
 1148 735 l 2,30,31
 1148 1230.02469136 1148 1230.02469136 656 1228 c 0,32,33
 408 1228 408 1228 289 1104 c 1,34,35
 164 984 164 984 164 735 c 2,36,-1
 164 0 l 2,37,38
 164 -81 164 -81 82 -81 c 128,-1,39
 0 -81 0 -81 0 0 c 2,40,-1
 0 735 l 2,41,22
 0 1392 0 1392 656 1392 c 128,-1,23
EndSplineSet
Substitution2: "Single Substitution lookup 25 subtable" glyph298
EndChar

StartChar: gh.medi
Encoding: 90 -1 90
Width: 1146
VWidth: 4095
GlyphClass: 2
Flags: W
LayerCount: 2
Fore
SplineSet
779 1759 m 0,0,1
 779 1716.9375 779 1716.9375 744 1671 c 1,2,3
 698.0625 1636 698.0625 1636 656 1636 c 0,4,5
 633 1636 633 1636 608 1648 c 0,6,7
 585 1655 585 1655 568 1671 c 0,8,9
 536 1713 536 1713 532 1759 c 1,10,11
 532 1805.8 532 1805.8 568 1849 c 1,12,13
 600.791666667 1881.79166667 600.791666667 1881.79166667 656 1884 c 0,14,15
 679 1884 679 1884 705 1876 c 1,16,17
 726 1864 726 1864 744 1849 c 0,18,19
 760 1833 760 1833 768 1808 c 1,20,21
 780 1785 780 1785 779 1759 c 0,0,1
656 1392 m 128,-1,23
 1312 1392 1312 1392 1312 735 c 2,24,-1
 1312 654 l 2,25,26
 1312 573 1312 573 1228 571 c 0,27,28
 1147 571 1147 571 1148 656 c 2,29,-1
 1148 735 l 2,30,31
 1148 1230.02469136 1148 1230.02469136 656 1228 c 0,32,33
 408 1228 408 1228 289 1104 c 1,34,35
 164 984 164 984 164 735 c 2,36,-1
 164 492 l 1,37,38
 409 492 409 492 532 368 c 0,39,40
 657 243 657 243 656 0 c 0,41,42
 656 -81 656 -81 573 -81 c 128,-1,43
 490 -81 490 -81 492 0 c 0,44,45
 492 328 492 328 164 328 c 1,46,-1
 164 0 l 2,47,48
 164 -81 164 -81 82 -81 c 128,-1,49
 0 -81 0 -81 0 0 c 2,50,-1
 0 735 l 2,51,22
 0 1392 0 1392 656 1392 c 128,-1,23
EndSplineSet
Substitution2: "Single Substitution lookup 26 subtable" glyph309
Substitution2: "Single Substitution lookup 25 subtable" glyph303
EndChar

StartChar: g1.medi
Encoding: 91 -1 91
Width: 1146
VWidth: 4095
GlyphClass: 2
Flags: W
LayerCount: 2
Fore
SplineSet
779 1759 m 0,0,1
 779 1716.9375 779 1716.9375 744 1671 c 1,2,3
 698.0625 1636 698.0625 1636 656 1636 c 0,4,5
 633 1636 633 1636 608 1648 c 0,6,7
 585 1655 585 1655 568 1671 c 0,8,9
 536 1713 536 1713 532 1759 c 1,10,11
 532 1805.8 532 1805.8 568 1849 c 1,12,13
 600.791666667 1881.79166667 600.791666667 1881.79166667 656 1884 c 0,14,15
 679 1884 679 1884 705 1876 c 1,16,17
 726 1864 726 1864 744 1849 c 0,18,19
 760 1833 760 1833 768 1808 c 1,20,21
 780 1785 780 1785 779 1759 c 0,0,1
656 1392 m 128,-1,23
 1312 1392 1312 1392 1312 735 c 2,24,-1
 1312 654 l 2,25,26
 1312 573 1312 573 1228 571 c 0,27,28
 1147 571 1147 571 1148 656 c 2,29,-1
 1148 735 l 2,30,31
 1148 1230.02469136 1148 1230.02469136 656 1228 c 0,32,33
 408 1228 408 1228 289 1104 c 1,34,35
 164 984 164 984 164 735 c 2,36,-1
 164 0 l 2,37,38
 164 -81 164 -81 82 -81 c 128,-1,39
 0 -81 0 -81 0 0 c 2,40,-1
 0 735 l 2,41,22
 0 1392 0 1392 656 1392 c 128,-1,23
EndSplineSet
Substitution2: "Single Substitution lookup 26 subtable" glyph310
Substitution2: "Single Substitution lookup 25 subtable" glyph304
EndChar

StartChar: hh.isol
Encoding: 92 6253 92
Width: 1146
VWidth: 4095
GlyphClass: 2
Flags: W
LayerCount: 2
Fore
SplineSet
735 1720 m 0,0,1
 735 1762.61538462 735 1762.61538462 712 1775 c 1,2,3
 697.416666667 1800 697.416666667 1800 656 1800 c 0,4,5
 607 1800 607 1800 580 1752 c 0,6,7
 573 1736 573 1736 571 1720 c 0,8,9
 571 1693.33333333 571 1693.33333333 596 1660 c 1,10,11
 634.88 1637.32 634.88 1637.32 656 1636 c 0,12,13
 706 1636 706 1636 732 1688 c 1,14,15
 735 1704 735 1704 735 1720 c 0,0,1
899 1720 m 0,16,17
 899 1615 899 1615 827.5 1543.5 c 128,-1,18
 756 1472 756 1472 656 1472 c 0,19,20
 566.4 1472 566.4 1472 480 1544 c 1,21,22
 405.191381496 1630.49746515 405.191381496 1630.49746515 409 1720 c 0,23,24
 409 1817.41935484 409 1817.41935484 480 1893 c 0,25,26
 558.08 1971.08 558.08 1971.08 656 1967 c 1,27,28
 760.529411765 1967 760.529411765 1967 828 1893 c 1,29,30
 899 1831.59459459 899 1831.59459459 899 1720 c 0,16,17
656 1392 m 128,-1,32
 1312 1392 1312 1392 1312 735 c 2,33,-1
 1312 654 l 2,34,35
 1312 573 1312 573 1228 571 c 0,36,37
 1147 571 1147 571 1148 656 c 2,38,-1
 1148 735 l 2,39,40
 1148 1230.02469136 1148 1230.02469136 656 1228 c 0,41,42
 408 1228 408 1228 289 1104 c 1,43,44
 164 984 164 984 164 735 c 2,45,-1
 164 492 l 1,46,47
 409 492 409 492 532 368 c 0,48,49
 657 243 657 243 656 0 c 0,50,51
 656 -81 656 -81 573 -81 c 128,-1,52
 490 -81 490 -81 492 0 c 0,53,54
 492 328 492 328 164 328 c 1,55,-1
 164 0 l 2,56,57
 164 -81 164 -81 82 -81 c 128,-1,58
 0 -81 0 -81 0 0 c 2,59,-1
 0 735 l 2,60,31
 0 1392 0 1392 656 1392 c 128,-1,32
EndSplineSet
Substitution2: "Single Substitution lookup 25 subtable" glyph299
Substitution2: "'fina' Terminal Forms in Mongolian lookup 2 subtable" hh.fina
Substitution2: "'medi' Medial Forms in Mongolian lookup 1 subtable" hh.medi
Substitution2: "Required Feature in Latin lookup 0 subtable" hh.init
EndChar

StartChar: h1.init
Encoding: 93 -1 93
Width: 1146
VWidth: 4095
GlyphClass: 2
Flags: W
LayerCount: 2
Fore
SplineSet
735 1720 m 0,0,1
 735 1762.61538462 735 1762.61538462 712 1775 c 1,2,3
 697.416666667 1800 697.416666667 1800 656 1800 c 0,4,5
 607 1800 607 1800 580 1752 c 0,6,7
 573 1736 573 1736 571 1720 c 0,8,9
 571 1693.33333333 571 1693.33333333 596 1660 c 1,10,11
 634.88 1637.32 634.88 1637.32 656 1636 c 0,12,13
 706 1636 706 1636 732 1688 c 1,14,15
 735 1704 735 1704 735 1720 c 0,0,1
899 1720 m 0,16,17
 899 1615 899 1615 827.5 1543.5 c 128,-1,18
 756 1472 756 1472 656 1472 c 0,19,20
 566.4 1472 566.4 1472 480 1544 c 1,21,22
 405.191381496 1630.49746515 405.191381496 1630.49746515 409 1720 c 0,23,24
 409 1817.41935484 409 1817.41935484 480 1893 c 0,25,26
 558.08 1971.08 558.08 1971.08 656 1967 c 1,27,28
 760.529411765 1967 760.529411765 1967 828 1893 c 1,29,30
 899 1831.59459459 899 1831.59459459 899 1720 c 0,16,17
656 1392 m 128,-1,32
 1312 1392 1312 1392 1312 735 c 2,33,-1
 1312 654 l 2,34,35
 1312 573 1312 573 1228 571 c 0,36,37
 1147 571 1147 571 1148 656 c 2,38,-1
 1148 735 l 2,39,40
 1148 1230.02469136 1148 1230.02469136 656 1228 c 0,41,42
 408 1228 408 1228 289 1104 c 1,43,44
 164 984 164 984 164 735 c 2,45,-1
 164 0 l 2,46,47
 164 -81 164 -81 82 -81 c 128,-1,48
 0 -81 0 -81 0 0 c 2,49,-1
 0 735 l 2,50,31
 0 1392 0 1392 656 1392 c 128,-1,32
EndSplineSet
Substitution2: "Single Substitution lookup 25 subtable" glyph300
EndChar

StartChar: hh.medi
Encoding: 94 -1 94
Width: 654
VWidth: 4095
GlyphClass: 2
Flags: W
LayerCount: 2
Fore
SplineSet
735 1720 m 0,0,1
 735 1762.61538462 735 1762.61538462 712 1775 c 1,2,3
 697.416666667 1800 697.416666667 1800 656 1800 c 0,4,5
 607 1800 607 1800 580 1752 c 0,6,7
 573 1736 573 1736 571 1720 c 0,8,9
 571 1693.33333333 571 1693.33333333 596 1660 c 1,10,11
 634.88 1637.32 634.88 1637.32 656 1636 c 0,12,13
 706 1636 706 1636 732 1688 c 1,14,15
 735 1704 735 1704 735 1720 c 0,0,1
899 1720 m 0,16,17
 899 1615 899 1615 827.5 1543.5 c 128,-1,18
 756 1472 756 1472 656 1472 c 0,19,20
 566.4 1472 566.4 1472 480 1544 c 1,21,22
 405.191381496 1630.49746515 405.191381496 1630.49746515 409 1720 c 0,23,24
 409 1817.41935484 409 1817.41935484 480 1893 c 0,25,26
 558.08 1971.08 558.08 1971.08 656 1967 c 1,27,28
 760.529411765 1967 760.529411765 1967 828 1893 c 1,29,30
 899 1831.59459459 899 1831.59459459 899 1720 c 0,16,17
656 1392 m 128,-1,32
 1312 1392 1312 1392 1312 735 c 2,33,-1
 1312 654 l 2,34,35
 1312 573 1312 573 1228 571 c 0,36,37
 1147 571 1147 571 1148 656 c 2,38,-1
 1148 735 l 2,39,40
 1148 1230.02469136 1148 1230.02469136 656 1228 c 0,41,42
 408 1228 408 1228 289 1104 c 1,43,44
 164 984 164 984 164 735 c 2,45,-1
 164 492 l 1,46,47
 409 492 409 492 532 368 c 0,48,49
 657 243 657 243 656 0 c 0,50,51
 656 -81 656 -81 573 -81 c 128,-1,52
 490 -81 490 -81 492 0 c 0,53,54
 492 328 492 328 164 328 c 1,55,-1
 164 0 l 2,56,57
 164 -81 164 -81 82 -81 c 128,-1,58
 0 -81 0 -81 0 0 c 2,59,-1
 0 735 l 2,60,31
 0 1392 0 1392 656 1392 c 128,-1,32
EndSplineSet
Substitution2: "Single Substitution lookup 26 subtable" glyph311
Substitution2: "Single Substitution lookup 25 subtable" glyph305
EndChar

StartChar: h1.medi
Encoding: 95 -1 95
Width: 1146
VWidth: 4095
GlyphClass: 2
Flags: W
LayerCount: 2
Fore
SplineSet
735 1720 m 0,0,1
 735 1762.61538462 735 1762.61538462 712 1775 c 1,2,3
 697.416666667 1800 697.416666667 1800 656 1800 c 0,4,5
 607 1800 607 1800 580 1752 c 0,6,7
 573 1736 573 1736 571 1720 c 0,8,9
 571 1693.33333333 571 1693.33333333 596 1660 c 1,10,11
 634.88 1637.32 634.88 1637.32 656 1636 c 0,12,13
 706 1636 706 1636 732 1688 c 1,14,15
 735 1704 735 1704 735 1720 c 0,0,1
899 1720 m 0,16,17
 899 1615 899 1615 827.5 1543.5 c 128,-1,18
 756 1472 756 1472 656 1472 c 0,19,20
 566.4 1472 566.4 1472 480 1544 c 1,21,22
 405.191381496 1630.49746515 405.191381496 1630.49746515 409 1720 c 0,23,24
 409 1817.41935484 409 1817.41935484 480 1893 c 0,25,26
 558.08 1971.08 558.08 1971.08 656 1967 c 1,27,28
 760.529411765 1967 760.529411765 1967 828 1893 c 1,29,30
 899 1831.59459459 899 1831.59459459 899 1720 c 0,16,17
656 1392 m 128,-1,32
 1312 1392 1312 1392 1312 735 c 2,33,-1
 1312 654 l 2,34,35
 1312 573 1312 573 1228 571 c 0,36,37
 1147 571 1147 571 1148 656 c 2,38,-1
 1148 735 l 2,39,40
 1148 1230.02469136 1148 1230.02469136 656 1228 c 0,41,42
 408 1228 408 1228 289 1104 c 1,43,44
 164 984 164 984 164 735 c 2,45,-1
 164 0 l 2,46,47
 164 -81 164 -81 82 -81 c 128,-1,48
 0 -81 0 -81 0 0 c 2,49,-1
 0 735 l 2,50,31
 0 1392 0 1392 656 1392 c 128,-1,32
EndSplineSet
Substitution2: "Single Substitution lookup 26 subtable" glyph312
Substitution2: "Single Substitution lookup 25 subtable" glyph306
EndChar

StartChar: dz.isol
Encoding: 96 6255 96
Width: 1392
VWidth: 4095
GlyphClass: 2
Flags: W
LayerCount: 2
Fore
SplineSet
0 1392 m 2,0,-1
 656 1392 l 2,1,2
 737 1392 737 1392 736 1310.5 c 128,-1,3
 735 1229 735 1229 656 1228 c 2,4,-1
 557.07276599 1228 l 1,5,6
 684.441540273 1099.18968544 684.441540273 1099.18968544 809 976 c 0,7,8
 989 796 989 796 1044 735 c 1,9,-1
 1392 735 l 1,10,-1
 1472 656 l 1,11,-1
 1392 571 l 1,12,-1
 1148 571 l 1,13,-1
 1148 409 l 2,14,15
 1148 328 1148 328 1065 328 c 128,-1,16
 982 328 982 328 983 410 c 128,-1,17
 984 492 984 492 984 513 c 2,18,-1
 984 571 l 1,19,20
 848 707 848 707 628 929 c 0,21,22
 408 1149 408 1149 328 1228 c 1,23,-1
 164 1228 l 1,24,-1
 164 656 l 2,25,26
 164 573 164 573 81 571 c 0,27,28
 0 571 0 571 0 656 c 2,29,-1
 0 1228 l 1,30,31
 -81 1228 -81 1228 -81 1310 c 128,-1,32
 -81 1392 -81 1392 0 1392 c 2,0,-1
EndSplineSet
Substitution2: "Single Substitution lookup 30 subtable" dz1.init
Substitution2: "'fina' Terminal Forms in Mongolian lookup 2 subtable" dz.fina
Substitution2: "'medi' Medial Forms in Mongolian lookup 1 subtable" dz.medi
Substitution2: "Required Feature in Latin lookup 0 subtable" dz.init
EndChar

StartChar: dz1.init
Encoding: 97 -1 97
Width: 1067
VWidth: 4095
GlyphClass: 2
Flags: W
LayerCount: 2
Fore
SplineSet
0 1392 m 2,0,-1
 656 1392 l 2,1,2
 737 1392 737 1392 736 1310.5 c 128,-1,3
 735 1229 735 1229 656 1228 c 2,4,-1
 557.07276599 1228 l 1,5,6
 684.441540273 1099.18968544 684.441540273 1099.18968544 809 976 c 0,7,8
 989 796 989 796 1044 735 c 1,9,10
 1145.77540107 655.732620321 1145.77540107 655.732620321 1147.952415 655.952414996 c 1,11,-1
 1063 571 l 1,12,-1
 984 571 l 1,13,14
 848 707 848 707 628 929 c 0,15,16
 408 1149 408 1149 328 1228 c 1,17,-1
 164 1228 l 1,18,-1
 164 656 l 2,19,20
 164 573 164 573 81 571 c 0,21,22
 0 571 0 571 0 656 c 2,23,-1
 0 1228 l 1,24,25
 -81 1228 -81 1228 -81 1310 c 128,-1,26
 -81 1392 -81 1392 0 1392 c 2,0,-1
1147.952415 655.952414996 m 1,27,28
 1148 655.957219251 1148 655.957219251 1148 656 c 1,29,-1
 1147.952415 655.952414996 l 1,27,28
EndSplineSet
EndChar

StartChar: dz.fina
Encoding: 98 -1 98
Width: 1146
VWidth: 4095
GlyphClass: 2
Flags: W
LayerCount: 2
Fore
SplineSet
0 1392 m 2,0,-1
 656 1392 l 2,1,2
 737 1392 737 1392 736 1310.5 c 128,-1,3
 735 1229 735 1229 656 1228 c 2,4,-1
 524.45643424 1228 l 1,5,6
 546.29170432 1203.01874702 546.29170432 1203.01874702 571.14893617 1174.08510638 c 0,7,8
 642.765957447 1090.72340426 642.765957447 1090.72340426 908 788 c 0,9,10
 945 751 945 751 964 765 c 1,11,12
 987 772 987 772 984 800 c 2,13,-1
 984 1228 l 2,14,15
 984 1310 984 1310 1063 1312 c 0,16,17
 1146 1312 1146 1312 1148 1228 c 2,18,-1
 1148 612 l 1,19,20
 1144 524 1144 524 1068 504 c 0,21,22
 992 483 992 483 948 536 c 1,23,24
 879.179487179 598.564102564 879.179487179 598.564102564 725.58974359 769.282051282 c 128,-1,25
 572 940 572 940 402.5 1130 c 0,26,27
 353.819981976 1184.56757183 353.819981976 1184.56757183 314.419250329 1228 c 1,28,-1
 164 1228 l 1,29,-1
 164 409 l 2,30,31
 164 328 164 328 82 328 c 128,-1,32
 0 328 0 328 0 409 c 2,33,-1
 0 1228 l 1,34,35
 -81 1228 -81 1228 -81 1310 c 128,-1,36
 -81 1392 -81 1392 0 1392 c 2,0,-1
EndSplineSet
EndChar

StartChar: dz.medi
Encoding: 99 -1 99
Width: 1392
VWidth: 4095
GlyphClass: 2
Flags: W
LayerCount: 2
Fore
SplineSet
0 1392 m 2,0,-1
 656 1392 l 2,1,2
 737 1392 737 1392 736 1310.5 c 128,-1,3
 735 1229 735 1229 656 1228 c 2,4,-1
 557.07276599 1228 l 1,5,6
 684.441540273 1099.18968544 684.441540273 1099.18968544 809 976 c 0,7,8
 989 796 989 796 1044 735 c 1,9,-1
 1392 735 l 1,10,-1
 1472 656 l 1,11,-1
 1392 571 l 1,12,-1
 1148 571 l 1,13,-1
 1148 409 l 2,14,15
 1148 328 1148 328 1065 328 c 128,-1,16
 982 328 982 328 983 410 c 128,-1,17
 984 492 984 492 984 513 c 2,18,-1
 984 571 l 1,19,20
 848 707 848 707 628 929 c 0,21,22
 408 1149 408 1149 328 1228 c 1,23,-1
 164 1228 l 1,24,-1
 164 409 l 2,25,26
 164 328 164 328 82 328 c 128,-1,27
 0 328 0 328 0 409 c 2,28,-1
 0 1228 l 1,29,30
 -81 1228 -81 1228 -81 1310 c 128,-1,31
 -81 1392 -81 1392 0 1392 c 2,0,-1
EndSplineSet
Substitution2: "Single Substitution lookup 30 subtable" dz1.medi
Substitution2: "Single Substitution lookup 26 subtable" glyph324
Substitution2: "Single Substitution lookup 6 subtable" dz1.medi
EndChar

StartChar: dz1.medi
Encoding: 100 -1 100
Width: 1067
VWidth: 4095
GlyphClass: 2
Flags: W
LayerCount: 2
Fore
SplineSet
0 1392 m 2,0,-1
 656 1392 l 2,1,2
 737 1392 737 1392 736 1310.5 c 128,-1,3
 735 1229 735 1229 656 1228 c 2,4,-1
 557.07276599 1228 l 1,5,6
 684.441540273 1099.18968544 684.441540273 1099.18968544 809 976 c 0,7,8
 989 796 989 796 1044 735 c 1,9,10
 1145.77540107 655.732620321 1145.77540107 655.732620321 1147.952415 655.952414996 c 1,11,-1
 1063 571 l 1,12,-1
 984 571 l 1,13,14
 848 707 848 707 628 929 c 0,15,16
 408 1149 408 1149 328 1228 c 1,17,-1
 164 1228 l 1,18,-1
 164 409 l 2,19,20
 164 328 164 328 82 328 c 128,-1,21
 0 328 0 328 0 409 c 2,22,-1
 0 1228 l 1,23,24
 -81 1228 -81 1228 -81 1310 c 128,-1,25
 -81 1392 -81 1392 0 1392 c 2,0,-1
1147.952415 655.952414996 m 1,26,27
 1148 655.957219251 1148 655.957219251 1148 656 c 1,28,-1
 1147.952415 655.952414996 l 1,26,27
EndSplineSet
Substitution2: "Single Substitution lookup 26 subtable" glyph325
EndChar

StartChar: ts.isol
Encoding: 101 6254 101
Width: 1392
VWidth: 4095
GlyphClass: 2
Flags: W
LayerCount: 2
Fore
SplineSet
164 1556 m 2,0,1
 164 1639 164 1639 245 1641 c 0,2,3
 328 1641 328 1641 328 1557.5 c 2,4,-1
 328 1392 l 1,5,-1
 656 1392 l 2,6,7
 737 1392 737 1392 736 1310.5 c 128,-1,8
 735 1229 735 1229 656 1228 c 2,9,-1
 557.07276599 1228 l 1,10,11
 684.441540273 1099.18968544 684.441540273 1099.18968544 809 976 c 0,12,13
 989 796 989 796 1044 735 c 1,14,-1
 1392 735 l 1,15,-1
 1472 656 l 1,16,-1
 1392 571 l 1,17,-1
 1148 571 l 1,18,-1
 1148 409 l 2,19,20
 1148 328 1148 328 1065 328 c 128,-1,21
 982 328 982 328 983 410 c 128,-1,22
 984 492 984 492 984 513 c 2,23,-1
 984 571 l 1,24,25
 848 707 848 707 628 929 c 0,26,27
 408 1149 408 1149 328 1228 c 1,28,-1
 164 1228 l 1,29,-1
 164 656 l 2,30,31
 164 573 164 573 81 571 c 0,32,33
 0 571 0 571 0 656 c 2,34,-1
 0 1228 l 1,35,36
 -81 1228 -81 1228 -81 1310 c 128,-1,37
 -81 1392 -81 1392 0 1392 c 2,38,-1
 164 1392 l 1,39,-1
 164 1556 l 2,0,1
EndSplineSet
Substitution2: "'fina' Terminal Forms in Mongolian lookup 2 subtable" ts.fina
Substitution2: "'medi' Medial Forms in Mongolian lookup 1 subtable" ts.medi
Substitution2: "Required Feature in Latin lookup 0 subtable" ts.init
EndChar

StartChar: ts.medi
Encoding: 102 -1 102
Width: 1392
VWidth: 4095
GlyphClass: 2
Flags: W
LayerCount: 2
Fore
SplineSet
164 1556 m 2,0,1
 164 1639 164 1639 245 1641 c 0,2,3
 328 1641 328 1641 328 1557.5 c 2,4,-1
 328 1392 l 1,5,-1
 656 1392 l 2,6,7
 737 1392 737 1392 736 1310.5 c 128,-1,8
 735 1229 735 1229 656 1228 c 2,9,-1
 557.07276599 1228 l 1,10,11
 684.441540273 1099.18968544 684.441540273 1099.18968544 809 976 c 0,12,13
 989 796 989 796 1044 735 c 1,14,-1
 1392 735 l 1,15,-1
 1472 656 l 1,16,-1
 1392 571 l 1,17,-1
 1148 571 l 1,18,-1
 1148 409 l 2,19,20
 1148 328 1148 328 1065 328 c 128,-1,21
 982 328 982 328 983 410 c 128,-1,22
 984 492 984 492 984 513 c 2,23,-1
 984 571 l 1,24,25
 848 707 848 707 628 929 c 0,26,27
 408 1149 408 1149 328 1228 c 1,28,-1
 164 1228 l 1,29,-1
 164 409 l 2,30,31
 164 328 164 328 82 328 c 128,-1,32
 0 328 0 328 0 409 c 2,33,-1
 0 1228 l 1,34,35
 -81 1228 -81 1228 -81 1310 c 128,-1,36
 -81 1392 -81 1392 0 1392 c 2,37,-1
 164 1392 l 1,38,-1
 164 1556 l 2,0,1
EndSplineSet
Substitution2: "Single Substitution lookup 26 subtable" glyph326
EndChar

StartChar: s.isol
Encoding: 103 6192 103
Width: 1477
VWidth: 4095
GlyphClass: 2
Flags: W
LayerCount: 2
Fore
SplineSet
0 656 m 2,0,-1
 0 1560 l 2,1,2
 0 1676 0 1676 97 1712 c 0,3,4
 137 1724 137 1724 178 1724 c 128,-1,5
 219 1724 219 1724 256 1692 c 1,6,7
 444 1500 444 1500 756 1148 c 128,-1,8
 1068 796 1068 796 1128 735 c 1,9,-1
 1477 735 l 1,10,-1
 1557 656 l 1,11,-1
 1477 571 l 1,12,-1
 1228 571 l 1,13,-1
 1228 409 l 2,14,15
 1228 328 1228 328 1146.5 328 c 128,-1,16
 1065 328 1065 328 1063 409 c 2,17,-1
 1063 571 l 1,18,19
 927 707 927 707 636 1044 c 1,20,21
 340 1377 340 1377 259 1456 c 0,22,23
 236 1484 236 1484 201 1477 c 0,24,25
 164 1470 164 1470 164 1440 c 2,26,-1
 164 656 l 2,27,28
 164 573 164 573 81 571 c 0,29,30
 0 571 0 571 0 656 c 2,0,-1
EndSplineSet
Substitution2: "'fina' Terminal Forms in Mongolian lookup 2 subtable" s.fina
Substitution2: "'medi' Medial Forms in Mongolian lookup 1 subtable" s.medi
Substitution2: "Required Feature in Latin lookup 0 subtable" s.init
EndChar

StartChar: s.fina
Encoding: 104 -1 104
Width: 1231
VWidth: 4095
GlyphClass: 2
Flags: W
LayerCount: 2
Fore
SplineSet
1068 883 m 2,0,-1
 1063 1312 l 2,1,2
 1063 1393 1063 1393 1146 1392.5 c 128,-1,3
 1229 1392 1229 1392 1228 1312 c 2,4,-1
 1228 696 l 2,5,6
 1228 608 1228 608 1151 584 c 0,7,8
 1075 563 1075 563 1028 617 c 1,9,10
 892 753 892 753 617 1063 c 0,11,12
 342 1375 342 1375 259 1456 c 0,13,14
 236 1484 236 1484 201 1477 c 0,15,16
 164 1470 164 1470 164 1440 c 2,17,-1
 164 409 l 2,18,19
 164 328 164 328 82 328 c 128,-1,20
 0 328 0 328 0 409 c 2,21,-1
 0 1560 l 2,22,23
 0 1676 0 1676 97 1712 c 0,24,25
 137 1724 137 1724 178 1724 c 128,-1,26
 219 1724 219 1724 256 1692 c 1,27,28
 408 1537 408 1537 645 1269 c 1,29,30
 876 1001 876 1001 992 869 c 0,31,32
 1024 837 1024 837 1047 844 c 0,33,34
 1068 851 1068 851 1068 883 c 2,0,-1
EndSplineSet
EndChar

StartChar: s.medi
Encoding: 105 -1 105
Width: 1477
VWidth: 4095
GlyphClass: 2
Flags: W
LayerCount: 2
Fore
SplineSet
0 409 m 2,0,-1
 0 1560 l 2,1,2
 0 1676 0 1676 97 1712 c 0,3,4
 137 1724 137 1724 178 1724 c 128,-1,5
 219 1724 219 1724 256 1692 c 1,6,7
 444 1500 444 1500 756 1148 c 128,-1,8
 1068 796 1068 796 1128 735 c 1,9,-1
 1477 735 l 1,10,-1
 1557 656 l 1,11,-1
 1477 571 l 1,12,-1
 1228 571 l 1,13,-1
 1228 409 l 2,14,15
 1228 328 1228 328 1146.5 328 c 128,-1,16
 1065 328 1065 328 1063 409 c 2,17,-1
 1063 571 l 1,18,19
 927 707 927 707 636 1044 c 1,20,21
 340 1377 340 1377 259 1456 c 0,22,23
 236 1484 236 1484 201 1477 c 0,24,25
 164 1470 164 1470 164 1440 c 2,26,-1
 164 409 l 2,27,28
 164 328 164 328 82 328 c 128,-1,29
 0 328 0 328 0 409 c 2,0,-1
EndSplineSet
Substitution2: "Single Substitution lookup 26 subtable" glyph327
EndChar

StartChar: j.isol
Encoding: 106 6197 106
Width: 409
VWidth: 4095
GlyphClass: 2
Flags: W
LayerCount: 2
Fore
SplineSet
409 571 m 1,0,-1
 164 571 l 1,1,-1
 164 0 l 2,2,3
 164 -81 164 -81 82 -81 c 128,-1,4
 0 -81 0 -81 0 0 c 2,5,-1
 0 735 l 1,6,-1
 409 735 l 1,7,-1
 489 656 l 1,8,-1
 409 571 l 1,0,-1
EndSplineSet
Substitution2: "'fina' Terminal Forms in Mongolian lookup 2 subtable" j.fina
Substitution2: "'medi' Medial Forms in Mongolian lookup 1 subtable" j.medi
Substitution2: "Required Feature in Latin lookup 0 subtable" j.init
EndChar

StartChar: j.medi
Encoding: 107 -1 107
Width: 656
VWidth: 4095
GlyphClass: 2
Flags: W
LayerCount: 2
Fore
SplineSet
245 571 m 1,0,-1
 0 571 l 1,1,-1
 0 735 l 1,2,-1
 656 735 l 1,3,-1
 736 656 l 1,4,-1
 656 571 l 1,5,-1
 409 571 l 1,6,7
 409 243 409 243 245 82 c 128,-1,8
 81 -79 81 -79 -245 -81 c 0,9,10
 -328 -81 -328 -81 -328 0 c 128,-1,11
 -328 81 -328 81 -245 81 c 0,12,13
 245 81 245 81 245 571 c 1,0,-1
EndSplineSet
EndChar

StartChar: c.isol
Encoding: 108 6196 108
Width: 984
VWidth: 4095
GlyphClass: 2
Flags: W
LayerCount: 2
Fore
SplineSet
0 81 m 2,0,-1
 410 81 l 2,1,2
 573.05 81 573.05 81 571 245 c 2,3,-1
 571 571 l 1,4,-1
 0 571 l 2,5,6
 -81 571 -81 571 -81 655.5 c 128,-1,7
 -81 740 -81 740 0 735 c 1,8,9
 379 731 379 731 379 733 c 128,-1,10
 379 735 379 735 984 735 c 1,11,-1
 1064 656 l 1,12,-1
 984 571 l 1,13,-1
 735 571 l 1,14,-1
 735 245 l 2,15,16
 735 -81 735 -81 409 -81 c 2,17,-1
 0 -81 l 2,18,19
 -81 -81 -81 -81 -81 0 c 128,-1,20
 -81 81 -81 81 0 81 c 2,0,-1
EndSplineSet
Substitution2: "'fina' Terminal Forms in Mongolian lookup 2 subtable" c.fina
Substitution2: "'medi' Medial Forms in Mongolian lookup 1 subtable" c.medi
Substitution2: "Required Feature in Latin lookup 0 subtable" c.init
EndChar

StartChar: c.medi
Encoding: 109 -1 109
Width: 984
VWidth: 4095
GlyphClass: 2
Flags: W
LayerCount: 2
Fore
SplineSet
0 81 m 2,0,-1
 410 81 l 2,1,2
 573.05 81 573.05 81 571 245 c 2,3,-1
 571 571 l 1,4,-1
 0 571 l 2,5,6
 -81 571 -81 571 -81 655.5 c 128,-1,7
 -81 740 -81 740 0 735 c 1,8,9
 379 731 379 731 379 733 c 128,-1,10
 379 735 379 735 984 735 c 1,11,-1
 1064 656 l 1,12,-1
 984 571 l 1,13,-1
 735 571 l 1,14,-1
 735 245 l 2,15,16
 735 -81 735 -81 409 -81 c 2,17,-1
 0 -81 l 2,18,19
 -81 -81 -81 -81 -81 0 c 128,-1,20
 -81 81 -81 81 0 81 c 2,0,-1
EndSplineSet
EndChar

StartChar: x.isol
Encoding: 110 6247 110
Width: 1556
VWidth: 4095
GlyphClass: 2
Flags: W
LayerCount: 2
Fore
SplineSet
1033 81 m 0,0,1
 1033 735 1033 735 377 735 c 0,2,3
 294 735 294 735 294 653 c 128,-1,4
 294 571 294 571 377 571 c 0,5,6
 869 575 869 575 869 81 c 0,7,8
 869 0 869 0 951 0 c 128,-1,9
 1033 0 1033 0 1033 81 c 0,0,1
0 1597 m 2,10,-1
 0 656 l 2,11,12
 0 571 0 571 82 571 c 128,-1,13
 164 571 164 571 164 656 c 2,14,-1
 164 1477 l 2,15,16
 163 1505 163 1505 201 1512 c 0,17,18
 227 1517 227 1517 256 1488 c 0,19,20
 405 1339 405 1339 744.5 989 c 128,-1,21
 1084 639 1084 639 1148 571 c 1,22,-1
 1148 409 l 2,23,24
 1147 328 1147 328 1229.5 328 c 128,-1,25
 1312 328 1312 328 1312 409 c 2,26,-1
 1312 571 l 1,27,-1
 1556 571 l 1,28,-1
 1636 656 l 1,29,-1
 1556 735 l 1,30,-1
 1208 735 l 1,31,32
 1199 745 1199 745 752.5 1209.5 c 128,-1,33
 306 1674 306 1674 264 1716 c 0,34,35
 195 1785 195 1785 97.5 1746 c 128,-1,36
 0 1707 0 1707 0 1597 c 2,10,-1
EndSplineSet
Substitution2: "'fina' Terminal Forms in Mongolian lookup 2 subtable" x.fina
Substitution2: "'medi' Medial Forms in Mongolian lookup 1 subtable" x.medi
Substitution2: "Required Feature in Latin lookup 0 subtable" x.init
EndChar

StartChar: x.fina
Encoding: 111 -1 111
Width: 1231
VWidth: 4095
GlyphClass: 2
Flags: W
LayerCount: 2
Fore
SplineSet
0 409 m 2,0,-1
 0 1560 l 2,1,2
 0 1676 0 1676 97 1712 c 0,3,4
 137 1724 137 1724 178 1724 c 128,-1,5
 219 1724 219 1724 256 1692 c 1,6,7
 408 1537 408 1537 645 1269 c 1,8,9
 876 1001 876 1001 992 869 c 0,10,11
 1024 837 1024 837 1047 844 c 0,12,13
 1068 851 1068 851 1068 883 c 0,14,15
 1068 994 1068 994 1065.5 1033 c 128,-1,16
 1063 1072 1063 1072 1063 1312 c 0,17,18
 1063 1393 1063 1393 1146 1392.5 c 128,-1,19
 1229 1392 1229 1392 1228 1312 c 2,20,-1
 1228 696 l 2,21,22
 1228 608 1228 608 1151 584 c 0,23,24
 1075 563 1075 563 1028 617 c 1,25,26
 892 753 892 753 617 1063 c 0,27,28
 342 1375 342 1375 259 1456 c 0,29,30
 236 1484 236 1484 201 1477 c 0,31,32
 164 1470 164 1470 164 1440 c 2,33,-1
 164 409 l 2,34,35
 164 328 164 328 82 328 c 128,-1,36
 0 328 0 328 0 409 c 2,0,-1
1033 81 m 0,37,38
 1033 735 1033 735 377 735 c 0,39,40
 294 735 294 735 294 653 c 128,-1,41
 294 571 294 571 377 571 c 0,42,43
 869 575 869 575 869 81 c 0,44,45
 869 0 869 0 951 0 c 128,-1,46
 1033 0 1033 0 1033 81 c 0,37,38
EndSplineSet
EndChar

StartChar: x.medi
Encoding: 112 -1 112
Width: 1555
VWidth: 4095
GlyphClass: 2
Flags: W
LayerCount: 2
Fore
SplineSet
0 409 m 2,0,-1
 0 1597 l 1,1,2
 -4 1708 -4 1708 97 1745 c 0,3,4
 193.144578313 1783.45783133 193.144578313 1783.45783133 256 1724 c 0,5,6
 444 1532 444 1532 797.5 1164.5 c 128,-1,7
 1151 797 1151 797 1208 735 c 1,8,-1
 1555 735 l 1,9,-1
 1556 735 l 1,10,-1
 1556 734.0125 l 1,11,-1
 1635 656 l 1,12,-1
 1556 572.0625 l 1,13,-1
 1556 571 l 1,14,-1
 1555 571 l 1,15,-1
 1312 571 l 1,16,-1
 1312 409 l 2,17,18
 1312 328 1312 328 1229.5 328 c 128,-1,19
 1147 328 1147 328 1147.5 410 c 128,-1,20
 1148 492 1148 492 1148 513 c 2,21,-1
 1148 571 l 1,22,23
 1012 707 1012 707 676 1058.5 c 128,-1,24
 340 1410 340 1410 256 1488 c 1,25,26
 233 1520 233 1520 201 1512 c 0,27,28
 164 1505 164 1505 164 1477 c 2,29,-1
 164 409 l 2,30,31
 164 328 164 328 82 328 c 128,-1,32
 0 328 0 328 0 409 c 2,0,-1
1033 81 m 0,33,34
 1033 735 1033 735 377 735 c 0,35,36
 294 735 294 735 294 653 c 128,-1,37
 294 571 294 571 377 571 c 0,38,39
 869 575 869 575 869 81 c 0,40,41
 869 0 869 0 951 0 c 128,-1,42
 1033 0 1033 0 1033 81 c 0,33,34
EndSplineSet
Substitution2: "Single Substitution lookup 26 subtable" glyph328
EndChar

StartChar: rh.isol
Encoding: 113 6256 113
Width: 409
VWidth: 4095
GlyphClass: 2
Flags: W
LayerCount: 2
Fore
SplineSet
0 0 m 2,0,1
 0 -81 0 -81 82 -81 c 128,-1,2
 164 -81 164 -81 164 0 c 2,3,-1
 164 571 l 1,4,-1
 409 571 l 1,5,-1
 489 656 l 1,6,-1
 409 735 l 1,7,-1
 164 735 l 1,8,-1
 164 1312 l 2,9,10
 164 1393 164 1393 82 1392.5 c 128,-1,11
 0 1392 0 1392 0 1312 c 2,12,-1
 0 0 l 2,0,1
EndSplineSet
Substitution2: "'fina' Terminal Forms in Mongolian lookup 2 subtable" rh.fina
Substitution2: "'medi' Medial Forms in Mongolian lookup 1 subtable" rh.medi
Substitution2: "Required Feature in Latin lookup 0 subtable" rh.init
EndChar

StartChar: rh.medi
Encoding: 114 -1 114
Width: 409
VWidth: 4095
GlyphClass: 2
Flags: W
LayerCount: 2
Fore
SplineSet
0 0 m 2,0,1
 0 -81 0 -81 82 -81 c 128,-1,2
 164 -81 164 -81 164 0 c 2,3,-1
 164 571 l 1,4,-1
 409 571 l 1,5,-1
 489 656 l 1,6,-1
 409 735 l 1,7,-1
 164 735 l 1,8,-1
 164 1312 l 2,9,10
 164 1393 164 1393 82 1392.5 c 128,-1,11
 0 1392 0 1392 0 1312 c 2,12,-1
 0 0 l 2,0,1
EndSplineSet
EndChar

StartChar: r.isol
Encoding: 115 6261 115
Width: 656
VWidth: 4095
GlyphClass: 2
Flags: W
LayerCount: 2
Fore
SplineSet
164 164 m 1,0,-1
 164 0 l 2,1,2
 164 -81 164 -81 82 -81 c 128,-1,3
 0 -81 0 -81 0 0 c 2,4,-1
 0 735 l 1,5,-1
 656 735 l 1,6,-1
 736 656 l 1,7,-1
 656 571 l 1,8,-1
 164 571 l 1,9,-1
 164 328 l 1,10,11
 409 328 409 328 532 204 c 0,12,13
 657 79 657 79 656 -164 c 0,14,15
 656 -245 656 -245 573 -245 c 128,-1,16
 490 -245 490 -245 492 -164 c 0,17,18
 492 164 492 164 164 164 c 1,0,-1
EndSplineSet
Substitution2: "'fina' Terminal Forms in Mongolian lookup 2 subtable" r.fina
Substitution2: "'medi' Medial Forms in Mongolian lookup 1 subtable" r.medi
Substitution2: "Required Feature in Latin lookup 0 subtable" r.init
EndChar

StartChar: rs.fina
Encoding: 116 -1 116
Width: 1311
VWidth: 4095
GlyphClass: 2
Flags: W
LayerCount: 2
Fore
SplineSet
656 1392 m 128,-1,1
 1312 1392 1312 1392 1312 735 c 2,2,-1
 1312 654 l 2,3,4
 1312 573 1312 573 1228 571 c 0,5,6
 1147 571 1147 571 1148 656 c 2,7,-1
 1148 735 l 2,8,9
 1148 1230.02469136 1148 1230.02469136 656 1228 c 0,10,11
 408 1228 408 1228 289 1104 c 1,12,13
 164 984 164 984 164 735 c 2,14,-1
 164 409 l 1,15,16
 658 409 658 409 656 -81 c 0,17,18
 656 -164 656 -164 573 -164 c 128,-1,19
 490 -164 490 -164 492 -81 c 0,20,21
 492 245 492 245 164 245 c 1,22,-1
 164 0 l 2,23,24
 164 -81 164 -81 82 -81 c 128,-1,25
 0 -81 0 -81 0 0 c 2,26,-1
 0 735 l 2,27,0
 0 1392 0 1392 656 1392 c 128,-1,1
EndSplineSet
EndChar

StartChar: r.fina
Encoding: 117 -1 117
Width: 1312
VWidth: 4095
GlyphClass: 2
Flags: W
LayerCount: 2
Fore
SplineSet
1148 81 m 0,0,1
 1148 575.049382716 1148 575.049382716 656 571 c 1,2,-1
 164 571 l 1,3,-1
 164 328 l 1,4,5
 409 328 409 328 532 204 c 0,6,7
 657 79 657 79 656 -164 c 0,8,9
 656 -245 656 -245 573 -245 c 128,-1,10
 490 -245 490 -245 492 -164 c 0,11,12
 492 164 492 164 164 164 c 1,13,-1
 164 0 l 2,14,15
 164 -81 164 -81 82 -81 c 128,-1,16
 0 -81 0 -81 0 0 c 2,17,-1
 0 735 l 1,18,-1
 656 735 l 2,19,20
 1312 735 1312 735 1312 81 c 0,21,22
 1312 0 1312 0 1229.5 0 c 128,-1,23
 1147 0 1147 0 1148 81 c 0,0,1
EndSplineSet
EndChar

StartChar: r.medi
Encoding: 118 -1 118
Width: 656
VWidth: 4095
GlyphClass: 2
Flags: W
LayerCount: 2
Fore
SplineSet
164 164 m 1,0,-1
 164 0 l 2,1,2
 164 -81 164 -81 82 -81 c 128,-1,3
 0 -81 0 -81 0 0 c 2,4,-1
 0 735 l 1,5,-1
 656 735 l 1,6,-1
 736 656 l 1,7,-1
 656 571 l 1,8,-1
 164 571 l 1,9,-1
 164 328 l 1,10,11
 409 328 409 328 532 204 c 0,12,13
 657 79 657 79 656 -164 c 0,14,15
 656 -245 656 -245 573 -245 c 128,-1,16
 490 -245 490 -245 492 -164 c 0,17,18
 492 164 492 164 164 164 c 1,0,-1
EndSplineSet
Substitution2: "Single Substitution lookup 26 subtable" glyph333
EndChar

StartChar: y.isol
Encoding: 119 6198 119
Width: 735
VWidth: 4095
GlyphClass: 2
Flags: W
LayerCount: 2
Fore
SplineSet
328 -245 m 2,0,-1
 328 735 l 1,1,-1
 735 735 l 1,2,-1
 815 656 l 1,3,-1
 735 571 l 1,4,-1
 492 571 l 1,5,-1
 492 -245 l 2,6,7
 492 -575 492 -575 164 -571 c 1,8,-1
 0 -571 l 2,9,10
 -81 -571 -81 -571 -81 -490 c 128,-1,11
 -81 -409 -81 -409 0 -409 c 2,12,-1
 164.987951807 -409 l 2,13,14
 329.975903614 -409 329.975903614 -409 328 -245 c 2,0,-1
EndSplineSet
Substitution2: "Single Subs wide y-1" y.long
Substitution2: "'fina' Terminal Forms in Mongolian lookup 2 subtable" y.fina
Substitution2: "'medi' Medial Forms in Mongolian lookup 1 subtable" y.medi
Substitution2: "Required Feature in Latin lookup 0 subtable" y.init
EndChar

StartChar: y.medi
Encoding: 120 -1 120
Width: 407
VWidth: 4095
GlyphClass: 2
Flags: W
LayerCount: 2
Fore
SplineSet
0 -245 m 2,0,-1
 0 735 l 1,1,-1
 407 735 l 1,2,-1
 487 656 l 1,3,-1
 407 571 l 1,4,-1
 164 571 l 1,5,-1
 164 -245 l 2,6,7
 164 -575 164 -575 -164 -571 c 1,8,-1
 -328 -571 l 2,9,10
 -409 -571 -409 -571 -409 -490 c 128,-1,11
 -409 -409 -409 -409 -328 -409 c 2,12,-1
 -163.012048193 -409 l 2,13,14
 1.97590361446 -409 1.97590361446 -409 0 -245 c 2,0,-1
EndSplineSet
Substitution2: "Single Subs wide y-1" y.long
Substitution2: "Single Substitution lookup 26 subtable" glyph335
EndChar

StartChar: w.isol
Encoding: 121 6200 121
Width: 409
VWidth: 4095
GlyphClass: 2
Flags: W
LayerCount: 2
Fore
SplineSet
409 571 m 1,0,-1
 164 571 l 1,1,-1
 164 -245 l 2,2,3
 164 -328 164 -328 204 -368 c 128,-1,4
 244 -408 244 -408 326.5 -408.5 c 2,5,-1
 409 -409 l 2,6,7
 492 -409 492 -409 492 -491 c 128,-1,8
 492 -573 492 -573 410 -572 c 2,9,-1
 328 -571 l 2,10,11
 164 -571 164 -571 81 -492 c 1,12,13
 0 -409 0 -409 0 -245 c 2,14,-1
 0 735 l 1,15,-1
 409 735 l 1,16,-1
 489 656 l 1,17,-1
 409 571 l 1,0,-1
EndSplineSet
Substitution2: "'fina' Terminal Forms in Mongolian lookup 2 subtable" w.fina
Substitution2: "'medi' Medial Forms in Mongolian lookup 1 subtable" w.medi
Substitution2: "Required Feature in Latin lookup 0 subtable" w.init
EndChar

StartChar: w.medi
Encoding: 122 -1 122
Width: 409
VWidth: 4095
GlyphClass: 2
Flags: W
LayerCount: 2
Fore
SplineSet
409 571 m 1,0,-1
 164 571 l 1,1,-1
 164 -245 l 2,2,3
 164 -328 164 -328 204 -368 c 128,-1,4
 244 -408 244 -408 326.5 -408.5 c 2,5,-1
 409 -409 l 2,6,7
 492 -409 492 -409 492 -491 c 128,-1,8
 492 -573 492 -573 410 -572 c 2,9,-1
 328 -571 l 2,10,11
 164 -571 164 -571 81 -492 c 1,12,13
 0 -409 0 -409 0 -245 c 2,14,-1
 0 735 l 1,15,-1
 409 735 l 1,16,-1
 489 656 l 1,17,-1
 409 571 l 1,0,-1
EndSplineSet
Substitution2: "Single Substitution lookup 26 subtable" glyph336
EndChar

StartChar: ngs.isol
Encoding: 123 6242 123
Width: 1227
VWidth: 4095
GlyphClass: 2
Flags: W
LayerCount: 2
Fore
SplineSet
571 571 m 1,0,-1
 571 409 l 2,1,2
 571 328 571 328 490 328 c 128,-1,3
 409 328 409 328 409 409 c 2,4,-1
 409 571 l 1,5,-1
 164 571 l 1,6,-1
 164 409 l 2,7,8
 164 328 164 328 82 328 c 128,-1,9
 0 328 0 328 0 410 c 2,10,-1
 0 735 l 1,11,-1
 409 735 l 1,12,-1
 571 735 l 2,13,14
 1225.99386503 735 1225.99386503 735 1228 81 c 0,15,16
 1228 -243 1228 -243 1063 -409 c 0,17,18
 899 -573 899 -573 571 -571 c 0,19,20
 490 -571 490 -571 491 -490 c 128,-1,21
 492 -409 492 -409 571 -409 c 0,22,23
 819 -409 819 -409 943 -289 c 1,24,25
 1063 -164 1063 -164 1063 82.5 c 128,-1,26
 1063 329 1063 329 943 453 c 1,27,28
 818 573 818 573 571 571 c 1,0,-1
EndSplineSet
Substitution2: "'fina' Terminal Forms in Mongolian lookup 2 subtable" ngs.fina
Substitution2: "'medi' Medial Forms in Mongolian lookup 1 subtable" ngs.medi
Substitution2: "Required Feature in Latin lookup 0 subtable" ngs.init
EndChar

StartChar: ng.isol
Encoding: 124 6185 124
Width: 1227
VWidth: 4095
GlyphClass: 2
Flags: W
LayerCount: 2
Fore
SplineSet
571 571 m 1,0,-1
 571 0 l 2,1,2
 571 -81 571 -81 490 -81 c 128,-1,3
 409 -81 409 -81 409 0 c 2,4,-1
 409 571 l 1,5,-1
 164 571 l 1,6,-1
 164 409 l 2,7,8
 164 328 164 328 82 328 c 128,-1,9
 0 328 0 328 0 410 c 2,10,-1
 0 735 l 1,11,-1
 409 735 l 1,12,-1
 571 735 l 2,13,14
 1225.99386503 735 1225.99386503 735 1228 81 c 0,15,16
 1228 -243 1228 -243 1063 -409 c 0,17,18
 899 -573 899 -573 571 -571 c 0,19,20
 490 -571 490 -571 491 -490 c 128,-1,21
 492 -409 492 -409 571 -409 c 0,22,23
 819 -409 819 -409 943 -289 c 1,24,25
 1063 -164 1063 -164 1063 82.5 c 128,-1,26
 1063 329 1063 329 943 453 c 1,27,28
 818 573 818 573 571 571 c 1,0,-1
EndSplineSet
Substitution2: "'fina' Terminal Forms in Mongolian lookup 2 subtable" ng.fina
Substitution2: "'medi' Medial Forms in Mongolian lookup 1 subtable" ng.medi
Substitution2: "Required Feature in Latin lookup 0 subtable" ng.init
EndChar

StartChar: ng.init
Encoding: 125 -1 125
Width: 1217
VWidth: 4086
GlyphClass: 2
Flags: W
LayerCount: 2
Fore
SplineSet
407 571 m 1,0,-1
 163 571 l 1,1,-1
 163 407 l 2,2,3
 163 329 163 329 81.5 329.5 c 128,-1,4
 0 330 0 330 0 407 c 2,5,-1
 0 735 l 1,6,-1
 407 735 l 1,7,8
 407 1065 407 1065 533 1187 c 0,9,10
 656 1310 656 1310 903 1310 c 128,-1,11
 1150 1310 1150 1310 1266 1146 c 1,12,13
 1389 983 1389 983 1389 735 c 2,14,-1
 1389 655 l 2,15,16
 1389 575 1389 575 1310 571 c 1,17,18
 1227 571 1227 571 1228 658 c 2,19,-1
 1228 735 l 2,20,21
 1228 898 1228 898 1146 1025 c 0,22,23
 1063 1148 1063 1148 901 1146 c 0,24,25
 738 1146 738 1146 656.5 1066.5 c 128,-1,26
 575 987 575 987 571 735 c 1,27,-1
 571 0 l 2,28,29
 572 -79 572 -79 490.5 -79 c 128,-1,30
 409 -79 409 -79 407 0 c 2,31,-1
 407 571 l 1,0,-1
EndSplineSet
Substitution2: "Single Substitution lookup 24 subtable" glyph319
EndChar

StartChar: jh.isol
Encoding: 126 6263 126
Width: 409
VWidth: 4095
GlyphClass: 2
Flags: W
LayerCount: 2
Fore
SplineSet
245 1228 m 0,0,1
 245 1278.05882353 245 1278.05882353 196 1304 c 0,2,3
 180 1310 180 1310 164 1312 c 0,4,5
 136 1312 136 1312 104 1288 c 1,6,7
 81 1248.57142857 81 1248.57142857 81 1228 c 0,8,9
 81 1179.6875 81 1179.6875 132 1151 c 1,10,11
 148 1147 148 1147 164 1148 c 0,12,13
 206.285714286 1148 206.285714286 1148 220 1172 c 1,14,15
 245 1186.58333333 245 1186.58333333 245 1228 c 0,0,1
412 1228 m 0,16,17
 412 1122.59459459 412 1122.59459459 335 1056 c 1,18,19
 272.72972973 984 272.72972973 984 164 984 c 0,20,21
 116 984 116 984 67 1000 c 1,22,23
 -26.2465437788 1044.50403226 -26.2465437788 1044.50403226 -64 1137 c 0,24,25
 -85 1181 -85 1181 -83 1228 c 0,26,27
 -83 1322.83870968 -83 1322.83870968 -12 1403 c 1,28,29
 73.5625 1477 73.5625 1477 164 1477 c 0,30,31
 263.3125 1477 263.3125 1477 335 1403 c 0,32,33
 415.92 1322.08 415.92 1322.08 412 1228 c 0,16,17
409 571 m 1,34,-1
 164 571 l 1,35,-1
 164 0 l 2,36,37
 164 -81 164 -81 82 -81 c 128,-1,38
 0 -81 0 -81 0 0 c 2,39,-1
 0 735 l 1,40,-1
 409 735 l 1,41,-1
 489 656 l 1,42,-1
 409 571 l 1,34,-1
EndSplineSet
Substitution2: "'fina' Terminal Forms in Mongolian lookup 2 subtable" jh.fina
Substitution2: "'medi' Medial Forms in Mongolian lookup 1 subtable" jh.medi
Substitution2: "Required Feature in Latin lookup 0 subtable" jh.init
EndChar

StartChar: jh.medi
Encoding: 127 -1 127
Width: 409
VWidth: 4095
GlyphClass: 2
Flags: W
LayerCount: 2
Fore
SplineSet
245 1228 m 0,0,1
 245 1278.05882353 245 1278.05882353 196 1304 c 0,2,3
 180 1310 180 1310 164 1312 c 0,4,5
 136 1312 136 1312 104 1288 c 1,6,7
 81 1248.57142857 81 1248.57142857 81 1228 c 0,8,9
 81 1179.6875 81 1179.6875 132 1151 c 1,10,11
 148 1147 148 1147 164 1148 c 0,12,13
 206.285714286 1148 206.285714286 1148 220 1172 c 1,14,15
 245 1186.58333333 245 1186.58333333 245 1228 c 0,0,1
412 1228 m 0,16,17
 412 1122.59459459 412 1122.59459459 335 1056 c 1,18,19
 272.72972973 984 272.72972973 984 164 984 c 0,20,21
 116 984 116 984 67 1000 c 1,22,23
 -26.2465437788 1044.50403226 -26.2465437788 1044.50403226 -64 1137 c 0,24,25
 -85 1181 -85 1181 -83 1228 c 0,26,27
 -83 1322.83870968 -83 1322.83870968 -12 1403 c 1,28,29
 73.5625 1477 73.5625 1477 164 1477 c 0,30,31
 263.3125 1477 263.3125 1477 335 1403 c 0,32,33
 415.92 1322.08 415.92 1322.08 412 1228 c 0,16,17
409 571 m 1,34,-1
 164 571 l 1,35,-1
 164 0 l 2,36,37
 164 -81 164 -81 82 -81 c 128,-1,38
 0 -81 0 -81 0 0 c 2,39,-1
 0 735 l 1,40,-1
 409 735 l 1,41,-1
 489 656 l 1,42,-1
 409 571 l 1,34,-1
EndSplineSet
Substitution2: "Single Substitution lookup 26 subtable" glyph323
EndChar

StartChar: ch.isol
Encoding: 128 6257 128
Width: 982
VWidth: 4095
GlyphClass: 2
Flags: W
LayerCount: 2
Fore
SplineSet
735 1228 m 0,0,1
 735 1302.125 735 1302.125 656 1312 c 0,2,3
 628 1312 628 1312 596 1288 c 1,4,5
 573.727272727 1249.81818182 573.727272727 1249.81818182 571 1228 c 0,6,7
 571 1212 571 1212 580 1195 c 0,8,9
 591.170984456 1169.46632124 591.170984456 1169.46632124 624 1151 c 1,10,11
 640 1147 640 1147 656 1148 c 0,12,13
 698.285714286 1148 698.285714286 1148 712 1172 c 1,14,15
 735 1185.41666667 735 1185.41666667 735 1228 c 0,0,1
899 1228 m 0,16,17
 899 1117.40540541 899 1117.40540541 828 1056 c 1,18,19
 765.72972973 984 765.72972973 984 656 984 c 0,20,21
 608 984 608 984 560 1000 c 1,22,23
 465.511520737 1045.09677419 465.511520737 1045.09677419 428 1137 c 0,24,25
 407 1181 407 1181 409 1228 c 0,26,27
 409 1322.83870968 409 1322.83870968 480 1403 c 1,28,29
 565.5625 1477 565.5625 1477 656 1477 c 0,30,31
 756.3125 1477 756.3125 1477 828 1403 c 0,32,33
 899 1332 899 1332 899 1228 c 0,16,17
0 81 m 2,34,-1
 410 81 l 2,35,36
 573.05 81 573.05 81 571 245 c 2,37,-1
 571 571 l 1,38,-1
 0 571 l 2,39,40
 -81 571 -81 571 -81 654 c 128,-1,41
 -81 737 -81 737 0 735 c 2,42,-1
 984 735 l 1,43,-1
 1063 656 l 1,44,-1
 984 571 l 1,45,-1
 735 571 l 1,46,-1
 735 245 l 2,47,48
 735 -81 735 -81 409 -81 c 2,49,-1
 0 -81 l 2,50,51
 -81 -81 -81 -81 -81 0 c 128,-1,52
 -81 81 -81 81 0 81 c 2,34,-1
EndSplineSet
Substitution2: "'fina' Terminal Forms in Mongolian lookup 2 subtable" ch.fina
Substitution2: "'medi' Medial Forms in Mongolian lookup 1 subtable" ch.medi
Substitution2: "Required Feature in Latin lookup 0 subtable" ch.init
EndChar

StartChar: ch.medi
Encoding: 129 -1 129
Width: 982
VWidth: 4095
GlyphClass: 2
Flags: W
LayerCount: 2
Fore
SplineSet
735 1228 m 0,0,1
 735 1302.125 735 1302.125 656 1312 c 0,2,3
 628 1312 628 1312 596 1288 c 1,4,5
 573.727272727 1249.81818182 573.727272727 1249.81818182 571 1228 c 0,6,7
 571 1212 571 1212 580 1195 c 0,8,9
 591.170984456 1169.46632124 591.170984456 1169.46632124 624 1151 c 1,10,11
 640 1147 640 1147 656 1148 c 0,12,13
 698.285714286 1148 698.285714286 1148 712 1172 c 1,14,15
 735 1185.41666667 735 1185.41666667 735 1228 c 0,0,1
899 1228 m 0,16,17
 899 1117.40540541 899 1117.40540541 828 1056 c 1,18,19
 765.72972973 984 765.72972973 984 656 984 c 0,20,21
 608 984 608 984 560 1000 c 1,22,23
 465.511520737 1045.09677419 465.511520737 1045.09677419 428 1137 c 0,24,25
 407 1181 407 1181 409 1228 c 0,26,27
 409 1322.83870968 409 1322.83870968 480 1403 c 1,28,29
 565.5625 1477 565.5625 1477 656 1477 c 0,30,31
 756.3125 1477 756.3125 1477 828 1403 c 0,32,33
 899 1332 899 1332 899 1228 c 0,16,17
0 81 m 2,34,-1
 410 81 l 2,35,36
 573.05 81 573.05 81 571 245 c 2,37,-1
 571 571 l 1,38,-1
 0 571 l 2,39,40
 -81 571 -81 571 -81 654 c 128,-1,41
 -81 737 -81 737 0 735 c 2,42,-1
 984 735 l 1,43,-1
 1063 656 l 1,44,-1
 984 571 l 1,45,-1
 735 571 l 1,46,-1
 735 245 l 2,47,48
 735 -81 735 -81 409 -81 c 2,49,-1
 0 -81 l 2,50,51
 -81 -81 -81 -81 -81 0 c 128,-1,52
 -81 81 -81 81 0 81 c 2,34,-1
EndSplineSet
EndChar

StartChar: glyph277
Encoding: 130 -1 130
Width: 409
VWidth: 4095
GlyphClass: 2
Flags: W
LayerCount: 2
Fore
SplineSet
0 735 m 1,0,-1
 409 735 l 1,1,-1
 489 656 l 1,2,-1
 409 571 l 1,3,-1
 164 571 l 1,4,-1
 164 409 l 2,5,6
 164 328 164 328 82 328 c 128,-1,7
 0 328 0 328 0 410 c 2,8,-1
 0 735 l 1,0,-1
EndSplineSet
EndChar

StartChar: glyph278
Encoding: 131 -1 131
Width: 409
VWidth: 4095
GlyphClass: 2
Flags: W
LayerCount: 2
Fore
SplineSet
0 735 m 1,0,-1
 409 735 l 1,1,-1
 489 656 l 1,2,-1
 409 571 l 1,3,-1
 164 571 l 1,4,-1
 164 409 l 2,5,6
 164 328 164 328 82 328 c 128,-1,7
 0 328 0 328 0 410 c 2,8,-1
 0 735 l 1,0,-1
EndSplineSet
EndChar

StartChar: glyph279
Encoding: 132 -1 132
Width: 409
VWidth: 4095
GlyphClass: 2
Flags: W
LayerCount: 2
Fore
SplineSet
0 735 m 1,0,-1
 409 735 l 1,1,2
 449 696 449 696 489 656 c 1,3,-1
 409 571 l 1,4,-1
 164 571 l 1,5,-1
 164 0 l 2,6,7
 164 -81 164 -81 82 -81 c 128,-1,8
 0 -81 0 -81 0 0 c 2,9,-1
 0 735 l 1,0,-1
EndSplineSet
EndChar

StartChar: glyph280
Encoding: 133 -1 133
Width: 899
VWidth: 4095
GlyphClass: 2
Flags: W
LayerCount: 2
Fore
SplineSet
492 492 m 2,0,-1
 492 571 l 1,1,-1
 164 571 l 1,2,-1
 164 490 l 2,3,4
 164 328 164 328 328.976190476 328 c 128,-1,5
 493.952380952 328 493.952380952 328 492 492 c 2,0,-1
656 492 m 2,6,7
 656 164 656 164 328 164 c 128,-1,8
 0 164 0 164 0 492 c 1,9,10
 4 492 4 492 2 581.5 c 128,-1,11
 0 671 0 671 0 735 c 1,12,-1
 899 735 l 1,13,-1
 979 656 l 1,14,-1
 899 571 l 1,15,-1
 656 571 l 1,16,-1
 656 492 l 2,6,7
EndSplineSet
EndChar

StartChar: glyph281
Encoding: 134 -1 134
Width: 654
VWidth: 4095
GlyphClass: 2
Flags: W
LayerCount: 2
Fore
SplineSet
492 492 m 2,0,-1
 492 571 l 1,1,-1
 164 571 l 1,2,-1
 164 490 l 2,3,4
 164 328 164 328 328.976190476 328 c 128,-1,5
 493.952380952 328 493.952380952 328 492 492 c 2,0,-1
656 492 m 2,6,7
 656 164 656 164 328 164 c 128,-1,8
 0 164 0 164 0 492 c 1,9,10
 4 492 4 492 2 581.5 c 128,-1,11
 0 671 0 671 0 735 c 1,12,-1
 656 735 l 1,13,-1
 656 492 l 2,6,7
EndSplineSet
EndChar

StartChar: glyph282
Encoding: 135 -1 135
Width: 899
VWidth: 4095
GlyphClass: 2
Flags: W
LayerCount: 2
Fore
SplineSet
492 492 m 2,0,-1
 492 571 l 1,1,-1
 164 571 l 1,2,-1
 164 490 l 2,3,4
 164 328 164 328 328.976190476 328 c 128,-1,5
 493.952380952 328 493.952380952 328 492 492 c 2,0,-1
656 492 m 2,6,7
 656 164 656 164 328 164 c 128,-1,8
 0 164 0 164 0 492 c 1,9,10
 4 492 4 492 2 581.5 c 128,-1,11
 0 671 0 671 0 735 c 1,12,-1
 899 735 l 1,13,-1
 979 656 l 1,14,-1
 899 571 l 1,15,-1
 656 571 l 1,16,-1
 656 492 l 2,6,7
EndSplineSet
EndChar

StartChar: glyph283
Encoding: 136 -1 136
Width: 654
VWidth: 4095
GlyphClass: 2
Flags: W
LayerCount: 2
Fore
SplineSet
204 1759 m 0,0,1
 204 1718.25 204 1718.25 168 1671 c 0,2,3
 152 1655 152 1655 127 1648 c 1,4,5
 104 1636 104 1636 82 1636 c 128,-1,6
 60 1636 60 1636 37 1648 c 1,7,8
 14 1655 14 1655 -4 1671 c 1,9,10
 -20 1692 -20 1692 -32 1715 c 0,11,12
 -39 1736 -39 1736 -40 1759 c 0,13,14
 -40 1842.12 -40 1842.12 37 1876 c 1,15,16
 85 1890.60869565 85 1890.60869565 127 1876 c 0,17,18
 150 1864 150 1864 168 1849 c 0,19,20
 201.84 1815.16 201.84 1815.16 204 1759 c 0,0,1
492 492 m 2,21,-1
 492 571 l 1,22,-1
 164 571 l 1,23,-1
 164 490 l 2,24,25
 164 328 164 328 328.976190476 328 c 128,-1,26
 493.952380952 328 493.952380952 328 492 492 c 2,21,-1
656 492 m 2,27,28
 656 164 656 164 328 164 c 128,-1,29
 0 164 0 164 0 492 c 1,30,31
 4 492 4 492 2 581.5 c 128,-1,32
 0 671 0 671 0 735 c 1,33,-1
 656 735 l 1,34,-1
 656 492 l 2,27,28
EndSplineSet
EndChar

StartChar: glyph284
Encoding: 137 -1 137
Width: 899
VWidth: 4095
GlyphClass: 2
Flags: W
LayerCount: 2
Fore
SplineSet
328 164 m 0,0,1
 0 164 0 164 0 492 c 2,2,-1
 0 735 l 1,3,-1
 899 735 l 1,4,-1
 979 656 l 1,5,-1
 899 571 l 1,6,-1
 656 571 l 1,7,-1
 656 0 l 2,8,9
 656 -81 656 -81 573 -81 c 128,-1,10
 490 -81 490 -81 492 0 c 2,11,-1
 492 192.337120144 l 1,12,13
 423.818719083 164 423.818719083 164 328 164 c 0,0,1
492 484.417222395 m 2,14,-1
 492 492 l 1,15,-1
 492 571 l 1,16,-1
 164 571 l 1,17,-1
 164 490 l 2,18,19
 164 328 164 328 328.976190476 328 c 0,20,21
 490.093288778 328 490.093288778 328 492 484.417222395 c 2,14,-1
EndSplineSet
EndChar

StartChar: glyph285
Encoding: 138 -1 138
Width: 1311
VWidth: 4095
GlyphClass: 2
Flags: W
LayerCount: 2
Fore
SplineSet
492 492 m 2,0,-1
 492 571 l 1,1,-1
 164 571 l 1,2,-1
 164 490 l 2,3,4
 164 328 164 328 328.976190476 328 c 128,-1,5
 493.952380952 328 493.952380952 328 492 492 c 2,0,-1
328 164 m 128,-1,7
 0 164 0 164 0 492 c 2,8,-1
 0 735 l 1,9,-1
 656 735 l 2,10,11
 1312 735 1312 735 1312 81 c 0,12,13
 1312 0 1312 0 1229.5 0 c 128,-1,14
 1147 0 1147 0 1148 81 c 0,15,16
 1148 575.049382716 1148 575.049382716 656 571 c 1,17,-1
 656 492 l 2,18,6
 656 164 656 164 328 164 c 128,-1,7
EndSplineSet
EndChar

StartChar: glyph286
Encoding: 139 -1 139
Width: 490
VWidth: 4095
GlyphClass: 2
Flags: W
LayerCount: 2
Fore
SplineSet
492 492 m 2,0,-1
 492 571 l 1,1,-1
 164 571 l 1,2,-1
 164 490 l 2,3,4
 164 328 164 328 328.976190476 328 c 128,-1,5
 493.952380952 328 493.952380952 328 492 492 c 2,0,-1
656 492 m 2,6,7
 656 164 656 164 328 164 c 128,-1,8
 0 164 0 164 0 492 c 1,9,10
 4 492 4 492 4 613.5 c 128,-1,11
 4 735 4 735 0 735 c 1,12,13
 0 1063 0 1063 164 1228 c 0,14,15
 328 1392 328 1392 573.5 1392 c 128,-1,16
 819 1392 819 1392 984 1228 c 0,17,18
 1148 1064 1148 1064 1148 735 c 2,19,-1
 1148 654 l 2,20,21
 1148 573 1148 573 1063 571 c 0,22,23
 982 571 982 571 984 656 c 2,24,-1
 984 735 l 2,25,26
 984 983 984 983 859.5 1106 c 128,-1,27
 735 1229 735 1229 571 1228 c 0,28,29
 407 1228 407 1228 289 1104 c 1,30,31
 164 984 164 984 164 735 c 1,32,-1
 656 735 l 1,33,-1
 656 492 l 2,6,7
EndSplineSet
EndChar

StartChar: glyph287
Encoding: 140 -1 140
Width: 490
VWidth: 4095
GlyphClass: 2
Flags: W
LayerCount: 2
Fore
SplineSet
492 492 m 2,0,-1
 492 571 l 1,1,-1
 164 571 l 1,2,-1
 164 490 l 2,3,4
 164 328 164 328 328.976190476 328 c 128,-1,5
 493.952380952 328 493.952380952 328 492 492 c 2,0,-1
656 492 m 2,6,7
 656 164 656 164 328 164 c 128,-1,8
 0 164 0 164 0 492 c 1,9,10
 4 492 4 492 4 613.5 c 128,-1,11
 4 735 4 735 0 735 c 1,12,13
 0 1063 0 1063 164 1228 c 0,14,15
 328 1392 328 1392 573.5 1392 c 128,-1,16
 819 1392 819 1392 984 1228 c 0,17,18
 1148 1064 1148 1064 1148 735 c 2,19,-1
 1148 654 l 2,20,21
 1148 573 1148 573 1063 571 c 0,22,23
 982 571 982 571 984 656 c 2,24,-1
 984 735 l 2,25,26
 984 983 984 983 859.5 1106 c 128,-1,27
 735 1229 735 1229 571 1228 c 0,28,29
 407 1228 407 1228 289 1104 c 1,30,31
 164 984 164 984 164 735 c 1,32,-1
 656 735 l 1,33,-1
 656 492 l 2,6,7
EndSplineSet
EndChar

StartChar: glyph288
Encoding: 141 -1 141
Width: 490
VWidth: 4095
GlyphClass: 2
Flags: W
LayerCount: 2
Fore
SplineSet
492 492 m 2,0,-1
 492 571 l 1,1,-1
 164 571 l 1,2,-1
 164 490 l 2,3,4
 164 328 164 328 328.976190476 328 c 128,-1,5
 493.952380952 328 493.952380952 328 492 492 c 2,0,-1
656 492 m 2,6,7
 656 164 656 164 328 164 c 128,-1,8
 0 164 0 164 0 492 c 1,9,10
 4 492 4 492 4 613.5 c 128,-1,11
 4 735 4 735 0 735 c 1,12,13
 0 1063 0 1063 164 1228 c 0,14,15
 328 1392 328 1392 573.5 1392 c 128,-1,16
 819 1392 819 1392 984 1228 c 0,17,18
 1148 1064 1148 1064 1148 735 c 2,19,-1
 1148 654 l 2,20,21
 1148 573 1148 573 1063 571 c 0,22,23
 982 571 982 571 984 656 c 2,24,-1
 984 735 l 2,25,26
 984 983 984 983 859.5 1106 c 0,27,28
 768.338833999 1196.0628387 768.338833999 1196.0628387 656 1219.64388419 c 1,29,-1
 656 1063 l 2,30,31
 656 982 656 982 573 983 c 128,-1,32
 490 984 490 984 491 1066 c 0,33,34
 491.697404026 1123.18713016 491.697404026 1123.18713016 491.908435677 1220.25679516 c 1,35,36
 377.512935556 1197.0135933 377.512935556 1197.0135933 289 1104 c 1,37,38
 164 984 164 984 164 735 c 1,39,-1
 656 735 l 1,40,-1
 656 492 l 2,6,7
EndSplineSet
EndChar

StartChar: glyph289
Encoding: 142 -1 142
Width: 490
VWidth: 4095
GlyphClass: 2
Flags: W
LayerCount: 2
Fore
SplineSet
492 492 m 2,0,-1
 492 571 l 1,1,-1
 164 571 l 1,2,-1
 164 490 l 2,3,4
 164 328 164 328 328.976190476 328 c 128,-1,5
 493.952380952 328 493.952380952 328 492 492 c 2,0,-1
656 492 m 2,6,7
 656 164 656 164 328 164 c 128,-1,8
 0 164 0 164 0 492 c 1,9,10
 4 492 4 492 4 613.5 c 128,-1,11
 4 735 4 735 0 735 c 1,12,13
 0 1063 0 1063 164 1228 c 0,14,15
 328 1392 328 1392 573.5 1392 c 128,-1,16
 819 1392 819 1392 984 1228 c 0,17,18
 1148 1064 1148 1064 1148 735 c 2,19,-1
 1148 654 l 2,20,21
 1148 573 1148 573 1063 571 c 0,22,23
 982 571 982 571 984 656 c 2,24,-1
 984 735 l 2,25,26
 984 983 984 983 859.5 1106 c 0,27,28
 768.338833999 1196.0628387 768.338833999 1196.0628387 656 1219.64388419 c 1,29,-1
 656 1063 l 2,30,31
 656 982 656 982 573 983 c 128,-1,32
 490 984 490 984 491 1066 c 0,33,34
 491.697404026 1123.18713016 491.697404026 1123.18713016 491.908435677 1220.25679516 c 1,35,36
 377.512935556 1197.0135933 377.512935556 1197.0135933 289 1104 c 1,37,38
 164 984 164 984 164 735 c 1,39,-1
 656 735 l 1,40,-1
 656 492 l 2,6,7
EndSplineSet
EndChar

StartChar: glyph290
Encoding: 143 -1 143
Width: 820
VWidth: 4095
GlyphClass: 2
Flags: W
LayerCount: 2
Fore
SplineSet
820 571 m 1,0,-1
 571 571 l 1,1,-1
 571 409 l 2,2,3
 571 328 571 328 490 328 c 128,-1,4
 409 328 409 328 409 410 c 2,5,-1
 409 571 l 1,6,-1
 164 571 l 1,7,-1
 164 409 l 2,8,9
 164 328 164 328 82 328 c 128,-1,10
 0 328 0 328 0 410 c 2,11,-1
 0 735 l 1,12,-1
 820 735 l 1,13,-1
 900 656 l 1,14,-1
 820 571 l 1,0,-1
EndSplineSet
EndChar

StartChar: glyph291
Encoding: 144 -1 144
Width: 820
VWidth: 4095
GlyphClass: 2
Flags: W
LayerCount: 2
Fore
SplineSet
617 40 m 0,0,1
 617 0.5625 617 0.5625 580 -48 c 1,2,3
 532.041189931 -84.5400457666 532.041189931 -84.5400457666 492 -83 c 0,4,5
 413.2 -83 413.2 -83 379 -7 c 0,6,7
 367 16 367 16 368 40 c 0,8,9
 368 117 368 117 444 155 c 1,10,11
 467 162 467 162 492 164 c 0,12,13
 538.375 164 538.375 164 580 127 c 0,14,15
 614.916666667 92.0833333333 614.916666667 92.0833333333 617 40 c 0,0,1
204 40 m 0,16,17
 204 -12 204 -12 168 -48 c 0,18,19
 152 -64 152 -64 127 -72 c 1,20,21
 83.9565217391 -94.4574669187 83.9565217391 -94.4574669187 37 -72 c 1,22,23
 -7.26680244399 -58.5274949084 -7.26680244399 -58.5274949084 -32 -7 c 0,24,25
 -39 16 -39 16 -40 40 c 0,26,27
 -40 91 -40 91 -4 127 c 0,28,29
 33 164 33 164 68.5 164 c 0,30,31
 156.347826087 164 156.347826087 164 196 88 c 1,32,33
 203 65 203 65 204 40 c 0,16,17
820 571 m 1,34,-1
 164 571 l 1,35,-1
 164 409 l 2,36,37
 164 328 164 328 82 328 c 128,-1,38
 0 328 0 328 0 410 c 2,39,-1
 0 735 l 1,40,-1
 820 735 l 1,41,-1
 900 656 l 1,42,-1
 820 571 l 1,34,-1
EndSplineSet
EndChar

StartChar: glyph292
Encoding: 145 -1 145
Width: 820
VWidth: 4095
GlyphClass: 2
Flags: W
LayerCount: 2
Fore
SplineSet
617 40 m 0,0,1
 617 0.5625 617 0.5625 580 -48 c 1,2,3
 532.041189931 -84.5400457666 532.041189931 -84.5400457666 492 -83 c 0,4,5
 413.2 -83 413.2 -83 379 -7 c 0,6,7
 367 16 367 16 368 40 c 0,8,9
 368 117 368 117 444 155 c 1,10,11
 467 162 467 162 492 164 c 0,12,13
 538.375 164 538.375 164 580 127 c 0,14,15
 614.916666667 92.0833333333 614.916666667 92.0833333333 617 40 c 0,0,1
204 40 m 0,16,17
 204 -12 204 -12 168 -48 c 0,18,19
 152 -64 152 -64 127 -72 c 1,20,21
 83.9565217391 -94.4574669187 83.9565217391 -94.4574669187 37 -72 c 1,22,23
 -7.26680244399 -58.5274949084 -7.26680244399 -58.5274949084 -32 -7 c 0,24,25
 -39 16 -39 16 -40 40 c 0,26,27
 -40 91 -40 91 -4 127 c 0,28,29
 33 164 33 164 68.5 164 c 0,30,31
 156.347826087 164 156.347826087 164 196 88 c 1,32,33
 203 65 203 65 204 40 c 0,16,17
820 571 m 1,34,-1
 571 571 l 1,35,-1
 571 409 l 2,36,37
 571 328 571 328 490 328 c 128,-1,38
 409 328 409 328 409 410 c 2,39,-1
 409 571 l 1,40,-1
 164 571 l 1,41,-1
 164 409 l 2,42,43
 164 328 164 328 82 328 c 128,-1,44
 0 328 0 328 0 410 c 2,45,-1
 0 735 l 1,46,-1
 820 735 l 1,47,-1
 900 656 l 1,48,-1
 820 571 l 1,34,-1
EndSplineSet
EndChar

StartChar: glyph293
Encoding: 146 -1 146
Width: 820
VWidth: 4095
GlyphClass: 2
Flags: W
LayerCount: 2
Fore
SplineSet
604 1225 m 1,0,1
 580.448598131 1151.40186916 580.448598131 1151.40186916 492 1148 c 0,2,3
 406.72 1148 406.72 1148 379 1225 c 1,4,5
 367 1246 367 1246 368 1269 c 0,6,7
 368 1346 368 1346 444 1384 c 1,8,9
 467 1391 467 1391 492 1392 c 0,10,11
 515 1392 515 1392 541 1384 c 1,12,13
 591.076923077 1355.38461538 591.076923077 1355.38461538 604 1315 c 1,14,15
 616 1292 616 1292 617 1269 c 0,16,17
 617 1246 617 1246 604 1225 c 1,0,1
820 571 m 1,18,-1
 571 571 l 1,19,-1
 571 409 l 2,20,21
 571 328 571 328 490 328 c 128,-1,22
 409 328 409 328 409 410 c 2,23,-1
 409 571 l 1,24,-1
 164 571 l 1,25,-1
 164 409 l 2,26,27
 164 328 164 328 82 328 c 128,-1,28
 0 328 0 328 0 410 c 2,29,-1
 0 735 l 1,30,-1
 820 735 l 1,31,-1
 900 656 l 1,32,-1
 820 571 l 1,18,-1
EndSplineSet
EndChar

StartChar: glyph294
Encoding: 147 -1 147
Width: 820
VWidth: 4095
GlyphClass: 2
Flags: W
LayerCount: 2
Fore
SplineSet
571 1228 m 0,0,1
 571 1266.76923077 571 1266.76923077 548 1288 c 1,2,3
 537.303370787 1306.33707865 537.303370787 1306.33707865 492 1312 c 1,4,5
 456 1312 456 1312 432 1288 c 1,6,7
 409 1248.57142857 409 1248.57142857 409 1228 c 0,8,9
 409 1179.6875 409 1179.6875 460 1151 c 1,10,11
 476 1147 476 1147 492 1148 c 0,12,13
 534.285714286 1148 534.285714286 1148 548 1172 c 1,14,15
 560 1184 560 1184 568 1195 c 1,16,17
 571 1212 571 1212 571 1228 c 0,0,1
735 1228 m 1,18,19
 735 1117.40540541 735 1117.40540541 664 1056 c 1,20,21
 632 1019 632 1019 584 1003 c 1,22,23
 540 982 540 982 492 984 c 0,24,25
 386.054054054 984 386.054054054 984 316 1056 c 0,26,27
 284 1088 284 1088 264 1137 c 0,28,29
 225.1390625 1225.825 225.1390625 1225.825 264 1324 c 0,30,31
 285 1372 285 1372 316 1403 c 0,32,33
 401.5625 1477 401.5625 1477 492 1477 c 0,34,35
 590 1477 590 1477 664 1403 c 1,36,37
 739.568478261 1337.64347826 739.568478261 1337.64347826 735 1228 c 1,18,19
820 571 m 1,38,-1
 571 571 l 1,39,-1
 571 409 l 2,40,41
 571 328 571 328 490 328 c 128,-1,42
 409 328 409 328 409 410 c 2,43,-1
 409 571 l 1,44,-1
 164 571 l 1,45,-1
 164 409 l 2,46,47
 164 328 164 328 82 328 c 128,-1,48
 0 328 0 328 0 410 c 2,49,-1
 0 735 l 1,50,-1
 820 735 l 1,51,-1
 900 656 l 1,52,-1
 820 571 l 1,38,-1
EndSplineSet
EndChar

StartChar: glyph295
Encoding: 148 -1 148
Width: 654
VWidth: 4095
GlyphClass: 2
Flags: W
LayerCount: 2
Fore
SplineSet
656 1392 m 128,-1,1
 1312 1392 1312 1392 1312 735 c 2,2,-1
 1312 654 l 2,3,4
 1312 573 1312 573 1228 571 c 0,5,6
 1147 571 1147 571 1148 656 c 2,7,-1
 1148 735 l 2,8,9
 1148 1230.02469136 1148 1230.02469136 656 1228 c 0,10,11
 408 1228 408 1228 289 1104 c 1,12,13
 164 984 164 984 164 735 c 2,14,-1
 164 492 l 1,15,16
 409 492 409 492 532 368 c 0,17,18
 657 243 657 243 656 0 c 0,19,20
 656 -81 656 -81 573 -81 c 128,-1,21
 490 -81 490 -81 492 0 c 0,22,23
 492 328 492 328 164 328 c 1,24,-1
 164 0 l 2,25,26
 164 -81 164 -81 82 -81 c 128,-1,27
 0 -81 0 -81 0 0 c 2,28,-1
 0 735 l 2,29,0
 0 1392 0 1392 656 1392 c 128,-1,1
EndSplineSet
EndChar

StartChar: glyph296
Encoding: 149 -1 149
Width: 654
VWidth: 4095
GlyphClass: 2
Flags: W
LayerCount: 2
Fore
SplineSet
656 1392 m 128,-1,1
 1312 1392 1312 1392 1312 735 c 2,2,-1
 1312 654 l 2,3,4
 1312 573 1312 573 1228 571 c 0,5,6
 1147 571 1147 571 1148 656 c 2,7,-1
 1148 735 l 2,8,9
 1148 1230.02469136 1148 1230.02469136 656 1228 c 0,10,11
 408 1228 408 1228 289 1104 c 1,12,13
 164 984 164 984 164 735 c 2,14,-1
 164 0 l 2,15,16
 164 -81 164 -81 82 -81 c 128,-1,17
 0 -81 0 -81 0 0 c 2,18,-1
 0 735 l 2,19,0
 0 1392 0 1392 656 1392 c 128,-1,1
EndSplineSet
EndChar

StartChar: glyph297
Encoding: 150 -1 150
Width: 654
VWidth: 4095
GlyphClass: 2
Flags: W
LayerCount: 2
Fore
SplineSet
779 1759 m 0,0,1
 779 1716.9375 779 1716.9375 744 1671 c 1,2,3
 698.0625 1636 698.0625 1636 656 1636 c 0,4,5
 633 1636 633 1636 608 1648 c 0,6,7
 585 1655 585 1655 568 1671 c 0,8,9
 536 1713 536 1713 532 1759 c 1,10,11
 532 1805.8 532 1805.8 568 1849 c 1,12,13
 600.791666667 1881.79166667 600.791666667 1881.79166667 656 1884 c 0,14,15
 679 1884 679 1884 705 1876 c 1,16,17
 726 1864 726 1864 744 1849 c 0,18,19
 760 1833 760 1833 768 1808 c 1,20,21
 780 1785 780 1785 779 1759 c 0,0,1
656 1392 m 128,-1,23
 1312 1392 1312 1392 1312 735 c 2,24,-1
 1312 654 l 2,25,26
 1312 573 1312 573 1228 571 c 0,27,28
 1147 571 1147 571 1148 656 c 2,29,-1
 1148 735 l 2,30,31
 1148 1230.02469136 1148 1230.02469136 656 1228 c 0,32,33
 408 1228 408 1228 289 1104 c 1,34,35
 164 984 164 984 164 735 c 2,36,-1
 164 492 l 1,37,38
 409 492 409 492 532 368 c 0,39,40
 657 243 657 243 656 0 c 0,41,42
 656 -81 656 -81 573 -81 c 128,-1,43
 490 -81 490 -81 492 0 c 0,44,45
 492 328 492 328 164 328 c 1,46,-1
 164 0 l 2,47,48
 164 -81 164 -81 82 -81 c 128,-1,49
 0 -81 0 -81 0 0 c 2,50,-1
 0 735 l 2,51,22
 0 1392 0 1392 656 1392 c 128,-1,23
EndSplineSet
EndChar

StartChar: glyph298
Encoding: 151 -1 151
Width: 654
VWidth: 4095
GlyphClass: 2
Flags: W
LayerCount: 2
Fore
SplineSet
779 1759 m 0,0,1
 779 1716.9375 779 1716.9375 744 1671 c 1,2,3
 698.0625 1636 698.0625 1636 656 1636 c 0,4,5
 633 1636 633 1636 608 1648 c 0,6,7
 585 1655 585 1655 568 1671 c 0,8,9
 536 1713 536 1713 532 1759 c 1,10,11
 532 1805.8 532 1805.8 568 1849 c 1,12,13
 600.791666667 1881.79166667 600.791666667 1881.79166667 656 1884 c 0,14,15
 679 1884 679 1884 705 1876 c 1,16,17
 726 1864 726 1864 744 1849 c 0,18,19
 760 1833 760 1833 768 1808 c 1,20,21
 780 1785 780 1785 779 1759 c 0,0,1
656 1392 m 128,-1,23
 1312 1392 1312 1392 1312 735 c 2,24,-1
 1312 654 l 2,25,26
 1312 573 1312 573 1228 571 c 0,27,28
 1147 571 1147 571 1148 656 c 2,29,-1
 1148 735 l 2,30,31
 1148 1230.02469136 1148 1230.02469136 656 1228 c 0,32,33
 408 1228 408 1228 289 1104 c 1,34,35
 164 984 164 984 164 735 c 2,36,-1
 164 0 l 2,37,38
 164 -81 164 -81 82 -81 c 128,-1,39
 0 -81 0 -81 0 0 c 2,40,-1
 0 735 l 2,41,22
 0 1392 0 1392 656 1392 c 128,-1,23
EndSplineSet
EndChar

StartChar: glyph299
Encoding: 152 -1 152
Width: 654
VWidth: 4095
GlyphClass: 2
Flags: W
LayerCount: 2
Fore
SplineSet
735 1720 m 0,0,1
 735 1762.61538462 735 1762.61538462 712 1775 c 1,2,3
 697.416666667 1800 697.416666667 1800 656 1800 c 0,4,5
 607 1800 607 1800 580 1752 c 0,6,7
 573 1736 573 1736 571 1720 c 0,8,9
 571 1693.33333333 571 1693.33333333 596 1660 c 1,10,11
 634.88 1637.32 634.88 1637.32 656 1636 c 0,12,13
 706 1636 706 1636 732 1688 c 1,14,15
 735 1704 735 1704 735 1720 c 0,0,1
899 1720 m 0,16,17
 899 1615 899 1615 827.5 1543.5 c 128,-1,18
 756 1472 756 1472 656 1472 c 0,19,20
 566.4 1472 566.4 1472 480 1544 c 1,21,22
 405.191381496 1630.49746515 405.191381496 1630.49746515 409 1720 c 0,23,24
 409 1817.41935484 409 1817.41935484 480 1893 c 0,25,26
 558.08 1971.08 558.08 1971.08 656 1967 c 1,27,28
 760.529411765 1967 760.529411765 1967 828 1893 c 1,29,30
 899 1831.59459459 899 1831.59459459 899 1720 c 0,16,17
656 1392 m 128,-1,32
 1312 1392 1312 1392 1312 735 c 2,33,-1
 1312 654 l 2,34,35
 1312 573 1312 573 1228 571 c 0,36,37
 1147 571 1147 571 1148 656 c 2,38,-1
 1148 735 l 2,39,40
 1148 1230.02469136 1148 1230.02469136 656 1228 c 0,41,42
 408 1228 408 1228 289 1104 c 1,43,44
 164 984 164 984 164 735 c 2,45,-1
 164 492 l 1,46,47
 409 492 409 492 532 368 c 0,48,49
 657 243 657 243 656 0 c 0,50,51
 656 -81 656 -81 573 -81 c 128,-1,52
 490 -81 490 -81 492 0 c 0,53,54
 492 328 492 328 164 328 c 1,55,-1
 164 0 l 2,56,57
 164 -81 164 -81 82 -81 c 128,-1,58
 0 -81 0 -81 0 0 c 2,59,-1
 0 735 l 2,60,31
 0 1392 0 1392 656 1392 c 128,-1,32
EndSplineSet
EndChar

StartChar: glyph300
Encoding: 153 -1 153
Width: 654
VWidth: 4095
GlyphClass: 2
Flags: W
LayerCount: 2
Fore
SplineSet
735 1720 m 0,0,1
 735 1762.61538462 735 1762.61538462 712 1775 c 1,2,3
 697.416666667 1800 697.416666667 1800 656 1800 c 0,4,5
 607 1800 607 1800 580 1752 c 0,6,7
 573 1736 573 1736 571 1720 c 0,8,9
 571 1693.33333333 571 1693.33333333 596 1660 c 1,10,11
 634.88 1637.32 634.88 1637.32 656 1636 c 0,12,13
 706 1636 706 1636 732 1688 c 1,14,15
 735 1704 735 1704 735 1720 c 0,0,1
899 1720 m 0,16,17
 899 1615 899 1615 827.5 1543.5 c 128,-1,18
 756 1472 756 1472 656 1472 c 0,19,20
 566.4 1472 566.4 1472 480 1544 c 1,21,22
 405.191381496 1630.49746515 405.191381496 1630.49746515 409 1720 c 0,23,24
 409 1817.41935484 409 1817.41935484 480 1893 c 0,25,26
 558.08 1971.08 558.08 1971.08 656 1967 c 1,27,28
 760.529411765 1967 760.529411765 1967 828 1893 c 1,29,30
 899 1831.59459459 899 1831.59459459 899 1720 c 0,16,17
656 1392 m 128,-1,32
 1312 1392 1312 1392 1312 735 c 2,33,-1
 1312 654 l 2,34,35
 1312 573 1312 573 1228 571 c 0,36,37
 1147 571 1147 571 1148 656 c 2,38,-1
 1148 735 l 2,39,40
 1148 1230.02469136 1148 1230.02469136 656 1228 c 0,41,42
 408 1228 408 1228 289 1104 c 1,43,44
 164 984 164 984 164 735 c 2,45,-1
 164 0 l 2,46,47
 164 -81 164 -81 82 -81 c 128,-1,48
 0 -81 0 -81 0 0 c 2,49,-1
 0 735 l 2,50,31
 0 1392 0 1392 656 1392 c 128,-1,32
EndSplineSet
EndChar

StartChar: glyph301
Encoding: 154 -1 154
Width: 654
VWidth: 4095
GlyphClass: 2
Flags: W
LayerCount: 2
Fore
SplineSet
656 1392 m 128,-1,1
 1312 1392 1312 1392 1312 735 c 2,2,-1
 1312 654 l 2,3,4
 1312 573 1312 573 1228 571 c 0,5,6
 1147 571 1147 571 1148 656 c 2,7,-1
 1148 735 l 2,8,9
 1148 1230.02469136 1148 1230.02469136 656 1228 c 0,10,11
 408 1228 408 1228 289 1104 c 1,12,13
 164 984 164 984 164 735 c 2,14,-1
 164 492 l 1,15,16
 409 492 409 492 532 368 c 0,17,18
 657 243 657 243 656 0 c 0,19,20
 656 -81 656 -81 573 -81 c 128,-1,21
 490 -81 490 -81 492 0 c 0,22,23
 492 328 492 328 164 328 c 1,24,-1
 164 0 l 2,25,26
 164 -81 164 -81 82 -81 c 128,-1,27
 0 -81 0 -81 0 0 c 2,28,-1
 0 735 l 2,29,0
 0 1392 0 1392 656 1392 c 128,-1,1
EndSplineSet
Substitution2: "Single Substitution lookup 26 subtable" glyph313
EndChar

StartChar: glyph302
Encoding: 155 -1 155
Width: 654
VWidth: 4095
GlyphClass: 2
Flags: W
LayerCount: 2
Fore
SplineSet
656 1392 m 128,-1,1
 1312 1392 1312 1392 1312 735 c 2,2,-1
 1312 654 l 2,3,4
 1312 573 1312 573 1228 571 c 0,5,6
 1147 571 1147 571 1148 656 c 2,7,-1
 1148 735 l 2,8,9
 1148 1230.02469136 1148 1230.02469136 656 1228 c 0,10,11
 408 1228 408 1228 289 1104 c 1,12,13
 164 984 164 984 164 735 c 2,14,-1
 164 0 l 2,15,16
 164 -81 164 -81 82 -81 c 128,-1,17
 0 -81 0 -81 0 0 c 2,18,-1
 0 735 l 2,19,0
 0 1392 0 1392 656 1392 c 128,-1,1
EndSplineSet
Substitution2: "Single Substitution lookup 26 subtable" glyph314
EndChar

StartChar: glyph303
Encoding: 156 -1 156
Width: 654
VWidth: 4095
GlyphClass: 2
Flags: W
LayerCount: 2
Fore
SplineSet
779 1759 m 0,0,1
 779 1716.9375 779 1716.9375 744 1671 c 1,2,3
 698.0625 1636 698.0625 1636 656 1636 c 0,4,5
 633 1636 633 1636 608 1648 c 0,6,7
 585 1655 585 1655 568 1671 c 0,8,9
 536 1713 536 1713 532 1759 c 1,10,11
 532 1805.8 532 1805.8 568 1849 c 1,12,13
 600.791666667 1881.79166667 600.791666667 1881.79166667 656 1884 c 0,14,15
 679 1884 679 1884 705 1876 c 1,16,17
 726 1864 726 1864 744 1849 c 0,18,19
 760 1833 760 1833 768 1808 c 1,20,21
 780 1785 780 1785 779 1759 c 0,0,1
656 1392 m 128,-1,23
 1312 1392 1312 1392 1312 735 c 2,24,-1
 1312 654 l 2,25,26
 1312 573 1312 573 1228 571 c 0,27,28
 1147 571 1147 571 1148 656 c 2,29,-1
 1148 735 l 2,30,31
 1148 1230.02469136 1148 1230.02469136 656 1228 c 0,32,33
 408 1228 408 1228 289 1104 c 1,34,35
 164 984 164 984 164 735 c 2,36,-1
 164 492 l 1,37,38
 409 492 409 492 532 368 c 0,39,40
 657 243 657 243 656 0 c 0,41,42
 656 -81 656 -81 573 -81 c 128,-1,43
 490 -81 490 -81 492 0 c 0,44,45
 492 328 492 328 164 328 c 1,46,-1
 164 0 l 2,47,48
 164 -81 164 -81 82 -81 c 128,-1,49
 0 -81 0 -81 0 0 c 2,50,-1
 0 735 l 2,51,22
 0 1392 0 1392 656 1392 c 128,-1,23
EndSplineSet
Substitution2: "Single Substitution lookup 26 subtable" glyph315
EndChar

StartChar: glyph304
Encoding: 157 -1 157
Width: 654
VWidth: 4095
GlyphClass: 2
Flags: W
LayerCount: 2
Fore
SplineSet
779 1759 m 0,0,1
 779 1716.9375 779 1716.9375 744 1671 c 1,2,3
 698.0625 1636 698.0625 1636 656 1636 c 0,4,5
 633 1636 633 1636 608 1648 c 0,6,7
 585 1655 585 1655 568 1671 c 0,8,9
 536 1713 536 1713 532 1759 c 1,10,11
 532 1805.8 532 1805.8 568 1849 c 1,12,13
 600.791666667 1881.79166667 600.791666667 1881.79166667 656 1884 c 0,14,15
 679 1884 679 1884 705 1876 c 1,16,17
 726 1864 726 1864 744 1849 c 0,18,19
 760 1833 760 1833 768 1808 c 1,20,21
 780 1785 780 1785 779 1759 c 0,0,1
656 1392 m 128,-1,23
 1312 1392 1312 1392 1312 735 c 2,24,-1
 1312 654 l 2,25,26
 1312 573 1312 573 1228 571 c 0,27,28
 1147 571 1147 571 1148 656 c 2,29,-1
 1148 735 l 2,30,31
 1148 1230.02469136 1148 1230.02469136 656 1228 c 0,32,33
 408 1228 408 1228 289 1104 c 1,34,35
 164 984 164 984 164 735 c 2,36,-1
 164 0 l 2,37,38
 164 -81 164 -81 82 -81 c 128,-1,39
 0 -81 0 -81 0 0 c 2,40,-1
 0 735 l 2,41,22
 0 1392 0 1392 656 1392 c 128,-1,23
EndSplineSet
Substitution2: "Single Substitution lookup 26 subtable" glyph316
EndChar

StartChar: glyph305
Encoding: 158 -1 158
Width: 654
VWidth: 4095
GlyphClass: 2
Flags: W
LayerCount: 2
Fore
SplineSet
735 1720 m 0,0,1
 735 1762.61538462 735 1762.61538462 712 1775 c 1,2,3
 697.416666667 1800 697.416666667 1800 656 1800 c 0,4,5
 607 1800 607 1800 580 1752 c 0,6,7
 573 1736 573 1736 571 1720 c 0,8,9
 571 1693.33333333 571 1693.33333333 596 1660 c 1,10,11
 634.88 1637.32 634.88 1637.32 656 1636 c 0,12,13
 706 1636 706 1636 732 1688 c 1,14,15
 735 1704 735 1704 735 1720 c 0,0,1
899 1720 m 0,16,17
 899 1615 899 1615 827.5 1543.5 c 128,-1,18
 756 1472 756 1472 656 1472 c 0,19,20
 566.4 1472 566.4 1472 480 1544 c 1,21,22
 405.191381496 1630.49746515 405.191381496 1630.49746515 409 1720 c 0,23,24
 409 1817.41935484 409 1817.41935484 480 1893 c 0,25,26
 558.08 1971.08 558.08 1971.08 656 1967 c 1,27,28
 760.529411765 1967 760.529411765 1967 828 1893 c 1,29,30
 899 1831.59459459 899 1831.59459459 899 1720 c 0,16,17
656 1392 m 128,-1,32
 1312 1392 1312 1392 1312 735 c 2,33,-1
 1312 654 l 2,34,35
 1312 573 1312 573 1228 571 c 0,36,37
 1147 571 1147 571 1148 656 c 2,38,-1
 1148 735 l 2,39,40
 1148 1230.02469136 1148 1230.02469136 656 1228 c 0,41,42
 408 1228 408 1228 289 1104 c 1,43,44
 164 984 164 984 164 735 c 2,45,-1
 164 492 l 1,46,47
 409 492 409 492 532 368 c 0,48,49
 657 243 657 243 656 0 c 0,50,51
 656 -81 656 -81 573 -81 c 128,-1,52
 490 -81 490 -81 492 0 c 0,53,54
 492 328 492 328 164 328 c 1,55,-1
 164 0 l 2,56,57
 164 -81 164 -81 82 -81 c 128,-1,58
 0 -81 0 -81 0 0 c 2,59,-1
 0 735 l 2,60,31
 0 1392 0 1392 656 1392 c 128,-1,32
EndSplineSet
Substitution2: "Single Substitution lookup 26 subtable" glyph317
EndChar

StartChar: glyph306
Encoding: 159 -1 159
Width: 654
VWidth: 4095
GlyphClass: 2
Flags: W
LayerCount: 2
Fore
SplineSet
735 1720 m 0,0,1
 735 1762.61538462 735 1762.61538462 712 1775 c 1,2,3
 697.416666667 1800 697.416666667 1800 656 1800 c 0,4,5
 607 1800 607 1800 580 1752 c 0,6,7
 573 1736 573 1736 571 1720 c 0,8,9
 571 1693.33333333 571 1693.33333333 596 1660 c 1,10,11
 634.88 1637.32 634.88 1637.32 656 1636 c 0,12,13
 706 1636 706 1636 732 1688 c 1,14,15
 735 1704 735 1704 735 1720 c 0,0,1
899 1720 m 0,16,17
 899 1615 899 1615 827.5 1543.5 c 128,-1,18
 756 1472 756 1472 656 1472 c 0,19,20
 566.4 1472 566.4 1472 480 1544 c 1,21,22
 405.191381496 1630.49746515 405.191381496 1630.49746515 409 1720 c 0,23,24
 409 1817.41935484 409 1817.41935484 480 1893 c 0,25,26
 558.08 1971.08 558.08 1971.08 656 1967 c 1,27,28
 760.529411765 1967 760.529411765 1967 828 1893 c 1,29,30
 899 1831.59459459 899 1831.59459459 899 1720 c 0,16,17
656 1392 m 128,-1,32
 1312 1392 1312 1392 1312 735 c 2,33,-1
 1312 654 l 2,34,35
 1312 573 1312 573 1228 571 c 0,36,37
 1147 571 1147 571 1148 656 c 2,38,-1
 1148 735 l 2,39,40
 1148 1230.02469136 1148 1230.02469136 656 1228 c 0,41,42
 408 1228 408 1228 289 1104 c 1,43,44
 164 984 164 984 164 735 c 2,45,-1
 164 0 l 2,46,47
 164 -81 164 -81 82 -81 c 128,-1,48
 0 -81 0 -81 0 0 c 2,49,-1
 0 735 l 2,50,31
 0 1392 0 1392 656 1392 c 128,-1,32
EndSplineSet
Substitution2: "Single Substitution lookup 26 subtable" glyph318
EndChar

StartChar: glyph307
Encoding: 160 -1 160
Width: 1146
VWidth: 4095
GlyphClass: 2
Flags: W
LayerCount: 2
Fore
SplineSet
656 1392 m 128,-1,1
 1312 1392 1312 1392 1312 735 c 2,2,-1
 1312 654 l 2,3,4
 1312 573 1312 573 1228 571 c 0,5,6
 1147 571 1147 571 1148 656 c 2,7,-1
 1148 735 l 2,8,9
 1148 1230.02469136 1148 1230.02469136 656 1228 c 0,10,11
 408 1228 408 1228 289 1104 c 1,12,13
 164 984 164 984 164 735 c 2,14,-1
 164 492 l 1,15,16
 409 492 409 492 532 368 c 0,17,18
 657 243 657 243 656 0 c 0,19,20
 656 -81 656 -81 573 -81 c 128,-1,21
 490 -81 490 -81 492 0 c 0,22,23
 492 328 492 328 164 328 c 1,24,-1
 164 0 l 2,25,26
 164 -81 164 -81 82 -81 c 128,-1,27
 0 -81 0 -81 0 0 c 2,28,-1
 0 735 l 2,29,0
 0 1392 0 1392 656 1392 c 128,-1,1
EndSplineSet
Substitution2: "Single Substitution lookup 25 subtable" glyph313
EndChar

StartChar: glyph308
Encoding: 161 -1 161
Width: 1146
VWidth: 4095
GlyphClass: 2
Flags: W
LayerCount: 2
Fore
SplineSet
656 1392 m 128,-1,1
 1312 1392 1312 1392 1312 735 c 2,2,-1
 1312 654 l 2,3,4
 1312 573 1312 573 1228 571 c 0,5,6
 1147 571 1147 571 1148 656 c 2,7,-1
 1148 735 l 2,8,9
 1148 1230.02469136 1148 1230.02469136 656 1228 c 0,10,11
 408 1228 408 1228 289 1104 c 1,12,13
 164 984 164 984 164 735 c 2,14,-1
 164 0 l 2,15,16
 164 -81 164 -81 82 -81 c 128,-1,17
 0 -81 0 -81 0 0 c 2,18,-1
 0 735 l 2,19,0
 0 1392 0 1392 656 1392 c 128,-1,1
EndSplineSet
Substitution2: "Single Substitution lookup 25 subtable" glyph314
EndChar

StartChar: glyph309
Encoding: 162 -1 162
Width: 1146
VWidth: 4095
GlyphClass: 2
Flags: W
LayerCount: 2
Fore
SplineSet
779 1759 m 0,0,1
 779 1716.9375 779 1716.9375 744 1671 c 1,2,3
 698.0625 1636 698.0625 1636 656 1636 c 0,4,5
 633 1636 633 1636 608 1648 c 0,6,7
 585 1655 585 1655 568 1671 c 0,8,9
 536 1713 536 1713 532 1759 c 1,10,11
 532 1805.8 532 1805.8 568 1849 c 1,12,13
 600.791666667 1881.79166667 600.791666667 1881.79166667 656 1884 c 0,14,15
 679 1884 679 1884 705 1876 c 1,16,17
 726 1864 726 1864 744 1849 c 0,18,19
 760 1833 760 1833 768 1808 c 1,20,21
 780 1785 780 1785 779 1759 c 0,0,1
656 1392 m 128,-1,23
 1312 1392 1312 1392 1312 735 c 2,24,-1
 1312 654 l 2,25,26
 1312 573 1312 573 1228 571 c 0,27,28
 1147 571 1147 571 1148 656 c 2,29,-1
 1148 735 l 2,30,31
 1148 1230.02469136 1148 1230.02469136 656 1228 c 0,32,33
 408 1228 408 1228 289 1104 c 1,34,35
 164 984 164 984 164 735 c 2,36,-1
 164 492 l 1,37,38
 409 492 409 492 532 368 c 0,39,40
 657 243 657 243 656 0 c 0,41,42
 656 -81 656 -81 573 -81 c 128,-1,43
 490 -81 490 -81 492 0 c 0,44,45
 492 328 492 328 164 328 c 1,46,-1
 164 0 l 2,47,48
 164 -81 164 -81 82 -81 c 128,-1,49
 0 -81 0 -81 0 0 c 2,50,-1
 0 735 l 2,51,22
 0 1392 0 1392 656 1392 c 128,-1,23
EndSplineSet
Substitution2: "Single Substitution lookup 25 subtable" glyph315
EndChar

StartChar: glyph310
Encoding: 163 -1 163
Width: 1146
VWidth: 4095
GlyphClass: 2
Flags: W
LayerCount: 2
Fore
SplineSet
779 1759 m 0,0,1
 779 1716.9375 779 1716.9375 744 1671 c 1,2,3
 698.0625 1636 698.0625 1636 656 1636 c 0,4,5
 633 1636 633 1636 608 1648 c 0,6,7
 585 1655 585 1655 568 1671 c 0,8,9
 536 1713 536 1713 532 1759 c 1,10,11
 532 1805.8 532 1805.8 568 1849 c 1,12,13
 600.791666667 1881.79166667 600.791666667 1881.79166667 656 1884 c 0,14,15
 679 1884 679 1884 705 1876 c 1,16,17
 726 1864 726 1864 744 1849 c 0,18,19
 760 1833 760 1833 768 1808 c 1,20,21
 780 1785 780 1785 779 1759 c 0,0,1
656 1392 m 128,-1,23
 1312 1392 1312 1392 1312 735 c 2,24,-1
 1312 654 l 2,25,26
 1312 573 1312 573 1228 571 c 0,27,28
 1147 571 1147 571 1148 656 c 2,29,-1
 1148 735 l 2,30,31
 1148 1230.02469136 1148 1230.02469136 656 1228 c 0,32,33
 408 1228 408 1228 289 1104 c 1,34,35
 164 984 164 984 164 735 c 2,36,-1
 164 0 l 2,37,38
 164 -81 164 -81 82 -81 c 128,-1,39
 0 -81 0 -81 0 0 c 2,40,-1
 0 735 l 2,41,22
 0 1392 0 1392 656 1392 c 128,-1,23
EndSplineSet
Substitution2: "Single Substitution lookup 25 subtable" glyph316
EndChar

StartChar: glyph311
Encoding: 164 -1 164
Width: 1146
VWidth: 4095
GlyphClass: 2
Flags: W
LayerCount: 2
Fore
SplineSet
735 1720 m 0,0,1
 735 1762.61538462 735 1762.61538462 712 1775 c 1,2,3
 697.416666667 1800 697.416666667 1800 656 1800 c 0,4,5
 607 1800 607 1800 580 1752 c 0,6,7
 573 1736 573 1736 571 1720 c 0,8,9
 571 1693.33333333 571 1693.33333333 596 1660 c 1,10,11
 634.88 1637.32 634.88 1637.32 656 1636 c 0,12,13
 706 1636 706 1636 732 1688 c 1,14,15
 735 1704 735 1704 735 1720 c 0,0,1
899 1720 m 0,16,17
 899 1615 899 1615 827.5 1543.5 c 128,-1,18
 756 1472 756 1472 656 1472 c 0,19,20
 566.4 1472 566.4 1472 480 1544 c 1,21,22
 405.191381496 1630.49746515 405.191381496 1630.49746515 409 1720 c 0,23,24
 409 1817.41935484 409 1817.41935484 480 1893 c 0,25,26
 558.08 1971.08 558.08 1971.08 656 1967 c 1,27,28
 760.529411765 1967 760.529411765 1967 828 1893 c 1,29,30
 899 1831.59459459 899 1831.59459459 899 1720 c 0,16,17
656 1392 m 128,-1,32
 1312 1392 1312 1392 1312 735 c 2,33,-1
 1312 654 l 2,34,35
 1312 573 1312 573 1228 571 c 0,36,37
 1147 571 1147 571 1148 656 c 2,38,-1
 1148 735 l 2,39,40
 1148 1230.02469136 1148 1230.02469136 656 1228 c 0,41,42
 408 1228 408 1228 289 1104 c 1,43,44
 164 984 164 984 164 735 c 2,45,-1
 164 492 l 1,46,47
 409 492 409 492 532 368 c 0,48,49
 657 243 657 243 656 0 c 0,50,51
 656 -81 656 -81 573 -81 c 128,-1,52
 490 -81 490 -81 492 0 c 0,53,54
 492 328 492 328 164 328 c 1,55,-1
 164 0 l 2,56,57
 164 -81 164 -81 82 -81 c 128,-1,58
 0 -81 0 -81 0 0 c 2,59,-1
 0 735 l 2,60,31
 0 1392 0 1392 656 1392 c 128,-1,32
EndSplineSet
Substitution2: "Single Substitution lookup 25 subtable" glyph317
EndChar

StartChar: glyph312
Encoding: 165 -1 165
Width: 1146
VWidth: 4095
GlyphClass: 2
Flags: W
LayerCount: 2
Fore
SplineSet
735 1720 m 0,0,1
 735 1762.61538462 735 1762.61538462 712 1775 c 1,2,3
 697.416666667 1800 697.416666667 1800 656 1800 c 0,4,5
 607 1800 607 1800 580 1752 c 0,6,7
 573 1736 573 1736 571 1720 c 0,8,9
 571 1693.33333333 571 1693.33333333 596 1660 c 1,10,11
 634.88 1637.32 634.88 1637.32 656 1636 c 0,12,13
 706 1636 706 1636 732 1688 c 1,14,15
 735 1704 735 1704 735 1720 c 0,0,1
899 1720 m 0,16,17
 899 1615 899 1615 827.5 1543.5 c 128,-1,18
 756 1472 756 1472 656 1472 c 0,19,20
 566.4 1472 566.4 1472 480 1544 c 1,21,22
 405.191381496 1630.49746515 405.191381496 1630.49746515 409 1720 c 0,23,24
 409 1817.41935484 409 1817.41935484 480 1893 c 0,25,26
 558.08 1971.08 558.08 1971.08 656 1967 c 1,27,28
 760.529411765 1967 760.529411765 1967 828 1893 c 1,29,30
 899 1831.59459459 899 1831.59459459 899 1720 c 0,16,17
656 1392 m 128,-1,32
 1312 1392 1312 1392 1312 735 c 2,33,-1
 1312 654 l 2,34,35
 1312 573 1312 573 1228 571 c 0,36,37
 1147 571 1147 571 1148 656 c 2,38,-1
 1148 735 l 2,39,40
 1148 1230.02469136 1148 1230.02469136 656 1228 c 0,41,42
 408 1228 408 1228 289 1104 c 1,43,44
 164 984 164 984 164 735 c 2,45,-1
 164 0 l 2,46,47
 164 -81 164 -81 82 -81 c 128,-1,48
 0 -81 0 -81 0 0 c 2,49,-1
 0 735 l 2,50,31
 0 1392 0 1392 656 1392 c 128,-1,32
EndSplineSet
Substitution2: "Single Substitution lookup 25 subtable" glyph318
EndChar

StartChar: glyph313
Encoding: 166 -1 166
Width: 654
VWidth: 4095
GlyphClass: 2
Flags: W
LayerCount: 2
Fore
SplineSet
656 1392 m 128,-1,1
 1312 1392 1312 1392 1312 735 c 2,2,-1
 1312 654 l 2,3,4
 1312 573 1312 573 1228 571 c 0,5,6
 1147 571 1147 571 1148 656 c 2,7,-1
 1148 735 l 2,8,9
 1148 1230.02469136 1148 1230.02469136 656 1228 c 0,10,11
 408 1228 408 1228 289 1104 c 1,12,13
 164 984 164 984 164 735 c 2,14,-1
 164 492 l 1,15,16
 409 492 409 492 532 368 c 0,17,18
 657 243 657 243 656 0 c 0,19,20
 656 -81 656 -81 573 -81 c 128,-1,21
 490 -81 490 -81 492 0 c 0,22,23
 492 328 492 328 164 328 c 1,24,-1
 164 0 l 2,25,26
 164 -81 164 -81 82 -81 c 128,-1,27
 0 -81 0 -81 0 0 c 2,28,-1
 0 735 l 2,29,0
 0 1392 0 1392 656 1392 c 128,-1,1
EndSplineSet
EndChar

StartChar: glyph314
Encoding: 167 -1 167
Width: 654
VWidth: 4095
GlyphClass: 2
Flags: W
LayerCount: 2
Fore
SplineSet
656 1392 m 128,-1,1
 1312 1392 1312 1392 1312 735 c 2,2,-1
 1312 654 l 2,3,4
 1312 573 1312 573 1228 571 c 0,5,6
 1147 571 1147 571 1148 656 c 2,7,-1
 1148 735 l 2,8,9
 1148 1230.02469136 1148 1230.02469136 656 1228 c 0,10,11
 408 1228 408 1228 289 1104 c 1,12,13
 164 984 164 984 164 735 c 2,14,-1
 164 0 l 2,15,16
 164 -81 164 -81 82 -81 c 128,-1,17
 0 -81 0 -81 0 0 c 2,18,-1
 0 735 l 2,19,0
 0 1392 0 1392 656 1392 c 128,-1,1
EndSplineSet
EndChar

StartChar: glyph315
Encoding: 168 -1 168
Width: 654
VWidth: 4095
GlyphClass: 2
Flags: W
LayerCount: 2
Fore
SplineSet
779 1759 m 0,0,1
 779 1716.9375 779 1716.9375 744 1671 c 1,2,3
 698.0625 1636 698.0625 1636 656 1636 c 0,4,5
 633 1636 633 1636 608 1648 c 0,6,7
 585 1655 585 1655 568 1671 c 0,8,9
 536 1713 536 1713 532 1759 c 1,10,11
 532 1805.8 532 1805.8 568 1849 c 1,12,13
 600.791666667 1881.79166667 600.791666667 1881.79166667 656 1884 c 0,14,15
 679 1884 679 1884 705 1876 c 1,16,17
 726 1864 726 1864 744 1849 c 0,18,19
 760 1833 760 1833 768 1808 c 1,20,21
 780 1785 780 1785 779 1759 c 0,0,1
656 1392 m 128,-1,23
 1312 1392 1312 1392 1312 735 c 2,24,-1
 1312 654 l 2,25,26
 1312 573 1312 573 1228 571 c 0,27,28
 1147 571 1147 571 1148 656 c 2,29,-1
 1148 735 l 2,30,31
 1148 1230.02469136 1148 1230.02469136 656 1228 c 0,32,33
 408 1228 408 1228 289 1104 c 1,34,35
 164 984 164 984 164 735 c 2,36,-1
 164 492 l 1,37,38
 409 492 409 492 532 368 c 0,39,40
 657 243 657 243 656 0 c 0,41,42
 656 -81 656 -81 573 -81 c 128,-1,43
 490 -81 490 -81 492 0 c 0,44,45
 492 328 492 328 164 328 c 1,46,-1
 164 0 l 2,47,48
 164 -81 164 -81 82 -81 c 128,-1,49
 0 -81 0 -81 0 0 c 2,50,-1
 0 735 l 2,51,22
 0 1392 0 1392 656 1392 c 128,-1,23
EndSplineSet
EndChar

StartChar: glyph316
Encoding: 169 -1 169
Width: 654
VWidth: 4095
GlyphClass: 2
Flags: W
LayerCount: 2
Fore
SplineSet
779 1759 m 0,0,1
 779 1716.9375 779 1716.9375 744 1671 c 1,2,3
 698.0625 1636 698.0625 1636 656 1636 c 0,4,5
 633 1636 633 1636 608 1648 c 0,6,7
 585 1655 585 1655 568 1671 c 0,8,9
 536 1713 536 1713 532 1759 c 1,10,11
 532 1805.8 532 1805.8 568 1849 c 1,12,13
 600.791666667 1881.79166667 600.791666667 1881.79166667 656 1884 c 0,14,15
 679 1884 679 1884 705 1876 c 1,16,17
 726 1864 726 1864 744 1849 c 0,18,19
 760 1833 760 1833 768 1808 c 1,20,21
 780 1785 780 1785 779 1759 c 0,0,1
656 1392 m 128,-1,23
 1312 1392 1312 1392 1312 735 c 2,24,-1
 1312 654 l 2,25,26
 1312 573 1312 573 1228 571 c 0,27,28
 1147 571 1147 571 1148 656 c 2,29,-1
 1148 735 l 2,30,31
 1148 1230.02469136 1148 1230.02469136 656 1228 c 0,32,33
 408 1228 408 1228 289 1104 c 1,34,35
 164 984 164 984 164 735 c 2,36,-1
 164 0 l 2,37,38
 164 -81 164 -81 82 -81 c 128,-1,39
 0 -81 0 -81 0 0 c 2,40,-1
 0 735 l 2,41,22
 0 1392 0 1392 656 1392 c 128,-1,23
EndSplineSet
EndChar

StartChar: glyph317
Encoding: 170 -1 170
Width: 654
VWidth: 4095
GlyphClass: 2
Flags: W
LayerCount: 2
Fore
SplineSet
735 1720 m 0,0,1
 735 1762.61538462 735 1762.61538462 712 1775 c 1,2,3
 697.416666667 1800 697.416666667 1800 656 1800 c 0,4,5
 607 1800 607 1800 580 1752 c 0,6,7
 573 1736 573 1736 571 1720 c 0,8,9
 571 1693.33333333 571 1693.33333333 596 1660 c 1,10,11
 634.88 1637.32 634.88 1637.32 656 1636 c 0,12,13
 706 1636 706 1636 732 1688 c 1,14,15
 735 1704 735 1704 735 1720 c 0,0,1
899 1720 m 0,16,17
 899 1615 899 1615 827.5 1543.5 c 128,-1,18
 756 1472 756 1472 656 1472 c 0,19,20
 566.4 1472 566.4 1472 480 1544 c 1,21,22
 405.191381496 1630.49746515 405.191381496 1630.49746515 409 1720 c 0,23,24
 409 1817.41935484 409 1817.41935484 480 1893 c 0,25,26
 558.08 1971.08 558.08 1971.08 656 1967 c 1,27,28
 760.529411765 1967 760.529411765 1967 828 1893 c 1,29,30
 899 1831.59459459 899 1831.59459459 899 1720 c 0,16,17
656 1392 m 128,-1,32
 1312 1392 1312 1392 1312 735 c 2,33,-1
 1312 654 l 2,34,35
 1312 573 1312 573 1228 571 c 0,36,37
 1147 571 1147 571 1148 656 c 2,38,-1
 1148 735 l 2,39,40
 1148 1230.02469136 1148 1230.02469136 656 1228 c 0,41,42
 408 1228 408 1228 289 1104 c 1,43,44
 164 984 164 984 164 735 c 2,45,-1
 164 492 l 1,46,47
 409 492 409 492 532 368 c 0,48,49
 657 243 657 243 656 0 c 0,50,51
 656 -81 656 -81 573 -81 c 128,-1,52
 490 -81 490 -81 492 0 c 0,53,54
 492 328 492 328 164 328 c 1,55,-1
 164 0 l 2,56,57
 164 -81 164 -81 82 -81 c 128,-1,58
 0 -81 0 -81 0 0 c 2,59,-1
 0 735 l 2,60,31
 0 1392 0 1392 656 1392 c 128,-1,32
EndSplineSet
EndChar

StartChar: glyph318
Encoding: 171 -1 171
Width: 654
VWidth: 4095
GlyphClass: 2
Flags: W
LayerCount: 2
Fore
SplineSet
735 1720 m 0,0,1
 735 1762.61538462 735 1762.61538462 712 1775 c 1,2,3
 697.416666667 1800 697.416666667 1800 656 1800 c 0,4,5
 607 1800 607 1800 580 1752 c 0,6,7
 573 1736 573 1736 571 1720 c 0,8,9
 571 1693.33333333 571 1693.33333333 596 1660 c 1,10,11
 634.88 1637.32 634.88 1637.32 656 1636 c 0,12,13
 706 1636 706 1636 732 1688 c 1,14,15
 735 1704 735 1704 735 1720 c 0,0,1
899 1720 m 0,16,17
 899 1615 899 1615 827.5 1543.5 c 128,-1,18
 756 1472 756 1472 656 1472 c 0,19,20
 566.4 1472 566.4 1472 480 1544 c 1,21,22
 405.191381496 1630.49746515 405.191381496 1630.49746515 409 1720 c 0,23,24
 409 1817.41935484 409 1817.41935484 480 1893 c 0,25,26
 558.08 1971.08 558.08 1971.08 656 1967 c 1,27,28
 760.529411765 1967 760.529411765 1967 828 1893 c 1,29,30
 899 1831.59459459 899 1831.59459459 899 1720 c 0,16,17
656 1392 m 128,-1,32
 1312 1392 1312 1392 1312 735 c 2,33,-1
 1312 654 l 2,34,35
 1312 573 1312 573 1228 571 c 0,36,37
 1147 571 1147 571 1148 656 c 2,38,-1
 1148 735 l 2,39,40
 1148 1230.02469136 1148 1230.02469136 656 1228 c 0,41,42
 408 1228 408 1228 289 1104 c 1,43,44
 164 984 164 984 164 735 c 2,45,-1
 164 0 l 2,46,47
 164 -81 164 -81 82 -81 c 128,-1,48
 0 -81 0 -81 0 0 c 2,49,-1
 0 735 l 2,50,31
 0 1392 0 1392 656 1392 c 128,-1,32
EndSplineSet
EndChar

StartChar: glyph319
Encoding: 172 -1 172
Width: 1217
VWidth: 4086
GlyphClass: 2
Flags: W
LayerCount: 2
Fore
SplineSet
407 571 m 1,0,-1
 163 571 l 1,1,-1
 163 407 l 2,2,3
 163 329 163 329 81.5 329.5 c 128,-1,4
 0 330 0 330 0 407 c 2,5,-1
 0 735 l 1,6,-1
 407 735 l 1,7,8
 407 1065 407 1065 533 1187 c 0,9,10
 656 1310 656 1310 903 1310 c 128,-1,11
 1150 1310 1150 1310 1266 1146 c 1,12,13
 1389 983 1389 983 1389 735 c 2,14,-1
 1389 655 l 2,15,16
 1389 575 1389 575 1310 571 c 1,17,18
 1227 571 1227 571 1228 658 c 2,19,-1
 1228 735 l 2,20,21
 1228 898 1228 898 1146 1025 c 0,22,23
 1063 1148 1063 1148 901 1146 c 0,24,25
 738 1146 738 1146 656.5 1066.5 c 128,-1,26
 575 987 575 987 571 735 c 1,27,-1
 571 0 l 2,28,29
 572 -79 572 -79 490.5 -79 c 128,-1,30
 409 -79 409 -79 407 0 c 2,31,-1
 407 571 l 1,0,-1
EndSplineSet
EndChar

StartChar: glyph320
Encoding: 173 -1 173
Width: 409
VWidth: 4095
GlyphClass: 2
Flags: W
LayerCount: 2
Fore
SplineSet
-492 1805 m 1,0,1
 -409 1886 -409 1886 -245 1884 c 0,2,3
 -164 1884 -164 1884 -164 1803 c 128,-1,4
 -164 1722 -164 1722 -245 1720 c 0,5,6
 -407.515151515 1720 -407.515151515 1720 -408.5 1557.5 c 0,7,8
 -409 1475 -409 1475 -409 1464.625 c 2,9,-1
 -409 1312 l 2,10,11
 -409 1229 -409 1229 -492 1228 c 0,12,13
 -573 1228 -573 1228 -572 1310.5 c 128,-1,14
 -571 1393 -571 1393 -571 1403.25 c 2,15,-1
 -571 1561.625 l 2,16,17
 -571 1720 -571 1720 -492 1805 c 1,0,1
409 571 m 1,18,-1
 164 571 l 1,19,-1
 164 409 l 2,20,21
 164 328 164 328 82 328 c 128,-1,22
 0 328 0 328 0 409 c 2,23,-1
 0 735 l 1,24,-1
 409 735 l 1,25,-1
 489 656 l 1,26,-1
 409 571 l 1,18,-1
EndSplineSet
EndChar

StartChar: glyph321
Encoding: 174 -1 174
Width: 409
VWidth: 4095
GlyphClass: 2
Flags: W
LayerCount: 2
Fore
SplineSet
-571 1312 m 2,0,-1
 -571 1557 l 2,1,2
 -571 1639 -571 1639 -617 1680 c 0,3,4
 -657 1720 -657 1720 -737.5 1720 c 128,-1,5
 -818 1720 -818 1720 -820 1805 c 0,6,7
 -820 1886 -820 1886 -735 1884 c 0,8,9
 -409 1884 -409 1884 -409 1556 c 2,10,-1
 -409 1312 l 2,11,12
 -409 1229 -409 1229 -492 1228 c 0,13,14
 -573 1228 -573 1228 -571 1312 c 2,0,-1
409 571 m 1,15,-1
 164 571 l 1,16,-1
 164 409 l 2,17,18
 164 328 164 328 82 328 c 128,-1,19
 0 328 0 328 0 409 c 2,20,-1
 0 735 l 1,21,-1
 409 735 l 1,22,-1
 489 656 l 1,23,-1
 409 571 l 1,15,-1
EndSplineSet
EndChar

StartChar: glyph322
Encoding: 175 -1 175
Width: 409
VWidth: 4095
GlyphClass: 2
Flags: W
LayerCount: 2
Fore
SplineSet
204 -40 m 0,0,1
 204 -118.04 204 -118.04 127 -155 c 1,2,3
 52.8785425101 -177.558704453 52.8785425101 -177.558704453 -4 -127 c 0,4,5
 -37.875 -93.125 -37.875 -93.125 -40 -40 c 0,6,7
 -40 5.75 -40 5.75 -4 44 c 1,8,9
 19.7457212714 75.1662591687 19.7457212714 75.1662591687 81 81 c 1,10,11
 157.5 81 157.5 81 196 4 c 0,12,13
 203 -17 203 -17 204 -40 c 0,0,1
409 571 m 1,14,-1
 164 571 l 1,15,-1
 164 409 l 2,16,17
 164 328 164 328 82 328 c 128,-1,18
 0 328 0 328 0 410 c 2,19,-1
 0 735 l 1,20,-1
 409 735 l 1,21,-1
 489 656 l 1,22,-1
 409 571 l 1,14,-1
EndSplineSet
EndChar

StartChar: glyph323
Encoding: 176 -1 176
Width: 409
VWidth: 4095
GlyphClass: 2
Flags: W
LayerCount: 2
Fore
SplineSet
245 1228 m 0,0,1
 245 1278.05882353 245 1278.05882353 196 1304 c 0,2,3
 180 1310 180 1310 164 1312 c 0,4,5
 136 1312 136 1312 104 1288 c 1,6,7
 81 1248.57142857 81 1248.57142857 81 1228 c 0,8,9
 81 1179.6875 81 1179.6875 132 1151 c 1,10,11
 148 1147 148 1147 164 1148 c 0,12,13
 206.285714286 1148 206.285714286 1148 220 1172 c 1,14,15
 245 1186.58333333 245 1186.58333333 245 1228 c 0,0,1
412 1228 m 0,16,17
 412 1122.59459459 412 1122.59459459 335 1056 c 1,18,19
 272.72972973 984 272.72972973 984 164 984 c 0,20,21
 116 984 116 984 67 1000 c 1,22,23
 -26.2465437788 1044.50403226 -26.2465437788 1044.50403226 -64 1137 c 0,24,25
 -85 1181 -85 1181 -83 1228 c 0,26,27
 -83 1322.83870968 -83 1322.83870968 -12 1403 c 1,28,29
 73.5625 1477 73.5625 1477 164 1477 c 0,30,31
 263.3125 1477 263.3125 1477 339.61625 1399.54 c 128,-1,32
 415.92 1322.08 415.92 1322.08 412 1228 c 0,16,17
409 571 m 1,33,-1
 164 571 l 1,34,-1
 164 0 l 2,35,36
 164 -81 164 -81 82 -81 c 128,-1,37
 0 -81 0 -81 0 0 c 2,38,-1
 0 735 l 1,39,-1
 409 735 l 1,40,-1
 489 656 l 1,41,-1
 409 571 l 1,33,-1
EndSplineSet
EndChar

StartChar: glyph324
Encoding: 177 -1 177
Width: 1392
VWidth: 4095
GlyphClass: 2
Flags: W
LayerCount: 2
Fore
SplineSet
0 1392 m 2,0,-1
 656 1392 l 2,1,2
 737 1392 737 1392 736 1310.5 c 128,-1,3
 735 1229 735 1229 656 1228 c 2,4,-1
 557.07276599 1228 l 1,5,6
 684.441540273 1099.18968544 684.441540273 1099.18968544 809 976 c 0,7,8
 989 796 989 796 1044 735 c 1,9,-1
 1392 735 l 1,10,-1
 1472 656 l 1,11,-1
 1392 571 l 1,12,-1
 1148 571 l 1,13,-1
 1148 409 l 2,14,15
 1148 328 1148 328 1065 328 c 128,-1,16
 982 328 982 328 983 410 c 128,-1,17
 984 492 984 492 984 513 c 2,18,-1
 984 571 l 1,19,20
 848 707 848 707 628 929 c 0,21,22
 408 1149 408 1149 328 1228 c 1,23,-1
 164 1228 l 1,24,-1
 164 409 l 2,25,26
 164 328 164 328 82 328 c 128,-1,27
 0 328 0 328 0 409 c 2,28,-1
 0 1228 l 1,29,30
 -81 1228 -81 1228 -81 1310 c 128,-1,31
 -81 1392 -81 1392 0 1392 c 2,0,-1
EndSplineSet
Substitution2: "Single Substitution lookup 30 subtable" glyph325
EndChar

StartChar: glyph325
Encoding: 178 -1 178
Width: 1067
VWidth: 4095
GlyphClass: 2
Flags: W
LayerCount: 2
Fore
SplineSet
0 1392 m 2,0,-1
 656 1392 l 2,1,2
 737 1392 737 1392 736 1310.5 c 128,-1,3
 735 1229 735 1229 656 1228 c 2,4,-1
 557.07276599 1228 l 1,5,6
 684.441540273 1099.18968544 684.441540273 1099.18968544 809 976 c 0,7,8
 989 796 989 796 1044 735 c 1,9,10
 1145.77540107 655.732620321 1145.77540107 655.732620321 1147.952415 655.952414996 c 1,11,-1
 1063 571 l 1,12,-1
 984 571 l 1,13,14
 848 707 848 707 628 929 c 0,15,16
 408 1149 408 1149 328 1228 c 1,17,-1
 164 1228 l 1,18,-1
 164 409 l 2,19,20
 164 328 164 328 82 328 c 128,-1,21
 0 328 0 328 0 409 c 2,22,-1
 0 1228 l 1,23,24
 -81 1228 -81 1228 -81 1310 c 128,-1,25
 -81 1392 -81 1392 0 1392 c 2,0,-1
1147.952415 655.952414996 m 1,26,27
 1148 655.957219251 1148 655.957219251 1148 656 c 1,28,-1
 1147.952415 655.952414996 l 1,26,27
EndSplineSet
EndChar

StartChar: glyph326
Encoding: 179 -1 179
Width: 1392
VWidth: 4095
GlyphClass: 2
Flags: W
LayerCount: 2
Fore
SplineSet
164 1556 m 2,0,1
 164 1639 164 1639 245 1641 c 0,2,3
 328 1641 328 1641 328 1557.5 c 2,4,-1
 328 1392 l 1,5,-1
 656 1392 l 2,6,7
 737 1392 737 1392 736 1310.5 c 128,-1,8
 735 1229 735 1229 656 1228 c 2,9,-1
 557.07276599 1228 l 1,10,11
 684.441540273 1099.18968544 684.441540273 1099.18968544 809 976 c 0,12,13
 989 796 989 796 1044 735 c 1,14,-1
 1392 735 l 1,15,-1
 1472 656 l 1,16,-1
 1392 571 l 1,17,-1
 1148 571 l 1,18,-1
 1148 409 l 2,19,20
 1148 328 1148 328 1065 328 c 128,-1,21
 982 328 982 328 983 410 c 128,-1,22
 984 492 984 492 984 513 c 2,23,-1
 984 571 l 1,24,25
 848 707 848 707 628 929 c 0,26,27
 408 1149 408 1149 328 1228 c 1,28,-1
 164 1228 l 1,29,-1
 164 409 l 2,30,31
 164 328 164 328 82 328 c 128,-1,32
 0 328 0 328 0 409 c 2,33,-1
 0 1228 l 1,34,35
 -81 1228 -81 1228 -81 1310 c 128,-1,36
 -81 1392 -81 1392 0 1392 c 2,37,-1
 164 1392 l 1,38,-1
 164 1556 l 2,0,1
EndSplineSet
EndChar

StartChar: glyph327
Encoding: 180 -1 180
Width: 1477
VWidth: 4095
GlyphClass: 2
Flags: W
LayerCount: 2
Fore
SplineSet
0 409 m 2,0,-1
 0 1560 l 2,1,2
 0 1676 0 1676 97 1712 c 0,3,4
 137 1724 137 1724 178 1724 c 128,-1,5
 219 1724 219 1724 256 1692 c 1,6,7
 444 1500 444 1500 756 1148 c 128,-1,8
 1068 796 1068 796 1128 735 c 1,9,-1
 1477 735 l 1,10,-1
 1557 656 l 1,11,-1
 1477 571 l 1,12,-1
 1228 571 l 1,13,-1
 1228 409 l 2,14,15
 1228 328 1228 328 1146.5 328 c 128,-1,16
 1065 328 1065 328 1063 409 c 2,17,-1
 1063 571 l 1,18,19
 927 707 927 707 636 1044 c 1,20,21
 340 1377 340 1377 259 1456 c 0,22,23
 236 1484 236 1484 201 1477 c 0,24,25
 164 1470 164 1470 164 1440 c 2,26,-1
 164 409 l 2,27,28
 164 328 164 328 82 328 c 128,-1,29
 0 328 0 328 0 409 c 2,0,-1
EndSplineSet
EndChar

StartChar: glyph328
Encoding: 181 -1 181
Width: 1556
VWidth: 4095
GlyphClass: 2
Flags: W
LayerCount: 2
Fore
SplineSet
0 409 m 2,0,-1
 0 1597 l 1,1,2
 -4 1708 -4 1708 97 1745 c 0,3,4
 193.144578313 1783.45783133 193.144578313 1783.45783133 256 1724 c 0,5,6
 444 1532 444 1532 797.5 1164.5 c 128,-1,7
 1151 797 1151 797 1208 735 c 1,8,-1
 1556 735 l 1,9,-1
 1636 656 l 1,10,-1
 1556 571 l 1,11,-1
 1312 571 l 1,12,-1
 1312 409 l 2,13,14
 1312 328 1312 328 1229.5 328 c 128,-1,15
 1147 328 1147 328 1147.5 410 c 128,-1,16
 1148 492 1148 492 1148 513 c 2,17,-1
 1148 571 l 1,18,19
 1012 707 1012 707 676 1058.5 c 128,-1,20
 340 1410 340 1410 256 1488 c 1,21,22
 233 1520 233 1520 201 1512 c 0,23,24
 164 1505 164 1505 164 1477 c 2,25,-1
 164 409 l 2,26,27
 164 328 164 328 82 328 c 128,-1,28
 0 328 0 328 0 409 c 2,0,-1
1033 81 m 0,29,30
 1033 735 1033 735 377 735 c 0,31,32
 294 735 294 735 294 653 c 128,-1,33
 294 571 294 571 377 571 c 0,34,35
 869 575 869 575 869 81 c 0,36,37
 869 0 869 0 951 0 c 128,-1,38
 1033 0 1033 0 1033 81 c 0,29,30
EndSplineSet
EndChar

StartChar: glyph329
Encoding: 182 -1 182
Width: 492
VWidth: 4095
GlyphClass: 2
Flags: W
LayerCount: 2
Fore
SplineSet
204 1269 m 0,0,1
 204 1220 204 1220 168 1184 c 1,2,3
 142.6124197 1150.67880086 142.6124197 1150.67880086 73.78620985 1149.33940043 c 128,-1,4
 4.96 1148 4.96 1148 -32 1225 c 0,5,6
 -39 1246 -39 1246 -40 1269 c 0,7,8
 -40 1347.04 -40 1347.04 37 1384 c 1,9,10
 111.12145749 1406.55870445 111.12145749 1406.55870445 168 1356 c 0,11,12
 201.681818182 1322.31818182 201.681818182 1322.31818182 204 1269 c 0,0,1
409 -492 m 0,13,14
 409 -328 409 -328 245 -328 c 2,15,-1
 164 -328 l 1,16,-1
 164 -656 l 1,17,-1
 245 -656 l 2,18,19
 326 -656 326 -656 368 -617 c 1,20,21
 408 -573 408 -573 409 -492 c 0,13,14
164 -820 m 2,22,23
 0 -820 0 -820 0 -656 c 2,24,-1
 0 735 l 1,25,-1
 492 735 l 1,26,-1
 572 656 l 1,27,-1
 492 571 l 1,28,-1
 164 571 l 1,29,-1
 164 -164 l 1,30,-1
 245 -164 l 2,31,32
 575 -164 575 -164 571 -492 c 0,33,34
 571 -816.024390244 571 -816.024390244 245 -820 c 2,35,-1
 164 -820 l 2,22,23
EndSplineSet
EndChar

StartChar: glyph330
Encoding: 183 -1 183
Width: 492
VWidth: 4095
GlyphClass: 2
Flags: W
LayerCount: 2
Fore
SplineSet
204 1269 m 0,0,1
 204 1220 204 1220 168 1184 c 1,2,3
 142.6124197 1150.67880086 142.6124197 1150.67880086 73.78620985 1149.33940043 c 128,-1,4
 4.96 1148 4.96 1148 -32 1225 c 0,5,6
 -39 1246 -39 1246 -40 1269 c 0,7,8
 -40 1347.04 -40 1347.04 37 1384 c 1,9,10
 111.12145749 1406.55870445 111.12145749 1406.55870445 168 1356 c 0,11,12
 201.681818182 1322.31818182 201.681818182 1322.31818182 204 1269 c 0,0,1
409 -81 m 0,13,14
 409 79.0240963855 409 79.0240963855 245 81 c 2,15,-1
 164 81 l 1,16,-1
 164 -245 l 1,17,-1
 245 -245 l 2,18,19
 407.024096386 -245 407.024096386 -245 409 -81 c 0,13,14
245 245 m 2,20,21
 575.024691358 245 575.024691358 245 571 -81 c 0,22,23
 571 -245 571 -245 492 -328 c 1,24,25
 409 -409 409 -409 245 -409 c 2,26,-1
 164 -409 l 1,27,-1
 164 -656 l 2,28,29
 164 -737 164 -737 82 -736 c 128,-1,30
 0 -735 0 -735 0 -656 c 2,31,-1
 0 735 l 1,32,-1
 492 735 l 1,33,-1
 572 656 l 1,34,-1
 492 571 l 1,35,-1
 164 571 l 1,36,-1
 164 245 l 1,37,-1
 245 245 l 2,20,21
EndSplineSet
EndChar

StartChar: glyph331
Encoding: 184 -1 184
Width: 492
VWidth: 4095
GlyphClass: 2
Flags: W
LayerCount: 2
Fore
SplineSet
409 -492 m 0,0,1
 409 -328 409 -328 245 -328 c 2,2,-1
 164 -328 l 1,3,-1
 164 -656 l 1,4,-1
 245 -656 l 2,5,6
 326 -656 326 -656 368 -617 c 1,7,8
 408 -573 408 -573 409 -492 c 0,0,1
164 -820 m 2,9,10
 0 -820 0 -820 0 -656 c 2,11,-1
 0 735 l 1,12,-1
 492 735 l 1,13,-1
 572 656 l 1,14,-1
 492 571 l 1,15,-1
 164 571 l 1,16,-1
 164 -164 l 1,17,-1
 245 -164 l 2,18,19
 575 -164 575 -164 571 -492 c 0,20,21
 571 -816.024390244 571 -816.024390244 245 -820 c 2,22,-1
 164 -820 l 2,9,10
EndSplineSet
EndChar

StartChar: glyph332
Encoding: 185 -1 185
Width: 492
VWidth: 4095
GlyphClass: 2
Flags: W
LayerCount: 2
Fore
SplineSet
409 -81 m 0,0,1
 409 79.0240963855 409 79.0240963855 245 81 c 2,2,-1
 164 81 l 1,3,-1
 164 -245 l 1,4,-1
 245 -245 l 2,5,6
 407.024096386 -245 407.024096386 -245 409 -81 c 0,0,1
245 245 m 2,7,8
 575.024691358 245 575.024691358 245 571 -81 c 0,9,10
 571 -245 571 -245 492 -328 c 1,11,12
 409 -409 409 -409 245 -409 c 2,13,-1
 164 -409 l 1,14,-1
 164 -656 l 2,15,16
 164 -737 164 -737 82 -736 c 128,-1,17
 0 -735 0 -735 0 -656 c 2,18,-1
 0 735 l 1,19,-1
 492 735 l 1,20,-1
 572 656 l 1,21,-1
 492 571 l 1,22,-1
 164 571 l 1,23,-1
 164 245 l 1,24,-1
 245 245 l 2,7,8
EndSplineSet
EndChar

StartChar: glyph333
Encoding: 186 -1 186
Width: 656
VWidth: 4095
GlyphClass: 2
Flags: W
LayerCount: 2
Fore
SplineSet
164 164 m 1,0,-1
 164 0 l 2,1,2
 164 -81 164 -81 82 -81 c 128,-1,3
 0 -81 0 -81 0 0 c 2,4,-1
 0 735 l 1,5,-1
 656 735 l 1,6,-1
 736 656 l 1,7,-1
 656 571 l 1,8,-1
 164 571 l 1,9,-1
 164 328 l 1,10,11
 409 328 409 328 532 204 c 0,12,13
 657 79 657 79 656 -164 c 0,14,15
 656 -245 656 -245 573 -245 c 128,-1,16
 490 -245 490 -245 492 -164 c 0,17,18
 492 164 492 164 164 164 c 1,0,-1
EndSplineSet
EndChar

StartChar: glyph334
Encoding: 187 -1 187
Width: 656
VWidth: 4095
GlyphClass: 2
Flags: W
LayerCount: 2
Fore
SplineSet
0 1392 m 2,0,-1
 81 1392 l 2,1,2
 245 1392 245 1392 327 1304 c 128,-1,3
 409 1216 409 1216 409 1063 c 2,4,-1
 409 735 l 1,5,-1
 656 735 l 1,6,-1
 736 656 l 1,7,-1
 656 571 l 1,8,-1
 409 571 l 1,9,-1
 409 -245 l 2,10,11
 409 -406.923076923 409 -406.923076923 571 -409 c 2,12,-1
 654 -409 l 2,13,14
 737 -409 737 -409 736 -491 c 128,-1,15
 735 -573 735 -573 654 -572 c 128,-1,16
 573 -571 573 -571 571 -571 c 0,17,18
 245 -571 245 -571 245 -245 c 2,19,-1
 245 654 l 1,20,-1
 245 735 l 1,21,-1
 245 1063 l 2,22,23
 245 1119 245 1119 204.5 1173.5 c 128,-1,24
 164 1228 164 1228 81 1228 c 2,25,-1
 0 1228 l 2,26,27
 -81 1228 -81 1228 -81 1310 c 128,-1,28
 -81 1392 -81 1392 0 1392 c 2,0,-1
EndSplineSet
EndChar

StartChar: glyph335
Encoding: 188 -1 188
Width: 735
VWidth: 4095
GlyphClass: 2
Flags: W
LayerCount: 2
Fore
SplineSet
328 -245 m 2,0,-1
 328 735 l 1,1,-1
 735 735 l 1,2,-1
 815 656 l 1,3,-1
 735 571 l 1,4,-1
 492 571 l 1,5,-1
 492 -245 l 2,6,7
 492 -575 492 -575 164 -571 c 1,8,-1
 0 -571 l 2,9,10
 -81 -571 -81 -571 -81 -490 c 128,-1,11
 -81 -409 -81 -409 0 -409 c 2,12,-1
 164.987951807 -409 l 2,13,14
 329.975903614 -409 329.975903614 -409 328 -245 c 2,0,-1
EndSplineSet
EndChar

StartChar: glyph336
Encoding: 189 -1 189
Width: 409
VWidth: 4095
GlyphClass: 2
Flags: W
LayerCount: 2
Fore
SplineSet
409 571 m 1,0,-1
 164 571 l 1,1,-1
 164 -245 l 2,2,3
 164 -328 164 -328 204 -368 c 128,-1,4
 244 -408 244 -408 326.5 -408.5 c 2,5,-1
 409 -409 l 2,6,7
 492 -409 492 -409 492 -491 c 128,-1,8
 492 -573 492 -573 410 -572 c 2,9,-1
 328 -571 l 2,10,11
 164 -571 164 -571 81 -492 c 1,12,13
 0 -409 0 -409 0 -245 c 2,14,-1
 0 735 l 1,15,-1
 409 735 l 1,16,-1
 489 656 l 1,17,-1
 409 571 l 1,0,-1
EndSplineSet
EndChar

StartChar: glyph337
Encoding: 190 -1 190
Width: 1146
VWidth: 4095
GlyphClass: 2
Flags: W
LayerCount: 2
Fore
SplineSet
164 492 m 2,0,1
 164 164 164 164 492 164 c 0,2,3
 573 164 573 164 656 245 c 0,4,5
 737 328 737 328 735 492 c 2,6,-1
 735 571 l 1,7,-1
 164 571 l 1,8,-1
 164 492 l 2,0,1
656 1392 m 128,-1,10
 1312 1392 1312 1392 1312 735 c 2,11,-1
 1312 654 l 2,12,13
 1312 573 1312 573 1228 571 c 0,14,15
 1147 571 1147 571 1148 656 c 2,16,-1
 1148 735 l 2,17,18
 1148 983 1148 983 1020 1104 c 0,19,20
 893 1229 893 1229 656 1228 c 1,21,22
 408 1232 408 1232 289 1107 c 1,23,24
 164 982 164 982 164 735 c 1,25,-1
 899 735 l 1,26,-1
 899 489.5 l 2,27,28
 899 244 899 244 776.5 122 c 128,-1,29
 654 0 654 0 492 0 c 0,30,31
 244 0 244 0 125 125 c 1,32,33
 0 245 0 245 0 492 c 1,34,35
 4 492 4 492 4 613.5 c 128,-1,36
 4 735 4 735 0 735 c 1,37,9
 0 1392 0 1392 656 1392 c 128,-1,10
EndSplineSet
Substitution2: "Single Substitution lookup 25 subtable" glyph287
EndChar

StartChar: glyph338
Encoding: 191 -1 191
Width: 1146
VWidth: 4095
GlyphClass: 2
Flags: W
LayerCount: 2
Fore
SplineSet
656 1392 m 128,-1,1
 1312 1392 1312 1392 1312 735 c 2,2,-1
 1312 654 l 2,3,4
 1312 573 1312 573 1228 571 c 0,5,6
 1147 571 1147 571 1148 656 c 2,7,-1
 1148 735 l 2,8,9
 1148 1230.02469136 1148 1230.02469136 656 1228 c 0,10,11
 408 1228 408 1228 289 1104 c 1,12,13
 164 984 164 984 164 735 c 2,14,-1
 164 0 l 2,15,16
 164 -81 164 -81 82 -81 c 128,-1,17
 0 -81 0 -81 0 0 c 2,18,-1
 0 735 l 2,19,0
 0 1392 0 1392 656 1392 c 128,-1,1
EndSplineSet
Substitution2: "Single Substitution lookup 25 subtable" glyph302
EndChar

StartChar: glyph339
Encoding: 192 -1 192
Width: 820
VWidth: 4095
GlyphClass: 2
Flags: W
LayerCount: 2
Fore
SplineSet
412 0 m 0,0,1
 413.883817427 380.531120332 413.883817427 380.531120332 409 571 c 1,2,-1
 164 571 l 1,3,-1
 164 409 l 2,4,5
 164 328 164 328 82 328 c 128,-1,6
 0 328 0 328 0 410 c 2,7,-1
 0 735 l 1,8,-1
 820 735 l 1,9,-1
 900 656 l 1,10,-1
 820 571 l 1,11,-1
 571 571 l 1,12,13
 574 571 574 571 576 358.5 c 128,-1,14
 578 146 578 146 576 0 c 0,15,16
 575 -81 575 -81 493.5 -81 c 128,-1,17
 412 -81 412 -81 412 0 c 0,0,1
EndSplineSet
EndChar

StartChar: nirugu.init
Encoding: 193 -1 193
Width: 237
VWidth: 4086
GlyphClass: 2
Flags: W
LayerCount: 2
Fore
SplineSet
0 735 m 1,0,-1
 245 735 l 1,1,2
 268 714 268 714 330 658 c 1,3,4
 309 637 309 637 245 571 c 1,5,-1
 0 571 l 1,6,-1
 0 735 l 1,0,-1
EndSplineSet
EndChar

StartChar: nirugu.medi
Encoding: 194 -1 194
Width: 237
VWidth: 4086
GlyphClass: 2
Flags: W
LayerCount: 2
Fore
SplineSet
0 735 m 1,0,-1
 245 735 l 1,1,2
 268 714 268 714 330 658 c 1,3,4
 309 637 309 637 245 571 c 1,5,-1
 0 571 l 1,6,-1
 0 735 l 1,0,-1
EndSplineSet
EndChar

StartChar: nirugu.fina
Encoding: 195 -1 195
Width: 247
VWidth: 4095
GlyphClass: 2
Flags: W
LayerCount: 2
Fore
SplineSet
0 735 m 1,0,-1
 245 735 l 1,1,-1
 245 571 l 1,2,-1
 0 571 l 1,3,-1
 0 735 l 1,0,-1
EndSplineSet
EndChar

StartChar: is.isol
Encoding: 199 6238 199
Width: 1803
VWidth: 4095
GlyphClass: 2
Flags: W
LayerCount: 2
Fore
SplineSet
0 1392 m 0,0,1
 656 1392 656 1392 656 735 c 1,2,-1
 899 735 l 1,3,4
 899 899 899 899 1024 1024 c 0,5,6
 1148 1149 1148 1149 1312 1148 c 0,7,8
 1557 1148 1557 1148 1680 1024 c 0,9,10
 1805 899 1805 899 1805 656 c 0,11,12
 1805 573 1805 573 1720 571 c 0,13,14
 1639 571 1639 571 1641 656 c 0,15,16
 1641 820 1641 820 1556 899 c 1,17,18
 1474 982 1474 982 1312 984 c 0,19,20
 1229 984 1229 984 1148 899 c 1,21,22
 1065 818 1065 818 1063 656 c 2,23,-1
 1063 0 l 2,24,25
 1063 -81 1063 -81 982 -81 c 128,-1,26
 901 -81 901 -81 899 0 c 2,27,-1
 899 571 l 1,28,-1
 656 571 l 1,29,-1
 656 409 l 2,30,31
 656 328 656 328 573 328 c 128,-1,32
 490 328 490 328 491 410 c 2,33,-1
 492 492 l 1,34,-1
 492 737.5 l 2,35,36
 492 1230.02469136 492 1230.02469136 0 1228 c 0,37,38
 -81 1228 -81 1228 -81 1310 c 128,-1,39
 -81 1392 -81 1392 0 1392 c 0,0,1
EndSplineSet
Substitution2: "Single Substitution lookup 6 subtable" i1.isol
Substitution2: "'fina' Terminal Forms in Mongolian lookup 2 subtable" is.fina
Substitution2: "'medi' Medial Forms in Mongolian lookup 1 subtable" is.medi
Substitution2: "Required Feature in Latin lookup 0 subtable" is.init
EndChar

StartChar: fs.isol
Encoding: 212 6251 212
Width: 654
VWidth: 4095
GlyphClass: 2
Flags: W
LayerCount: 2
Fore
SplineSet
0 1392 m 2,0,-1
 81 1392 l 2,1,2
 245 1392 245 1392 327 1304 c 128,-1,3
 409 1216 409 1216 409 1063 c 2,4,-1
 409 735 l 1,5,-1
 656 735 l 1,6,-1
 656 571 l 1,7,-1
 409 571 l 1,8,-1
 409 -245 l 2,9,10
 409 -406.923076923 409 -406.923076923 571 -409 c 2,11,-1
 654 -409 l 2,12,13
 737 -409 737 -409 736 -491 c 128,-1,14
 735 -573 735 -573 654 -572 c 128,-1,15
 573 -571 573 -571 571 -571 c 0,16,17
 245 -571 245 -571 245 -245 c 2,18,-1
 245 654 l 1,19,-1
 245 735 l 1,20,-1
 245 1063 l 2,21,22
 245 1119 245 1119 204.5 1173.5 c 128,-1,23
 164 1228 164 1228 81 1228 c 2,24,-1
 0 1228 l 2,25,26
 -81 1228 -81 1228 -81 1310 c 128,-1,27
 -81 1392 -81 1392 0 1392 c 2,0,-1
EndSplineSet
Substitution2: "'fina' Terminal Forms in Mongolian lookup 2 subtable" fs.fina
Substitution2: "'medi' Medial Forms in Mongolian lookup 1 subtable" fs.medi
Substitution2: "Required Feature in Latin lookup 0 subtable" fs.init
EndChar

StartChar: rs.isol
Encoding: 254 6199 254
Width: 654
VWidth: 4095
GlyphClass: 2
Flags: W
LayerCount: 2
Fore
SplineSet
0 735 m 1,0,-1
 656 735 l 1,1,-1
 656 571 l 1,2,-1
 164 571 l 1,3,-1
 164 328 l 1,4,5
 409 328 409 328 532 204 c 0,6,7
 657 79 657 79 656 -164 c 0,8,9
 656 -245 656 -245 573 -245 c 128,-1,10
 490 -245 490 -245 492 -164 c 0,11,12
 492 164 492 164 164 164 c 1,13,-1
 164 0 l 2,14,15
 164 -81 164 -81 82 -81 c 128,-1,16
 0 -81 0 -81 0 0 c 2,17,-1
 0 735 l 1,0,-1
EndSplineSet
Substitution2: "'fina' Terminal Forms in Mongolian lookup 2 subtable" rs.fina
Substitution2: "'medi' Medial Forms in Mongolian lookup 1 subtable" rs.medi
Substitution2: "Required Feature in Latin lookup 0 subtable" rs.init
EndChar

StartChar: kh.fina
Encoding: 255 -1 255
Width: 1146
VWidth: 4095
GlyphClass: 2
Flags: W
LayerCount: 2
Fore
SplineSet
656 1392 m 128,-1,1
 1312 1392 1312 1392 1312 735 c 2,2,-1
 1312 654 l 2,3,4
 1312 573 1312 573 1228 571 c 0,5,6
 1147 571 1147 571 1148 656 c 2,7,-1
 1148 735 l 2,8,9
 1148 1230.02469136 1148 1230.02469136 656 1228 c 0,10,11
 408 1228 408 1228 289 1104 c 1,12,13
 164 984 164 984 164 735 c 2,14,-1
 164 492 l 1,15,16
 409 492 409 492 532 368 c 0,17,18
 657 243 657 243 656 0 c 0,19,20
 656 -81 656 -81 573 -81 c 128,-1,21
 490 -81 490 -81 492 0 c 0,22,23
 492 328 492 328 164 328 c 1,24,-1
 164 0 l 2,25,26
 164 -81 164 -81 82 -81 c 128,-1,27
 0 -81 0 -81 0 0 c 2,28,-1
 0 735 l 2,29,0
 0 1392 0 1392 656 1392 c 128,-1,1
EndSplineSet
EndChar

StartChar: ng.medi
Encoding: 263 -1 263
Width: 1217
VWidth: 4086
GlyphClass: 2
Flags: W
LayerCount: 2
Fore
SplineSet
407 571 m 1,0,-1
 163 571 l 1,1,-1
 163 407 l 2,2,3
 163 329 163 329 81.5 329.5 c 128,-1,4
 0 330 0 330 0 407 c 2,5,-1
 0 735 l 1,6,-1
 407 735 l 1,7,8
 407 1065 407 1065 533 1187 c 0,9,10
 656 1310 656 1310 903 1310 c 128,-1,11
 1150 1310 1150 1310 1266 1146 c 1,12,13
 1389 983 1389 983 1389 735 c 2,14,-1
 1389 655 l 2,15,16
 1389 575 1389 575 1310 571 c 1,17,18
 1227 571 1227 571 1228 658 c 2,19,-1
 1228 735 l 2,20,21
 1228 898 1228 898 1146 1025 c 0,22,23
 1063 1148 1063 1148 901 1146 c 0,24,25
 738 1146 738 1146 656.5 1066.5 c 128,-1,26
 575 987 575 987 571 735 c 1,27,-1
 571 0 l 2,28,29
 572 -79 572 -79 490.5 -79 c 128,-1,30
 409 -79 409 -79 407 0 c 2,31,-1
 407 571 l 1,0,-1
EndSplineSet
Substitution2: "Single Substitution lookup 24 subtable" glyph319
EndChar

StartChar: ngs.init
Encoding: 264 -1 264
Width: 1217
VWidth: 4086
GlyphClass: 2
Flags: W
LayerCount: 2
Fore
SplineSet
407 571 m 1,0,-1
 163 571 l 1,1,-1
 163 407 l 2,2,3
 163 329 163 329 81.5 329.5 c 128,-1,4
 0 330 0 330 0 407 c 2,5,-1
 0 735 l 1,6,-1
 407 735 l 1,7,8
 407 1065 407 1065 533 1187 c 0,9,10
 656 1310 656 1310 903 1310 c 128,-1,11
 1150 1310 1150 1310 1266 1146 c 1,12,13
 1389 983 1389 983 1389 735 c 2,14,-1
 1389 655 l 2,15,16
 1389 575 1389 575 1310 571 c 1,17,18
 1227 571 1227 571 1228 658 c 2,19,-1
 1228 735 l 2,20,21
 1228 898 1228 898 1146 1025 c 0,22,23
 1063 1148 1063 1148 901 1146 c 0,24,25
 738 1146 738 1146 656.5 1066.5 c 128,-1,26
 575 987 575 987 571 735 c 1,27,-1
 571 0 l 2,28,29
 572 -79 572 -79 490.5 -79 c 128,-1,30
 409 -79 409 -79 407 0 c 2,31,-1
 407 571 l 1,0,-1
EndSplineSet
Substitution2: "Single Substitution lookup 24 subtable" glyph319
EndChar

StartChar: ngs.medi
Encoding: 265 -1 265
Width: 1217
VWidth: 4086
GlyphClass: 2
Flags: W
LayerCount: 2
Fore
SplineSet
407 571 m 1,0,-1
 163 571 l 1,1,-1
 163 407 l 2,2,3
 163 329 163 329 81.5 329.5 c 128,-1,4
 0 330 0 330 0 407 c 2,5,-1
 0 735 l 1,6,-1
 407 735 l 1,7,8
 407 1065 407 1065 533 1187 c 0,9,10
 656 1310 656 1310 903 1310 c 128,-1,11
 1150 1310 1150 1310 1266 1146 c 1,12,13
 1389 983 1389 983 1389 735 c 2,14,-1
 1389 655 l 2,15,16
 1389 575 1389 575 1310 571 c 1,17,18
 1227 571 1227 571 1228 658 c 2,19,-1
 1228 735 l 2,20,21
 1228 898 1228 898 1146 1025 c 0,22,23
 1063 1148 1063 1148 901 1146 c 0,24,25
 738 1146 738 1146 656.5 1066.5 c 128,-1,26
 575 987 575 987 571 735 c 1,27,-1
 571 0 l 2,28,29
 572 -79 572 -79 490.5 -79 c 128,-1,30
 409 -79 409 -79 407 0 c 2,31,-1
 407 571 l 1,0,-1
EndSplineSet
Substitution2: "Single Substitution lookup 24 subtable" glyph319
EndChar

StartChar: jhs.isol
Encoding: 268 6258 268
Width: 411
VWidth: 4095
GlyphClass: 2
Flags: W
LayerCount: 2
Fore
SplineSet
245 1228 m 0,0,1
 245 1278.05882353 245 1278.05882353 196 1304 c 0,2,3
 180 1310 180 1310 164 1312 c 0,4,5
 136 1312 136 1312 104 1288 c 1,6,7
 81 1248.57142857 81 1248.57142857 81 1228 c 0,8,9
 81 1179.6875 81 1179.6875 132 1151 c 1,10,11
 148 1147 148 1147 164 1148 c 0,12,13
 206.285714286 1148 206.285714286 1148 220 1172 c 1,14,15
 245 1186.58333333 245 1186.58333333 245 1228 c 0,0,1
412 1228 m 0,16,17
 412 1122.59459459 412 1122.59459459 335 1056 c 1,18,19
 272.72972973 984 272.72972973 984 164 984 c 0,20,21
 116 984 116 984 67 1000 c 1,22,23
 -26.2465437788 1044.50403226 -26.2465437788 1044.50403226 -64 1137 c 0,24,25
 -85 1181 -85 1181 -83 1228 c 0,26,27
 -83 1322.83870968 -83 1322.83870968 -12 1403 c 1,28,29
 73.5625 1477 73.5625 1477 164 1477 c 0,30,31
 263.3125 1477 263.3125 1477 335 1403 c 0,32,33
 415.92 1322.08 415.92 1322.08 412 1228 c 0,16,17
0 735 m 1,34,-1
 409 735 l 1,35,-1
 409 571 l 1,36,-1
 164 571 l 1,37,-1
 164 0 l 2,38,39
 164 -81 164 -81 82 -81 c 128,-1,40
 0 -81 0 -81 0 0 c 2,41,-1
 0 735 l 1,34,-1
EndSplineSet
Substitution2: "'fina' Terminal Forms in Mongolian lookup 2 subtable" jhs.fina
Substitution2: "'medi' Medial Forms in Mongolian lookup 1 subtable" jhs.medi
Substitution2: "Required Feature in Latin lookup 0 subtable" jhs.init
EndChar

StartChar: comma
Encoding: 275 6152 275
Width: 730
VWidth: 4086
Flags: W
LayerCount: 2
Fore
SplineSet
305 595 m 1,0,1
 330 620 330 620 330 656.272727272 c 128,-1,2
 330 692.545454545 330 692.545454545 311.5 707.772727273 c 0,3,4
 274.24135812 738.440159779 274.24135812 738.440159779 245 735 c 1,5,-1
 245 901 l 1,6,7
 358.962765957 903.279255319 358.962765957 903.279255319 420 828 c 1,8,9
 489.914893617 758.085106383 489.914893617 758.085106383 489.987517186 659.546072066 c 128,-1,10
 490.060140755 561.007037748 490.060140755 561.007037748 420 480 c 0,11,12
 388 448 388 448 339 426.5 c 128,-1,13
 290 405 290 405 245 407 c 1,14,-1
 245 571 l 1,15,16
 261 571 261 571 277.5 580 c 2,17,-1
 305 595 l 1,0,1
EndSplineSet
EndChar

StartChar: period
Encoding: 276 6153 276
Width: 1138
VWidth: 4086
Flags: W
LayerCount: 2
Fore
SplineSet
311.5 707.772727273 m 0,0,1
 274.24135812 738.440159779 274.24135812 738.440159779 245 735 c 1,2,-1
 245 901 l 1,3,4
 358.962765957 903.279255319 358.962765957 903.279255319 420 828 c 1,5,6
 489.914893617 758.085106383 489.914893617 758.085106383 492 658 c 0,7,8
 490.060140755 561.007037748 490.060140755 561.007037748 420 480 c 0,9,10
 388 448 388 448 339 426.5 c 128,-1,11
 290 405 290 405 245 407 c 1,12,-1
 245 571 l 1,13,14
 261 571 261 571 277.5 580 c 2,15,-1
 305 595 l 1,16,17
 330 620 330 620 330 656.272727273 c 128,-1,18
 330 692.545454545 330 692.545454545 311.5 707.772727273 c 0,0,1
735 658 m 0,19,20
 734 674 734 674 731 688 c 1,21,22
 718.1 710.933333333 718.1 710.933333333 688 731 c 0,23,24
 672 737 672 737 658 735 c 1,25,-1
 658 901 l 1,26,27
 771.045793397 903.260915868 771.045793397 903.260915868 828 828 c 1,28,29
 865 796 865 796 880 750 c 1,30,31
 901 706 901 706 901 657 c 0,32,33
 901 553 901 553 828 480 c 0,34,35
 751.12 403.12 751.12 403.12 658 407 c 1,36,-1
 658 571 l 1,37,38
 674 571 674 571 687 580 c 128,-1,39
 700 589 700 589 713 595 c 1,40,41
 723 607 723 607 731 623 c 1,42,43
 734 642 734 642 735 658 c 0,19,20
EndSplineSet
EndChar

StartChar: four.qik
Encoding: 277 6149 277
Width: 1545
VWidth: 4086
Flags: W
LayerCount: 2
Fore
SplineSet
731 951 m 1,0,1
 734 967 734 967 734 983 c 128,-1,2
 734 999 734 999 731 1018 c 1,3,4
 693.118644068 1068.50847458 693.118644068 1068.50847458 658 1066 c 1,5,-1
 658 1228 l 1,6,7
 708 1227 708 1227 750 1204 c 1,8,9
 800 1188 800 1188 828 1154 c 1,10,11
 903.197465681 1090.67581837 903.197465681 1090.67581837 901 983 c 0,12,13
 902 933 902 933 886 888 c 1,14,15
 842.84073107 797.365535248 842.84073107 797.365535248 750 757 c 0,16,17
 706 736 706 736 658 735 c 1,18,-1
 658 901 l 1,19,20
 692.3 901 692.3 901 707.65 918.5 c 128,-1,21
 723 936 723 936 731 951 c 1,0,1
731 296 m 1,22,23
 734 315 734 315 734 331.5 c 128,-1,24
 734 348 734 348 731 363 c 1,25,26
 722 379 722 379 713 382 c 1,27,28
 700 395 700 395 688 404 c 1,29,30
 672 408 672 408 658 407 c 1,31,-1
 658 571 l 1,32,33
 769.529411765 571 769.529411765 571 828 500 c 1,34,35
 865 468 865 468 880 420 c 1,36,37
 901 378 901 378 901 330 c 128,-1,38
 901 282 901 282 880 234 c 1,39,40
 849.344537815 142.033613445 849.344537815 142.033613445 750 101 c 0,41,42
 706 80 706 80 658 79 c 1,43,-1
 658 245 l 1,44,45
 676.888888889 245 676.888888889 245 713 270 c 1,46,47
 723 282 723 282 731 296 c 1,22,23
311.5 707.772727273 m 0,48,49
 274.24135812 738.440159779 274.24135812 738.440159779 245 735 c 1,50,-1
 245 901 l 1,51,52
 358.962765957 903.279255319 358.962765957 903.279255319 420 828 c 1,53,54
 489.914893617 758.085106383 489.914893617 758.085106383 492 658 c 0,55,56
 490.060140755 561.007037748 490.060140755 561.007037748 420 480 c 0,57,58
 388 448 388 448 339 426.5 c 128,-1,59
 290 405 290 405 245 407 c 1,60,-1
 245 571 l 1,61,62
 261 571 261 571 277.5 580 c 2,63,-1
 305 595 l 1,64,65
 330 620 330 620 330 656.272727273 c 128,-1,66
 330 692.545454545 330 692.545454545 311.5 707.772727273 c 0,48,49
1096 731 m 0,67,68
 1081 737 1081 737 1066 735 c 1,69,-1
 1066 901 l 1,70,71
 1116 902 1116 902 1157 886 c 1,72,73
 1252.56164384 838.219178082 1252.56164384 838.219178082 1289 750 c 0,74,75
 1310 706 1310 706 1310 657 c 0,76,77
 1310 563.25 1310 563.25 1238 480 c 1,78,79
 1149.12344828 403.133793103 1149.12344828 403.133793103 1066 407 c 1,80,-1
 1066 571 l 1,81,82
 1082 571 1082 571 1097 580 c 2,83,-1
 1122 595 l 1,84,85
 1146 627 1146 627 1146 664.714285714 c 128,-1,86
 1146 702.428571429 1146 702.428571429 1096 731 c 0,67,68
EndSplineSet
EndChar

StartChar: colon
Encoding: 278 6148 278
Width: 730
VWidth: 4086
Flags: W
LayerCount: 2
Fore
SplineSet
278 1061 m 0,0,1
 262 1067 262 1067 245 1066 c 1,2,-1
 245 1228 l 1,3,4
 295 1227 295 1227 340 1204 c 1,5,6
 430.825688073 1174.93577982 430.825688073 1174.93577982 470 1077 c 0,7,8
 491 1032 491 1032 491 982.5 c 0,9,10
 491 891.09375 491 891.09375 420 809 c 0,11,12
 388 777 388 777 339 756.5 c 128,-1,13
 290 736 290 736 245 735 c 1,14,-1
 245 901 l 1,15,16
 279.7 901 279.7 901 298.35 918.5 c 0,17,18
 330 948.198391421 330 948.198391421 330 988.99919571 c 128,-1,19
 330 1029.8 330 1029.8 278 1061 c 0,0,1
278 252 m 0,20,21
 330 281.25 330 281.25 330 331.5 c 0,22,23
 330 375.181818182 330 375.181818182 305 382 c 1,24,25
 293 395 293 395 278 404 c 1,26,27
 262 408 262 408 245 407 c 1,28,-1
 245 571 l 1,29,30
 357.352941176 571 357.352941176 571 420 500 c 0,31,32
 452 468 452 468 470 420 c 1,33,34
 491 378 491 378 491 330 c 0,35,36
 491 234.09375 491 234.09375 420 152 c 0,37,38
 388 120 388 120 339 100 c 128,-1,39
 290 80 290 80 245 79 c 1,40,-1
 245 245 l 1,41,42
 261 245 261 245 278 252 c 0,20,21
EndSplineSet
EndChar

StartChar: niguru
Encoding: 279 6154 279
Width: 237
VWidth: 4086
Flags: W
LayerCount: 2
Fore
SplineSet
0 735 m 1,0,-1
 245 735 l 1,1,2
 268 714 268 714 330 658 c 1,3,4
 309 637 309 637 245 571 c 1,5,-1
 0 571 l 1,6,-1
 0 735 l 1,0,-1
EndSplineSet
EndChar

StartChar: ziya
Encoding: 280 6151 280
Width: 402
VWidth: 4086
Flags: W
LayerCount: 2
Fore
SplineSet
0 735 m 1,0,-1
 407 735 l 1,1,2
 436 709 436 709 492 658 c 1,3,4
 471 637 471 637 407 571 c 1,5,-1
 163 571 l 1,6,-1
 163 407 l 2,7,8
 163 329 163 329 81.5 329.5 c 128,-1,9
 0 330 0 330 0 411 c 2,10,-1
 0 735 l 1,0,-1
EndSplineSet
EndChar

StartChar: rightquote
Encoding: 281 8217 281
Width: 804
VWidth: 4086
Flags: W
LayerCount: 2
Fore
SplineSet
567 0 m 2,0,1
 566 -79 566 -79 485 -79 c 128,-1,2
 404 -79 404 -79 404 0 c 2,3,-1
 404 1720 l 1,4,-1
 240 1720 l 2,5,6
 157 1720 157 1720 154 1802 c 0,7,8
 154 1881 154 1881 240 1882 c 2,9,-1
 567 1882 l 1,10,-1
 567 0 l 2,0,1
EndSplineSet
EndChar

